<mxfile modified="2023-11-14T23:44:17.718Z" host="app.diagrams.net" agent="Mozilla/5.0 (Windows NT 10.0; Win64; x64) AppleWebKit/537.36 (KHTML, like Gecko) Chrome/119.0.0.0 Safari/537.36" etag="sIZpsr-Pj2UWj4t5A51b" version="22.1.1" type="device">
  <diagram id="Ht1M8jgEwFfnCIfOTk4-" name="Page-1">
    <mxGraphModel dx="2146" dy="1325" grid="1" gridSize="10" guides="1" tooltips="1" connect="1" arrows="1" fold="1" page="1" pageScale="1" pageWidth="1169" pageHeight="827" math="0" shadow="0">
      <root>
        <mxCell id="0" />
        <mxCell id="1" parent="0" />
        <mxCell id="BncVeIozbWB8Ubywenjy-119" value="Auto Scaling group" style="points=[[0,0],[0.25,0],[0.5,0],[0.75,0],[1,0],[1,0.25],[1,0.5],[1,0.75],[1,1],[0.75,1],[0.5,1],[0.25,1],[0,1],[0,0.75],[0,0.5],[0,0.25]];outlineConnect=0;gradientColor=none;html=1;whiteSpace=wrap;fontSize=12;fontStyle=0;container=1;pointerEvents=0;collapsible=0;recursiveResize=0;shape=mxgraph.aws4.groupCenter;grIcon=mxgraph.aws4.group_auto_scaling_group;grStroke=1;strokeColor=#D86613;fillColor=#CCFF99;verticalAlign=top;align=center;fontColor=#D86613;dashed=1;spacingTop=25;fillOpacity=18;" parent="1" vertex="1">
          <mxGeometry x="540" y="20" width="180" height="450" as="geometry" />
        </mxCell>
        <mxCell id="BncVeIozbWB8Ubywenjy-74" value="Policy" style="sketch=0;outlineConnect=0;fontColor=#232F3E;gradientColor=none;fillColor=#7AA116;strokeColor=none;dashed=0;verticalLabelPosition=bottom;verticalAlign=top;align=center;html=1;fontSize=8;fontStyle=0;aspect=fixed;pointerEvents=1;shape=mxgraph.aws4.policy;spacing=-4;spacingTop=0;" parent="BncVeIozbWB8Ubywenjy-119" vertex="1">
          <mxGeometry x="142" y="6" width="27.94" height="24" as="geometry" />
        </mxCell>
        <mxCell id="BncVeIozbWB8Ubywenjy-141" value="EC2 Instances &quot;stream logs&quot; under the hood" style="rounded=0;whiteSpace=wrap;html=1;align=left;verticalAlign=top;fillColor=none;" parent="1" vertex="1">
          <mxGeometry x="-200" y="-740" width="871" height="590" as="geometry" />
        </mxCell>
        <mxCell id="c39yGLNnJXlrnnYztDWv-2" value="AWS Cloud" style="points=[[0,0],[0.25,0],[0.5,0],[0.75,0],[1,0],[1,0.25],[1,0.5],[1,0.75],[1,1],[0.75,1],[0.5,1],[0.25,1],[0,1],[0,0.75],[0,0.5],[0,0.25]];outlineConnect=0;gradientColor=none;html=1;whiteSpace=wrap;fontSize=12;fontStyle=0;container=1;pointerEvents=0;collapsible=0;recursiveResize=0;shape=mxgraph.aws4.group;grIcon=mxgraph.aws4.group_aws_cloud_alt;strokeColor=#232F3E;fillColor=none;verticalAlign=top;align=left;spacingLeft=30;fontColor=#232F3E;dashed=0;" parent="1" vertex="1">
          <mxGeometry x="-200" y="-100" width="1370" height="1020" as="geometry" />
        </mxCell>
        <mxCell id="BncVeIozbWB8Ubywenjy-36" style="edgeStyle=orthogonalEdgeStyle;rounded=0;orthogonalLoop=1;jettySize=auto;html=1;exitX=0.71;exitY=0.91;exitDx=0;exitDy=0;exitPerimeter=0;" parent="c39yGLNnJXlrnnYztDWv-2" source="c39yGLNnJXlrnnYztDWv-6" target="c39yGLNnJXlrnnYztDWv-15" edge="1">
          <mxGeometry relative="1" as="geometry">
            <Array as="points">
              <mxPoint x="110" y="229" />
              <mxPoint x="110" y="229" />
            </Array>
          </mxGeometry>
        </mxCell>
        <mxCell id="c39yGLNnJXlrnnYztDWv-6" value="Route 53" style="outlineConnect=0;dashed=0;verticalLabelPosition=bottom;verticalAlign=top;align=center;html=1;shape=mxgraph.aws3.route_53;fillColor=#F58536;gradientColor=none;" parent="c39yGLNnJXlrnnYztDWv-2" vertex="1">
          <mxGeometry x="60" y="30" width="70" height="85.5" as="geometry" />
        </mxCell>
        <mxCell id="c39yGLNnJXlrnnYztDWv-18" value="" style="edgeStyle=orthogonalEdgeStyle;rounded=0;orthogonalLoop=1;jettySize=auto;html=1;entryX=0.5;entryY=0;entryDx=0;entryDy=0;entryPerimeter=0;" parent="c39yGLNnJXlrnnYztDWv-2" source="c39yGLNnJXlrnnYztDWv-15" target="c39yGLNnJXlrnnYztDWv-25" edge="1">
          <mxGeometry relative="1" as="geometry">
            <mxPoint x="180" y="301.55555555555566" as="targetPoint" />
            <Array as="points">
              <mxPoint x="81" y="360" />
              <mxPoint x="81" y="360" />
            </Array>
          </mxGeometry>
        </mxCell>
        <mxCell id="c39yGLNnJXlrnnYztDWv-15" value="devices" style="sketch=0;outlineConnect=0;gradientColor=none;fontColor=#545B64;strokeColor=none;fillColor=#879196;dashed=0;verticalLabelPosition=bottom;verticalAlign=top;align=center;html=1;fontSize=12;fontStyle=0;aspect=fixed;shape=mxgraph.aws4.illustration_devices;pointerEvents=1" parent="c39yGLNnJXlrnnYztDWv-2" vertex="1">
          <mxGeometry x="20" y="265" width="100" height="73" as="geometry" />
        </mxCell>
        <mxCell id="c39yGLNnJXlrnnYztDWv-17" style="edgeStyle=orthogonalEdgeStyle;rounded=0;orthogonalLoop=1;jettySize=auto;html=1;entryX=0.29;entryY=0.91;entryDx=0;entryDy=0;entryPerimeter=0;" parent="c39yGLNnJXlrnnYztDWv-2" source="c39yGLNnJXlrnnYztDWv-15" target="c39yGLNnJXlrnnYztDWv-6" edge="1">
          <mxGeometry relative="1" as="geometry">
            <Array as="points">
              <mxPoint x="80" y="195" />
            </Array>
          </mxGeometry>
        </mxCell>
        <mxCell id="c39yGLNnJXlrnnYztDWv-25" value="? Should it be each for &lt;br&gt;API GW" style="sketch=0;points=[[0,0,0],[0.25,0,0],[0.5,0,0],[0.75,0,0],[1,0,0],[0,1,0],[0.25,1,0],[0.5,1,0],[0.75,1,0],[1,1,0],[0,0.25,0],[0,0.5,0],[0,0.75,0],[1,0.25,0],[1,0.5,0],[1,0.75,0]];outlineConnect=0;fontColor=#232F3E;fillColor=#8C4FFF;strokeColor=#ffffff;dashed=0;verticalLabelPosition=bottom;verticalAlign=top;align=center;html=1;fontSize=12;fontStyle=0;aspect=fixed;shape=mxgraph.aws4.resourceIcon;resIcon=mxgraph.aws4.cloudfront;" parent="c39yGLNnJXlrnnYztDWv-2" vertex="1">
          <mxGeometry x="42" y="414" width="78" height="78" as="geometry" />
        </mxCell>
        <mxCell id="BncVeIozbWB8Ubywenjy-71" value="" style="edgeStyle=orthogonalEdgeStyle;rounded=0;orthogonalLoop=1;jettySize=auto;html=1;" parent="c39yGLNnJXlrnnYztDWv-2" source="BncVeIozbWB8Ubywenjy-61" target="BncVeIozbWB8Ubywenjy-62" edge="1">
          <mxGeometry relative="1" as="geometry" />
        </mxCell>
        <mxCell id="BncVeIozbWB8Ubywenjy-61" value="CW Metrics" style="sketch=0;points=[[0,0,0],[0.25,0,0],[0.5,0,0],[0.75,0,0],[1,0,0],[0,1,0],[0.25,1,0],[0.5,1,0],[0.75,1,0],[1,1,0],[0,0.25,0],[0,0.5,0],[0,0.75,0],[1,0.25,0],[1,0.5,0],[1,0.75,0]];points=[[0,0,0],[0.25,0,0],[0.5,0,0],[0.75,0,0],[1,0,0],[0,1,0],[0.25,1,0],[0.5,1,0],[0.75,1,0],[1,1,0],[0,0.25,0],[0,0.5,0],[0,0.75,0],[1,0.25,0],[1,0.5,0],[1,0.75,0]];outlineConnect=0;fontColor=#232F3E;fillColor=#E7157B;strokeColor=#ffffff;dashed=0;verticalLabelPosition=bottom;verticalAlign=top;align=center;html=1;fontSize=12;fontStyle=0;aspect=fixed;shape=mxgraph.aws4.resourceIcon;resIcon=mxgraph.aws4.cloudwatch_2;" parent="c39yGLNnJXlrnnYztDWv-2" vertex="1">
          <mxGeometry x="885" y="20" width="48" height="48" as="geometry" />
        </mxCell>
        <mxCell id="BncVeIozbWB8Ubywenjy-62" value="CW Alarm" style="sketch=0;outlineConnect=0;fontColor=#232F3E;gradientColor=none;fillColor=#E7157B;strokeColor=none;dashed=0;verticalLabelPosition=bottom;verticalAlign=top;align=center;html=1;fontSize=12;fontStyle=0;aspect=fixed;pointerEvents=1;shape=mxgraph.aws4.alarm;" parent="c39yGLNnJXlrnnYztDWv-2" vertex="1">
          <mxGeometry x="785" y="21" width="47" height="47" as="geometry" />
        </mxCell>
        <mxCell id="BncVeIozbWB8Ubywenjy-92" value="*from SNS we may send &lt;br style=&quot;font-size: 9px;&quot;&gt;it anywhere we want" style="endArrow=classic;html=1;rounded=0;exitX=0;exitY=0.5;exitDx=0;exitDy=0;exitPerimeter=0;fontSize=9;" parent="c39yGLNnJXlrnnYztDWv-2" source="BncVeIozbWB8Ubywenjy-88" edge="1">
          <mxGeometry width="50" height="50" relative="1" as="geometry">
            <mxPoint x="890" y="261" as="sourcePoint" />
            <mxPoint x="310" y="45" as="targetPoint" />
          </mxGeometry>
        </mxCell>
        <mxCell id="BncVeIozbWB8Ubywenjy-88" value="SNS" style="sketch=0;points=[[0,0,0],[0.25,0,0],[0.5,0,0],[0.75,0,0],[1,0,0],[0,1,0],[0.25,1,0],[0.5,1,0],[0.75,1,0],[1,1,0],[0,0.25,0],[0,0.5,0],[0,0.75,0],[1,0.25,0],[1,0.5,0],[1,0.75,0]];outlineConnect=0;fontColor=#232F3E;fillColor=#E7157B;strokeColor=#ffffff;dashed=0;verticalLabelPosition=bottom;verticalAlign=top;align=center;html=1;fontSize=10;fontStyle=0;aspect=fixed;shape=mxgraph.aws4.resourceIcon;resIcon=mxgraph.aws4.sns;" parent="c39yGLNnJXlrnnYztDWv-2" vertex="1">
          <mxGeometry x="450" y="21" width="48" height="48" as="geometry" />
        </mxCell>
        <mxCell id="BncVeIozbWB8Ubywenjy-90" value="" style="edgeStyle=orthogonalEdgeStyle;rounded=0;orthogonalLoop=1;jettySize=auto;html=1;" parent="c39yGLNnJXlrnnYztDWv-2" source="BncVeIozbWB8Ubywenjy-154" target="BncVeIozbWB8Ubywenjy-88" edge="1">
          <mxGeometry relative="1" as="geometry">
            <Array as="points">
              <mxPoint x="564" y="45" />
            </Array>
          </mxGeometry>
        </mxCell>
        <mxCell id="BncVeIozbWB8Ubywenjy-87" value="Metric Filter" style="sketch=0;outlineConnect=0;fontColor=#232F3E;gradientColor=none;fillColor=#DD344C;strokeColor=none;dashed=0;verticalLabelPosition=top;verticalAlign=bottom;align=center;html=1;fontSize=10;fontStyle=0;aspect=fixed;pointerEvents=1;shape=mxgraph.aws4.filtering_rule;labelPosition=center;" parent="c39yGLNnJXlrnnYztDWv-2" vertex="1">
          <mxGeometry x="552" y="20" width="25" height="25" as="geometry" />
        </mxCell>
        <mxCell id="BncVeIozbWB8Ubywenjy-89" value="" style="edgeStyle=orthogonalEdgeStyle;rounded=0;orthogonalLoop=1;jettySize=auto;html=1;" parent="c39yGLNnJXlrnnYztDWv-2" source="BncVeIozbWB8Ubywenjy-86" target="BncVeIozbWB8Ubywenjy-87" edge="1">
          <mxGeometry relative="1" as="geometry">
            <Array as="points">
              <mxPoint x="590" y="45" />
              <mxPoint x="590" y="45" />
            </Array>
          </mxGeometry>
        </mxCell>
        <mxCell id="BncVeIozbWB8Ubywenjy-86" value="CW Logs" style="sketch=0;points=[[0,0,0],[0.25,0,0],[0.5,0,0],[0.75,0,0],[1,0,0],[0,1,0],[0.25,1,0],[0.5,1,0],[0.75,1,0],[1,1,0],[0,0.25,0],[0,0.5,0],[0,0.75,0],[1,0.25,0],[1,0.5,0],[1,0.75,0]];points=[[0,0,0],[0.25,0,0],[0.5,0,0],[0.75,0,0],[1,0,0],[0,1,0],[0.25,1,0],[0.5,1,0],[0.75,1,0],[1,1,0],[0,0.25,0],[0,0.5,0],[0,0.75,0],[1,0.25,0],[1,0.5,0],[1,0.75,0]];outlineConnect=0;fontColor=#232F3E;fillColor=#E7157B;strokeColor=#ffffff;dashed=0;verticalLabelPosition=bottom;verticalAlign=top;align=center;html=1;fontSize=10;fontStyle=0;aspect=fixed;shape=mxgraph.aws4.resourceIcon;resIcon=mxgraph.aws4.cloudwatch_2;" parent="c39yGLNnJXlrnnYztDWv-2" vertex="1">
          <mxGeometry x="640" y="21" width="48" height="48" as="geometry" />
        </mxCell>
        <mxCell id="BncVeIozbWB8Ubywenjy-154" value="CW Alarm" style="sketch=0;outlineConnect=0;fontColor=#232F3E;gradientColor=none;fillColor=#E7157B;strokeColor=none;dashed=0;verticalLabelPosition=bottom;verticalAlign=top;align=center;html=1;fontSize=8;fontStyle=0;aspect=fixed;pointerEvents=1;shape=mxgraph.aws4.alarm;" parent="c39yGLNnJXlrnnYztDWv-2" vertex="1">
          <mxGeometry x="550" y="46" width="27" height="27" as="geometry" />
        </mxCell>
        <mxCell id="BncVeIozbWB8Ubywenjy-13" value="Region" style="points=[[0,0],[0.25,0],[0.5,0],[0.75,0],[1,0],[1,0.25],[1,0.5],[1,0.75],[1,1],[0.75,1],[0.5,1],[0.25,1],[0,1],[0,0.75],[0,0.5],[0,0.25]];outlineConnect=0;gradientColor=none;html=1;whiteSpace=wrap;fontSize=12;fontStyle=0;container=0;pointerEvents=0;collapsible=0;recursiveResize=0;shape=mxgraph.aws4.group;grIcon=mxgraph.aws4.group_region;strokeColor=#147EBA;fillColor=none;verticalAlign=top;align=left;spacingLeft=30;fontColor=#147EBA;dashed=1;spacingTop=0;spacing=2;" parent="1" vertex="1">
          <mxGeometry x="80" width="1040" height="860" as="geometry" />
        </mxCell>
        <mxCell id="BncVeIozbWB8Ubywenjy-176" value="Private subnet" style="points=[[0,0],[0.25,0],[0.5,0],[0.75,0],[1,0],[1,0.25],[1,0.5],[1,0.75],[1,1],[0.75,1],[0.5,1],[0.25,1],[0,1],[0,0.75],[0,0.5],[0,0.25]];outlineConnect=0;gradientColor=none;html=1;whiteSpace=wrap;fontSize=12;fontStyle=0;container=1;pointerEvents=0;collapsible=0;recursiveResize=0;shape=mxgraph.aws4.group;grIcon=mxgraph.aws4.group_security_group;grStroke=0;strokeColor=#147EBA;fillColor=#E6F2F8;verticalAlign=top;align=left;spacingLeft=30;fontColor=#147EBA;dashed=0;" parent="BncVeIozbWB8Ubywenjy-13" vertex="1">
          <mxGeometry x="470" y="320" width="160" height="140" as="geometry" />
        </mxCell>
        <mxCell id="BncVeIozbWB8Ubywenjy-173" value="Private subnet" style="points=[[0,0],[0.25,0],[0.5,0],[0.75,0],[1,0],[1,0.25],[1,0.5],[1,0.75],[1,1],[0.75,1],[0.5,1],[0.25,1],[0,1],[0,0.75],[0,0.5],[0,0.25]];outlineConnect=0;gradientColor=none;html=1;whiteSpace=wrap;fontSize=12;fontStyle=0;container=1;pointerEvents=0;collapsible=0;recursiveResize=0;shape=mxgraph.aws4.group;grIcon=mxgraph.aws4.group_security_group;grStroke=0;strokeColor=#147EBA;fillColor=#E6F2F8;verticalAlign=top;align=left;spacingLeft=30;fontColor=#147EBA;dashed=0;" parent="BncVeIozbWB8Ubywenjy-13" vertex="1">
          <mxGeometry x="470" y="90" width="160" height="140" as="geometry" />
        </mxCell>
        <mxCell id="BncVeIozbWB8Ubywenjy-59" value="Security group" style="fillColor=none;strokeColor=#DD3522;verticalAlign=top;fontStyle=0;fontColor=#DD3522;whiteSpace=wrap;html=1;horizontal=0;" parent="BncVeIozbWB8Ubywenjy-13" vertex="1">
          <mxGeometry x="494.5" y="120" width="111" height="330" as="geometry" />
        </mxCell>
        <mxCell id="85sZW6mU-xxooky95qAK-1" style="edgeStyle=orthogonalEdgeStyle;rounded=0;orthogonalLoop=1;jettySize=auto;html=1;" edge="1" parent="BncVeIozbWB8Ubywenjy-13" source="BncVeIozbWB8Ubywenjy-9" target="BncVeIozbWB8Ubywenjy-28">
          <mxGeometry relative="1" as="geometry" />
        </mxCell>
        <mxCell id="BncVeIozbWB8Ubywenjy-9" value="" style="sketch=0;points=[[0,0,0],[0.25,0,0],[0.5,0,0],[0.75,0,0],[1,0,0],[0,1,0],[0.25,1,0],[0.5,1,0],[0.75,1,0],[1,1,0],[0,0.25,0],[0,0.5,0],[0,0.75,0],[1,0.25,0],[1,0.5,0],[1,0.75,0]];outlineConnect=0;fontColor=#232F3E;fillColor=#8C4FFF;strokeColor=#ffffff;dashed=0;verticalLabelPosition=bottom;verticalAlign=top;align=center;html=1;fontSize=12;fontStyle=0;aspect=fixed;shape=mxgraph.aws4.resourceIcon;resIcon=mxgraph.aws4.api_gateway;" parent="BncVeIozbWB8Ubywenjy-13" vertex="1">
          <mxGeometry x="20" y="320" width="78" height="78" as="geometry" />
        </mxCell>
        <mxCell id="BncVeIozbWB8Ubywenjy-7" style="edgeStyle=orthogonalEdgeStyle;rounded=0;orthogonalLoop=1;jettySize=auto;html=1;" parent="BncVeIozbWB8Ubywenjy-13" target="BncVeIozbWB8Ubywenjy-10" edge="1">
          <mxGeometry relative="1" as="geometry">
            <mxPoint x="108" y="619" as="sourcePoint" />
          </mxGeometry>
        </mxCell>
        <mxCell id="BncVeIozbWB8Ubywenjy-6" value="eu-north-1b" style="fillColor=none;strokeColor=#147EBA;dashed=1;verticalAlign=top;fontStyle=0;fontColor=#147EBA;whiteSpace=wrap;html=1;horizontal=0;" parent="BncVeIozbWB8Ubywenjy-13" vertex="1">
          <mxGeometry x="282" y="80" width="718" height="160" as="geometry" />
        </mxCell>
        <mxCell id="BncVeIozbWB8Ubywenjy-4" value="VPC" style="points=[[0,0],[0.25,0],[0.5,0],[0.75,0],[1,0],[1,0.25],[1,0.5],[1,0.75],[1,1],[0.75,1],[0.5,1],[0.25,1],[0,1],[0,0.75],[0,0.5],[0,0.25]];outlineConnect=0;gradientColor=none;html=1;whiteSpace=wrap;fontSize=12;fontStyle=0;container=1;pointerEvents=0;collapsible=0;recursiveResize=0;shape=mxgraph.aws4.group;grIcon=mxgraph.aws4.group_vpc;strokeColor=#248814;fillColor=none;verticalAlign=top;align=left;spacingLeft=30;fontColor=#AAB7B8;dashed=0;" parent="BncVeIozbWB8Ubywenjy-13" vertex="1">
          <mxGeometry x="160" y="10" width="852" height="520" as="geometry" />
        </mxCell>
        <mxCell id="BncVeIozbWB8Ubywenjy-10" value="Next.js Lambda" style="sketch=0;outlineConnect=0;fontColor=#232F3E;gradientColor=none;fillColor=#7AA116;strokeColor=none;dashed=0;verticalLabelPosition=bottom;verticalAlign=top;align=center;html=1;fontSize=12;fontStyle=0;aspect=fixed;pointerEvents=1;shape=mxgraph.aws4.lambda_function;" parent="BncVeIozbWB8Ubywenjy-4" vertex="1">
          <mxGeometry x="50" y="570" width="78" height="78" as="geometry" />
        </mxCell>
        <mxCell id="BncVeIozbWB8Ubywenjy-164" value="Public subnet" style="points=[[0,0],[0.25,0],[0.5,0],[0.75,0],[1,0],[1,0.25],[1,0.5],[1,0.75],[1,1],[0.75,1],[0.5,1],[0.25,1],[0,1],[0,0.75],[0,0.5],[0,0.25]];outlineConnect=0;gradientColor=none;html=1;whiteSpace=wrap;fontSize=12;fontStyle=0;container=1;pointerEvents=0;collapsible=0;recursiveResize=0;shape=mxgraph.aws4.group;grIcon=mxgraph.aws4.group_security_group;grStroke=0;strokeColor=#248814;fillColor=#E9F3E6;verticalAlign=top;align=left;spacingLeft=30;fontColor=#248814;dashed=0;" parent="BncVeIozbWB8Ubywenjy-4" vertex="1">
          <mxGeometry x="170" y="80" width="80" height="130" as="geometry" />
        </mxCell>
        <mxCell id="BncVeIozbWB8Ubywenjy-172" style="edgeStyle=orthogonalEdgeStyle;rounded=0;orthogonalLoop=1;jettySize=auto;html=1;startArrow=classic;startFill=1;endArrow=none;endFill=0;" parent="BncVeIozbWB8Ubywenjy-164" source="BncVeIozbWB8Ubywenjy-167" edge="1">
          <mxGeometry relative="1" as="geometry">
            <mxPoint x="190" y="69.99999999999977" as="targetPoint" />
          </mxGeometry>
        </mxCell>
        <mxCell id="BncVeIozbWB8Ubywenjy-28" value="" style="sketch=0;outlineConnect=0;fontColor=#232F3E;gradientColor=none;fillColor=#8C4FFF;strokeColor=none;dashed=0;verticalLabelPosition=bottom;verticalAlign=top;align=center;html=1;fontSize=12;fontStyle=0;aspect=fixed;pointerEvents=1;shape=mxgraph.aws4.application_load_balancer;" parent="BncVeIozbWB8Ubywenjy-4" vertex="1">
          <mxGeometry x="65" y="236" width="48" height="48" as="geometry" />
        </mxCell>
        <mxCell id="BncVeIozbWB8Ubywenjy-31" style="edgeStyle=orthogonalEdgeStyle;rounded=0;orthogonalLoop=1;jettySize=auto;html=1;startArrow=block;startFill=1;endArrow=none;endFill=0;" parent="BncVeIozbWB8Ubywenjy-4" target="BncVeIozbWB8Ubywenjy-28" edge="1">
          <mxGeometry relative="1" as="geometry">
            <mxPoint x="311" y="180" as="sourcePoint" />
            <Array as="points">
              <mxPoint x="280" y="180" />
              <mxPoint x="280" y="250" />
            </Array>
          </mxGeometry>
        </mxCell>
        <mxCell id="BncVeIozbWB8Ubywenjy-32" style="edgeStyle=orthogonalEdgeStyle;rounded=0;orthogonalLoop=1;jettySize=auto;html=1;startArrow=block;startFill=1;endArrow=none;endFill=0;" parent="BncVeIozbWB8Ubywenjy-4" target="BncVeIozbWB8Ubywenjy-28" edge="1">
          <mxGeometry relative="1" as="geometry">
            <mxPoint x="310" y="343" as="sourcePoint" />
            <Array as="points">
              <mxPoint x="280" y="343" />
              <mxPoint x="280" y="270" />
            </Array>
          </mxGeometry>
        </mxCell>
        <mxCell id="BncVeIozbWB8Ubywenjy-5" value="Avaliability Zone&lt;br&gt;eu-north-1a" style="fillColor=none;strokeColor=#147EBA;dashed=1;verticalAlign=top;fontStyle=0;fontColor=#147EBA;whiteSpace=wrap;html=1;horizontal=0;" parent="BncVeIozbWB8Ubywenjy-4" vertex="1">
          <mxGeometry x="122" y="310" width="680" height="161" as="geometry" />
        </mxCell>
        <mxCell id="BncVeIozbWB8Ubywenjy-17" value="Data Private subnet" style="points=[[0,0],[0.25,0],[0.5,0],[0.75,0],[1,0],[1,0.25],[1,0.5],[1,0.75],[1,1],[0.75,1],[0.5,1],[0.25,1],[0,1],[0,0.75],[0,0.5],[0,0.25]];outlineConnect=0;gradientColor=none;html=1;whiteSpace=wrap;fontSize=12;fontStyle=0;container=1;pointerEvents=0;collapsible=0;recursiveResize=0;shape=mxgraph.aws4.group;grIcon=mxgraph.aws4.group_security_group;grStroke=0;strokeColor=#147EBA;fillColor=#E6F2F8;verticalAlign=top;align=left;spacingLeft=30;fontColor=#147EBA;dashed=0;" parent="BncVeIozbWB8Ubywenjy-4" vertex="1">
          <mxGeometry x="581" y="320" width="159" height="141" as="geometry" />
        </mxCell>
        <mxCell id="BncVeIozbWB8Ubywenjy-37" value="Primary&lt;br&gt;(read/write)" style="outlineConnect=0;dashed=0;verticalLabelPosition=bottom;verticalAlign=top;align=center;html=1;shape=mxgraph.aws3.rds_db_instance;fillColor=#2E73B8;gradientColor=none;" parent="BncVeIozbWB8Ubywenjy-4" vertex="1">
          <mxGeometry x="622.25" y="354" width="49.5" height="66" as="geometry" />
        </mxCell>
        <mxCell id="BncVeIozbWB8Ubywenjy-40" value="" style="edgeStyle=orthogonalEdgeStyle;rounded=0;orthogonalLoop=1;jettySize=auto;html=1;entryX=0;entryY=0.5;entryDx=0;entryDy=0;entryPerimeter=0;" parent="BncVeIozbWB8Ubywenjy-4" source="BncVeIozbWB8Ubywenjy-21" target="BncVeIozbWB8Ubywenjy-37" edge="1">
          <mxGeometry x="0.1254" relative="1" as="geometry">
            <mxPoint as="offset" />
          </mxGeometry>
        </mxCell>
        <mxCell id="BncVeIozbWB8Ubywenjy-21" value="EC2 Server" style="sketch=0;points=[[0,0,0],[0.25,0,0],[0.5,0,0],[0.75,0,0],[1,0,0],[0,1,0],[0.25,1,0],[0.5,1,0],[0.75,1,0],[1,1,0],[0,0.25,0],[0,0.5,0],[0,0.75,0],[1,0.25,0],[1,0.5,0],[1,0.75,0]];outlineConnect=0;fontColor=#232F3E;fillColor=#ED7100;strokeColor=#ffffff;dashed=0;verticalLabelPosition=bottom;verticalAlign=top;align=center;html=1;fontSize=12;fontStyle=0;aspect=fixed;shape=mxgraph.aws4.resourceIcon;resIcon=mxgraph.aws4.ec2;" parent="BncVeIozbWB8Ubywenjy-4" vertex="1">
          <mxGeometry x="360.5" y="358" width="58" height="58" as="geometry" />
        </mxCell>
        <mxCell id="BncVeIozbWB8Ubywenjy-166" value="Public subnet" style="points=[[0,0],[0.25,0],[0.5,0],[0.75,0],[1,0],[1,0.25],[1,0.5],[1,0.75],[1,1],[0.75,1],[0.5,1],[0.25,1],[0,1],[0,0.75],[0,0.5],[0,0.25]];outlineConnect=0;gradientColor=none;html=1;whiteSpace=wrap;fontSize=12;fontStyle=0;container=1;pointerEvents=0;collapsible=0;recursiveResize=0;shape=mxgraph.aws4.group;grIcon=mxgraph.aws4.group_security_group;grStroke=0;strokeColor=#248814;fillColor=#E9F3E6;verticalAlign=top;align=left;spacingLeft=30;fontColor=#248814;dashed=0;" parent="BncVeIozbWB8Ubywenjy-4" vertex="1">
          <mxGeometry x="170" y="322" width="80" height="130" as="geometry" />
        </mxCell>
        <mxCell id="BncVeIozbWB8Ubywenjy-168" value="" style="sketch=0;outlineConnect=0;fontColor=#232F3E;gradientColor=none;fillColor=#8C4FFF;strokeColor=none;dashed=0;verticalLabelPosition=bottom;verticalAlign=top;align=center;html=1;fontSize=12;fontStyle=0;aspect=fixed;pointerEvents=1;shape=mxgraph.aws4.nat_gateway;" parent="BncVeIozbWB8Ubywenjy-4" vertex="1">
          <mxGeometry x="186" y="404" width="48" height="48" as="geometry" />
        </mxCell>
        <mxCell id="BncVeIozbWB8Ubywenjy-14" value="Data Private subnet" style="points=[[0,0],[0.25,0],[0.5,0],[0.75,0],[1,0],[1,0.25],[1,0.5],[1,0.75],[1,1],[0.75,1],[0.5,1],[0.25,1],[0,1],[0,0.75],[0,0.5],[0,0.25]];outlineConnect=0;gradientColor=none;html=1;whiteSpace=wrap;fontSize=12;fontStyle=0;container=1;pointerEvents=0;collapsible=0;recursiveResize=0;shape=mxgraph.aws4.group;grIcon=mxgraph.aws4.group_security_group;grStroke=0;strokeColor=#147EBA;fillColor=#E6F2F8;verticalAlign=top;align=left;spacingLeft=30;fontColor=#147EBA;dashed=0;" parent="BncVeIozbWB8Ubywenjy-13" vertex="1">
          <mxGeometry x="742" y="90" width="248" height="140" as="geometry" />
        </mxCell>
        <mxCell id="BncVeIozbWB8Ubywenjy-51" value="" style="rounded=0;orthogonalLoop=1;jettySize=auto;html=1;exitX=1;exitY=0.5;exitDx=0;exitDy=0;exitPerimeter=0;entryX=0;entryY=0.5;entryDx=0;entryDy=0;entryPerimeter=0;" parent="BncVeIozbWB8Ubywenjy-13" source="BncVeIozbWB8Ubywenjy-20" target="BncVeIozbWB8Ubywenjy-53" edge="1">
          <mxGeometry relative="1" as="geometry" />
        </mxCell>
        <mxCell id="BncVeIozbWB8Ubywenjy-41" style="rounded=0;orthogonalLoop=1;jettySize=auto;html=1;entryX=0;entryY=0.5;entryDx=0;entryDy=0;entryPerimeter=0;" parent="BncVeIozbWB8Ubywenjy-13" source="BncVeIozbWB8Ubywenjy-21" target="BncVeIozbWB8Ubywenjy-53" edge="1">
          <mxGeometry relative="1" as="geometry" />
        </mxCell>
        <mxCell id="BncVeIozbWB8Ubywenjy-54" value="Asynchonous replication" style="edgeStyle=orthogonalEdgeStyle;rounded=0;orthogonalLoop=1;jettySize=auto;html=1;entryX=0.5;entryY=0.99;entryDx=0;entryDy=0;entryPerimeter=0;strokeWidth=3;dashed=1;" parent="BncVeIozbWB8Ubywenjy-13" source="BncVeIozbWB8Ubywenjy-37" target="BncVeIozbWB8Ubywenjy-53" edge="1">
          <mxGeometry x="-0.0933" y="-3" relative="1" as="geometry">
            <mxPoint as="offset" />
          </mxGeometry>
        </mxCell>
        <mxCell id="BncVeIozbWB8Ubywenjy-55" value="Synchonous repliaction" style="edgeStyle=orthogonalEdgeStyle;rounded=0;orthogonalLoop=1;jettySize=auto;html=1;entryX=0.5;entryY=0.99;entryDx=0;entryDy=0;entryPerimeter=0;fillColor=#dae8fc;gradientColor=#7ea6e0;strokeColor=#6c8ebf;strokeWidth=3;" parent="BncVeIozbWB8Ubywenjy-13" source="BncVeIozbWB8Ubywenjy-37" target="BncVeIozbWB8Ubywenjy-38" edge="1">
          <mxGeometry x="0.4574" y="-3" relative="1" as="geometry">
            <mxPoint as="offset" />
          </mxGeometry>
        </mxCell>
        <mxCell id="BncVeIozbWB8Ubywenjy-53" value="Read replica&lt;br&gt;(only read access)" style="outlineConnect=0;dashed=0;verticalLabelPosition=bottom;verticalAlign=top;align=center;html=1;shape=mxgraph.aws3.rds_db_instance_read_replica;fillColor=#2E73B8;gradientColor=none;" parent="BncVeIozbWB8Ubywenjy-13" vertex="1">
          <mxGeometry x="782.25" y="127" width="49.5" height="66" as="geometry" />
        </mxCell>
        <mxCell id="BncVeIozbWB8Ubywenjy-38" value="Standby instance &lt;br&gt;(no read access)" style="outlineConnect=0;dashed=0;verticalLabelPosition=bottom;verticalAlign=top;align=center;html=1;shape=mxgraph.aws3.rds_db_instance_standby_multi_az;fillColor=#2E73B8;gradientColor=none;" parent="BncVeIozbWB8Ubywenjy-13" vertex="1">
          <mxGeometry x="912.5" y="127" width="49.5" height="66" as="geometry" />
        </mxCell>
        <mxCell id="BncVeIozbWB8Ubywenjy-20" value="EC2 Server" style="sketch=0;points=[[0,0,0],[0.25,0,0],[0.5,0,0],[0.75,0,0],[1,0,0],[0,1,0],[0.25,1,0],[0.5,1,0],[0.75,1,0],[1,1,0],[0,0.25,0],[0,0.5,0],[0,0.75,0],[1,0.25,0],[1,0.5,0],[1,0.75,0]];outlineConnect=0;fontColor=#232F3E;fillColor=#ED7100;strokeColor=#ffffff;dashed=0;verticalLabelPosition=bottom;verticalAlign=top;align=center;html=1;fontSize=12;fontStyle=0;aspect=fixed;shape=mxgraph.aws4.resourceIcon;resIcon=mxgraph.aws4.ec2;" parent="BncVeIozbWB8Ubywenjy-13" vertex="1">
          <mxGeometry x="521.5" y="131" width="58" height="58" as="geometry" />
        </mxCell>
        <mxCell id="BncVeIozbWB8Ubywenjy-162" value="S3 for &lt;br&gt;static assets" style="sketch=0;pointerEvents=1;shadow=0;dashed=0;html=1;strokeColor=none;fillColor=#DF8C42;labelPosition=center;verticalLabelPosition=bottom;verticalAlign=top;align=center;outlineConnect=0;shape=mxgraph.veeam2.aws_s3;" parent="BncVeIozbWB8Ubywenjy-13" vertex="1">
          <mxGeometry x="28" y="730" width="80" height="80" as="geometry" />
        </mxCell>
        <mxCell id="BncVeIozbWB8Ubywenjy-167" value="" style="sketch=0;outlineConnect=0;fontColor=#232F3E;gradientColor=none;fillColor=#8C4FFF;strokeColor=none;dashed=0;verticalLabelPosition=bottom;verticalAlign=top;align=center;html=1;fontSize=12;fontStyle=0;aspect=fixed;pointerEvents=1;shape=mxgraph.aws4.nat_gateway;" parent="BncVeIozbWB8Ubywenjy-13" vertex="1">
          <mxGeometry x="350" y="127" width="44" height="44" as="geometry" />
        </mxCell>
        <mxCell id="BncVeIozbWB8Ubywenjy-180" value="Bastion" style="text;html=1;align=center;verticalAlign=middle;resizable=0;points=[];autosize=1;strokeColor=none;fillColor=none;" parent="BncVeIozbWB8Ubywenjy-13" vertex="1">
          <mxGeometry x="342" y="189" width="60" height="30" as="geometry" />
        </mxCell>
        <mxCell id="BncVeIozbWB8Ubywenjy-171" style="edgeStyle=orthogonalEdgeStyle;rounded=0;orthogonalLoop=1;jettySize=auto;html=1;endArrow=none;endFill=0;startArrow=classic;startFill=1;entryX=0.23;entryY=0.879;entryDx=0;entryDy=0;entryPerimeter=0;" parent="BncVeIozbWB8Ubywenjy-13" source="BncVeIozbWB8Ubywenjy-168" target="BncVeIozbWB8Ubywenjy-59" edge="1">
          <mxGeometry relative="1" as="geometry">
            <mxPoint x="520" y="395.0000000000002" as="targetPoint" />
            <Array as="points">
              <mxPoint x="460" y="438" />
              <mxPoint x="460" y="410" />
            </Array>
          </mxGeometry>
        </mxCell>
        <mxCell id="BncVeIozbWB8Ubywenjy-196" style="rounded=0;orthogonalLoop=1;jettySize=auto;html=1;exitX=1;exitY=0.5;exitDx=0;exitDy=0;exitPerimeter=0;entryX=0;entryY=0.5;entryDx=0;entryDy=0;entryPerimeter=0;" parent="BncVeIozbWB8Ubywenjy-13" source="BncVeIozbWB8Ubywenjy-20" target="BncVeIozbWB8Ubywenjy-37" edge="1">
          <mxGeometry relative="1" as="geometry" />
        </mxCell>
        <mxCell id="BncVeIozbWB8Ubywenjy-35" style="edgeStyle=orthogonalEdgeStyle;rounded=0;orthogonalLoop=1;jettySize=auto;html=1;exitX=0.5;exitY=1;exitDx=0;exitDy=0;exitPerimeter=0;" parent="BncVeIozbWB8Ubywenjy-13" source="BncVeIozbWB8Ubywenjy-9" target="BncVeIozbWB8Ubywenjy-10" edge="1">
          <mxGeometry relative="1" as="geometry">
            <Array as="points">
              <mxPoint x="59" y="580" />
              <mxPoint x="60" y="580" />
              <mxPoint x="60" y="619" />
            </Array>
            <mxPoint x="30" y="619" as="targetPoint" />
          </mxGeometry>
        </mxCell>
        <mxCell id="BncVeIozbWB8Ubywenjy-34" style="edgeStyle=orthogonalEdgeStyle;rounded=0;orthogonalLoop=1;jettySize=auto;html=1;entryX=0;entryY=0.5;entryDx=0;entryDy=0;entryPerimeter=0;" parent="1" source="c39yGLNnJXlrnnYztDWv-25" target="BncVeIozbWB8Ubywenjy-9" edge="1">
          <mxGeometry relative="1" as="geometry">
            <Array as="points">
              <mxPoint x="-20" y="353" />
              <mxPoint x="-20" y="359" />
            </Array>
          </mxGeometry>
        </mxCell>
        <mxCell id="BncVeIozbWB8Ubywenjy-75" style="edgeStyle=orthogonalEdgeStyle;rounded=0;orthogonalLoop=1;jettySize=auto;html=1;entryX=0.25;entryY=0;entryDx=0;entryDy=0;" parent="1" source="BncVeIozbWB8Ubywenjy-62" edge="1">
          <mxGeometry relative="1" as="geometry">
            <mxPoint x="566.4999999999995" y="19.999999999999773" as="targetPoint" />
            <Array as="points">
              <mxPoint x="567" y="-55" />
              <mxPoint x="567" y="-20" />
              <mxPoint x="567" y="-20" />
            </Array>
          </mxGeometry>
        </mxCell>
        <mxCell id="BncVeIozbWB8Ubywenjy-76" style="edgeStyle=orthogonalEdgeStyle;rounded=0;orthogonalLoop=1;jettySize=auto;html=1;entryX=1;entryY=0.5;entryDx=0;entryDy=0;entryPerimeter=0;" parent="1" source="BncVeIozbWB8Ubywenjy-74" target="BncVeIozbWB8Ubywenjy-61" edge="1">
          <mxGeometry relative="1" as="geometry">
            <Array as="points">
              <mxPoint x="760" y="46" />
              <mxPoint x="760" y="-56" />
            </Array>
          </mxGeometry>
        </mxCell>
        <mxCell id="BncVeIozbWB8Ubywenjy-93" style="edgeStyle=orthogonalEdgeStyle;rounded=0;orthogonalLoop=1;jettySize=auto;html=1;exitX=0;exitY=0.5;exitDx=0;exitDy=0;entryX=1;entryY=0.5;entryDx=0;entryDy=0;entryPerimeter=0;fillColor=#f5f5f5;strokeColor=#666666;dashed=1;exitPerimeter=0;strokeWidth=2;gradientColor=#b3b3b3;" parent="1" source="BncVeIozbWB8Ubywenjy-20" target="BncVeIozbWB8Ubywenjy-86" edge="1">
          <mxGeometry relative="1" as="geometry">
            <mxPoint x="592.5" y="180" as="sourcePoint" />
            <Array as="points">
              <mxPoint x="510" y="160" />
              <mxPoint x="510" y="-55" />
            </Array>
          </mxGeometry>
        </mxCell>
        <mxCell id="BncVeIozbWB8Ubywenjy-94" style="edgeStyle=orthogonalEdgeStyle;rounded=0;orthogonalLoop=1;jettySize=auto;html=1;exitX=0;exitY=0.5;exitDx=0;exitDy=0;entryX=1;entryY=0.5;entryDx=0;entryDy=0;entryPerimeter=0;fillColor=#f5f5f5;strokeColor=#666666;dashed=1;exitPerimeter=0;gradientColor=#b3b3b3;strokeWidth=2;" parent="1" source="BncVeIozbWB8Ubywenjy-21" target="BncVeIozbWB8Ubywenjy-86" edge="1">
          <mxGeometry relative="1" as="geometry">
            <mxPoint x="590.5" y="380" as="sourcePoint" />
            <Array as="points">
              <mxPoint x="510" y="397" />
              <mxPoint x="510" y="-55" />
            </Array>
          </mxGeometry>
        </mxCell>
        <mxCell id="BncVeIozbWB8Ubywenjy-121" value="" style="sketch=0;points=[[0,0,0],[0.25,0,0],[0.5,0,0],[0.75,0,0],[1,0,0],[0,1,0],[0.25,1,0],[0.5,1,0],[0.75,1,0],[1,1,0],[0,0.25,0],[0,0.5,0],[0,0.75,0],[1,0.25,0],[1,0.5,0],[1,0.75,0]];points=[[0,0,0],[0.25,0,0],[0.5,0,0],[0.75,0,0],[1,0,0],[0,1,0],[0.25,1,0],[0.5,1,0],[0.75,1,0],[1,1,0],[0,0.25,0],[0,0.5,0],[0,0.75,0],[1,0.25,0],[1,0.5,0],[1,0.75,0]];outlineConnect=0;fontColor=#232F3E;fillColor=#E7157B;strokeColor=#ffffff;dashed=0;verticalLabelPosition=bottom;verticalAlign=top;align=center;html=1;fontSize=12;fontStyle=0;aspect=fixed;shape=mxgraph.aws4.resourceIcon;resIcon=mxgraph.aws4.systems_manager;" parent="1" vertex="1">
          <mxGeometry x="-179" y="-557" width="78" height="78" as="geometry" />
        </mxCell>
        <mxCell id="BncVeIozbWB8Ubywenjy-122" style="edgeStyle=orthogonalEdgeStyle;rounded=0;orthogonalLoop=1;jettySize=auto;html=1;" parent="1" source="BncVeIozbWB8Ubywenjy-124" target="BncVeIozbWB8Ubywenjy-125" edge="1">
          <mxGeometry relative="1" as="geometry">
            <Array as="points">
              <mxPoint x="177" y="-580" />
            </Array>
          </mxGeometry>
        </mxCell>
        <mxCell id="BncVeIozbWB8Ubywenjy-123" style="edgeStyle=orthogonalEdgeStyle;rounded=0;orthogonalLoop=1;jettySize=auto;html=1;" parent="1" source="BncVeIozbWB8Ubywenjy-124" target="BncVeIozbWB8Ubywenjy-129" edge="1">
          <mxGeometry relative="1" as="geometry">
            <Array as="points">
              <mxPoint x="363" y="-600" />
            </Array>
          </mxGeometry>
        </mxCell>
        <mxCell id="BncVeIozbWB8Ubywenjy-124" value="" style="sketch=0;outlineConnect=0;fontColor=#232F3E;gradientColor=none;fillColor=#E7157B;strokeColor=none;dashed=0;verticalLabelPosition=bottom;verticalAlign=top;align=center;html=1;fontSize=12;fontStyle=0;aspect=fixed;pointerEvents=1;shape=mxgraph.aws4.parameter_store;" parent="1" vertex="1">
          <mxGeometry x="-139" y="-610" width="48.08" height="50" as="geometry" />
        </mxCell>
        <mxCell id="BncVeIozbWB8Ubywenjy-125" value="CloudWatch &lt;br&gt;Unified Agent" style="shadow=0;dashed=0;html=1;strokeColor=none;fillColor=#4495D1;labelPosition=center;verticalLabelPosition=bottom;verticalAlign=top;align=center;outlineConnect=0;shape=mxgraph.veeam.2d.agent;pointerEvents=1;" parent="1" vertex="1">
          <mxGeometry x="154.20000000000005" y="-540.4" width="44.8" height="44.8" as="geometry" />
        </mxCell>
        <mxCell id="BncVeIozbWB8Ubywenjy-126" style="edgeStyle=orthogonalEdgeStyle;rounded=0;orthogonalLoop=1;jettySize=auto;html=1;fillColor=#fad7ac;strokeColor=#b46504;" parent="1" source="BncVeIozbWB8Ubywenjy-127" edge="1">
          <mxGeometry relative="1" as="geometry">
            <Array as="points">
              <mxPoint x="261" y="-381" />
            </Array>
            <mxPoint x="261" y="-239.8966725043781" as="targetPoint" />
          </mxGeometry>
        </mxCell>
        <mxCell id="BncVeIozbWB8Ubywenjy-127" value="EC2 Server" style="sketch=0;points=[[0,0,0],[0.25,0,0],[0.5,0,0],[0.75,0,0],[1,0,0],[0,1,0],[0.25,1,0],[0.5,1,0],[0.75,1,0],[1,1,0],[0,0.25,0],[0,0.5,0],[0,0.75,0],[1,0.25,0],[1,0.5,0],[1,0.75,0]];outlineConnect=0;fontColor=#232F3E;fillColor=#ED7100;strokeColor=#ffffff;dashed=0;verticalLabelPosition=bottom;verticalAlign=top;align=center;html=1;fontSize=12;fontStyle=0;aspect=fixed;shape=mxgraph.aws4.resourceIcon;resIcon=mxgraph.aws4.ec2;" parent="1" vertex="1">
          <mxGeometry x="52.200000000000045" y="-410" width="58" height="58" as="geometry" />
        </mxCell>
        <mxCell id="BncVeIozbWB8Ubywenjy-128" style="edgeStyle=orthogonalEdgeStyle;rounded=0;orthogonalLoop=1;jettySize=auto;html=1;entryX=0.5;entryY=0;entryDx=0;entryDy=0;entryPerimeter=0;dashed=1;fillColor=#e3c800;strokeColor=#B09500;" parent="1" source="BncVeIozbWB8Ubywenjy-125" target="BncVeIozbWB8Ubywenjy-127" edge="1">
          <mxGeometry relative="1" as="geometry">
            <Array as="points">
              <mxPoint x="177" y="-430" />
              <mxPoint x="81" y="-430" />
            </Array>
          </mxGeometry>
        </mxCell>
        <mxCell id="BncVeIozbWB8Ubywenjy-130" style="edgeStyle=orthogonalEdgeStyle;rounded=0;orthogonalLoop=1;jettySize=auto;html=1;fillColor=#fad7ac;strokeColor=#b46504;" parent="1" source="BncVeIozbWB8Ubywenjy-131" edge="1">
          <mxGeometry relative="1" as="geometry">
            <Array as="points">
              <mxPoint x="281" y="-381" />
            </Array>
            <mxPoint x="281" y="-239.8966725043781" as="targetPoint" />
          </mxGeometry>
        </mxCell>
        <mxCell id="BncVeIozbWB8Ubywenjy-131" value="EC2 Server" style="sketch=0;points=[[0,0,0],[0.25,0,0],[0.5,0,0],[0.75,0,0],[1,0,0],[0,1,0],[0.25,1,0],[0.5,1,0],[0.75,1,0],[1,1,0],[0,0.25,0],[0,0.5,0],[0,0.75,0],[1,0.25,0],[1,0.5,0],[1,0.75,0]];outlineConnect=0;fontColor=#232F3E;fillColor=#ED7100;strokeColor=#ffffff;dashed=0;verticalLabelPosition=bottom;verticalAlign=top;align=center;html=1;fontSize=12;fontStyle=0;aspect=fixed;shape=mxgraph.aws4.resourceIcon;resIcon=mxgraph.aws4.ec2;" parent="1" vertex="1">
          <mxGeometry x="471" y="-410" width="58" height="58" as="geometry" />
        </mxCell>
        <mxCell id="BncVeIozbWB8Ubywenjy-132" style="edgeStyle=orthogonalEdgeStyle;rounded=0;orthogonalLoop=1;jettySize=auto;html=1;dashed=1;fillColor=#e3c800;strokeColor=#B09500;entryX=0.5;entryY=0;entryDx=0;entryDy=0;entryPerimeter=0;" parent="1" source="BncVeIozbWB8Ubywenjy-129" target="BncVeIozbWB8Ubywenjy-131" edge="1">
          <mxGeometry relative="1" as="geometry">
            <Array as="points">
              <mxPoint x="363" y="-440" />
              <mxPoint x="500" y="-440" />
            </Array>
            <mxPoint x="491" y="-380" as="targetPoint" />
          </mxGeometry>
        </mxCell>
        <mxCell id="BncVeIozbWB8Ubywenjy-133" value="Agent Configuration" style="rounded=0;whiteSpace=wrap;html=1;fillColor=#fad7ac;strokeColor=#b46504;fontSize=8;" parent="1" vertex="1">
          <mxGeometry x="-49" y="-600" width="120" height="20" as="geometry" />
        </mxCell>
        <mxCell id="BncVeIozbWB8Ubywenjy-134" value="IAM Role" style="sketch=0;outlineConnect=0;fontColor=#232F3E;gradientColor=none;fillColor=#DD344C;strokeColor=none;dashed=0;verticalLabelPosition=bottom;verticalAlign=top;align=center;html=1;fontSize=12;fontStyle=0;aspect=fixed;pointerEvents=1;shape=mxgraph.aws4.role;" parent="1" vertex="1">
          <mxGeometry x="-90.92000000000007" y="-324" width="78" height="44" as="geometry" />
        </mxCell>
        <mxCell id="BncVeIozbWB8Ubywenjy-135" style="edgeStyle=orthogonalEdgeStyle;rounded=0;orthogonalLoop=1;jettySize=auto;html=1;entryX=1;entryY=0.5;entryDx=0;entryDy=0;entryPerimeter=0;" parent="1" source="BncVeIozbWB8Ubywenjy-134" target="BncVeIozbWB8Ubywenjy-121" edge="1">
          <mxGeometry relative="1" as="geometry">
            <Array as="points">
              <mxPoint x="-52" y="-518" />
            </Array>
          </mxGeometry>
        </mxCell>
        <mxCell id="BncVeIozbWB8Ubywenjy-136" style="edgeStyle=orthogonalEdgeStyle;rounded=0;orthogonalLoop=1;jettySize=auto;html=1;entryX=0.5;entryY=1;entryDx=0;entryDy=0;entryPerimeter=0;" parent="1" source="BncVeIozbWB8Ubywenjy-134" target="BncVeIozbWB8Ubywenjy-127" edge="1">
          <mxGeometry relative="1" as="geometry" />
        </mxCell>
        <mxCell id="BncVeIozbWB8Ubywenjy-137" style="edgeStyle=orthogonalEdgeStyle;rounded=0;orthogonalLoop=1;jettySize=auto;html=1;entryX=0.5;entryY=1;entryDx=0;entryDy=0;entryPerimeter=0;" parent="1" source="BncVeIozbWB8Ubywenjy-134" target="BncVeIozbWB8Ubywenjy-131" edge="1">
          <mxGeometry relative="1" as="geometry" />
        </mxCell>
        <mxCell id="BncVeIozbWB8Ubywenjy-139" value="Logs &amp;amp; Metrics" style="rounded=0;whiteSpace=wrap;html=1;fillColor=#fad7ac;strokeColor=#b46504;fontSize=8;horizontal=0;" parent="1" vertex="1">
          <mxGeometry x="261" y="-360" width="20" height="70" as="geometry" />
        </mxCell>
        <mxCell id="BncVeIozbWB8Ubywenjy-140" value="Auto Scaling group" style="points=[[0,0],[0.25,0],[0.5,0],[0.75,0],[1,0],[1,0.25],[1,0.5],[1,0.75],[1,1],[0.75,1],[0.5,1],[0.25,1],[0,1],[0,0.75],[0,0.5],[0,0.25]];outlineConnect=0;gradientColor=none;html=1;whiteSpace=wrap;fontSize=12;fontStyle=0;container=1;pointerEvents=0;collapsible=0;recursiveResize=0;shape=mxgraph.aws4.groupCenter;grIcon=mxgraph.aws4.group_auto_scaling_group;grStroke=1;strokeColor=#D86613;fillColor=none;verticalAlign=top;align=center;fontColor=#D86613;dashed=1;spacingTop=25;" parent="1" vertex="1">
          <mxGeometry x="11" y="-690" width="560" height="420" as="geometry" />
        </mxCell>
        <mxCell id="BncVeIozbWB8Ubywenjy-129" value="CloudWatch&lt;br style=&quot;border-color: var(--border-color);&quot;&gt;Unified Agent" style="shadow=0;dashed=0;html=1;strokeColor=none;fillColor=#4495D1;labelPosition=center;verticalLabelPosition=bottom;verticalAlign=top;align=center;outlineConnect=0;shape=mxgraph.veeam.2d.agent;pointerEvents=1;" parent="BncVeIozbWB8Ubywenjy-140" vertex="1">
          <mxGeometry x="331.1" y="149.60000000000002" width="44.8" height="44.8" as="geometry" />
        </mxCell>
        <mxCell id="BncVeIozbWB8Ubywenjy-142" value="CW Logs" style="sketch=0;points=[[0,0,0],[0.25,0,0],[0.5,0,0],[0.75,0,0],[1,0,0],[0,1,0],[0.25,1,0],[0.5,1,0],[0.75,1,0],[1,1,0],[0,0.25,0],[0,0.5,0],[0,0.75,0],[1,0.25,0],[1,0.5,0],[1,0.75,0]];points=[[0,0,0],[0.25,0,0],[0.5,0,0],[0.75,0,0],[1,0,0],[0,1,0],[0.25,1,0],[0.5,1,0],[0.75,1,0],[1,1,0],[0,0.25,0],[0,0.5,0],[0,0.75,0],[1,0.25,0],[1,0.5,0],[1,0.75,0]];outlineConnect=0;fontColor=#232F3E;fillColor=#E7157B;strokeColor=#ffffff;dashed=0;verticalLabelPosition=bottom;verticalAlign=top;align=center;html=1;fontSize=10;fontStyle=0;aspect=fixed;shape=mxgraph.aws4.resourceIcon;resIcon=mxgraph.aws4.cloudwatch_2;" parent="1" vertex="1">
          <mxGeometry x="236" y="-240" width="70" height="70" as="geometry" />
        </mxCell>
        <mxCell id="BncVeIozbWB8Ubywenjy-143" value="EC2 Instances Environemnt Variables set up" style="rounded=0;whiteSpace=wrap;html=1;align=left;verticalAlign=top;fillColor=none;" parent="1" vertex="1">
          <mxGeometry x="690" y="-740" width="480" height="590" as="geometry" />
        </mxCell>
        <mxCell id="BncVeIozbWB8Ubywenjy-152" value="Decryption&lt;br&gt;Service" style="edgeStyle=orthogonalEdgeStyle;rounded=0;orthogonalLoop=1;jettySize=auto;html=1;startArrow=block;startFill=1;" parent="1" source="BncVeIozbWB8Ubywenjy-144" target="BncVeIozbWB8Ubywenjy-146" edge="1">
          <mxGeometry x="0.1178" y="42" relative="1" as="geometry">
            <Array as="points">
              <mxPoint x="938" y="-340" />
              <mxPoint x="938" y="-340" />
            </Array>
            <mxPoint as="offset" />
          </mxGeometry>
        </mxCell>
        <mxCell id="BncVeIozbWB8Ubywenjy-144" value="SSM Parameter&lt;br&gt;&lt;div style=&quot;text-align: center;&quot;&gt;&lt;span style=&quot;background-color: initial;&quot;&gt;Store&lt;/span&gt;&lt;/div&gt;" style="sketch=0;outlineConnect=0;fontColor=#232F3E;gradientColor=none;fillColor=#E7157B;strokeColor=none;dashed=0;verticalLabelPosition=middle;verticalAlign=middle;align=left;html=1;fontSize=12;fontStyle=1;aspect=fixed;pointerEvents=1;shape=mxgraph.aws4.parameter_store;labelPosition=right;" parent="1" vertex="1">
          <mxGeometry x="910.0000000000001" y="-448" width="67.31" height="70" as="geometry" />
        </mxCell>
        <mxCell id="BncVeIozbWB8Ubywenjy-150" value="Plaintext &lt;br&gt;Configuration" style="edgeStyle=orthogonalEdgeStyle;rounded=0;orthogonalLoop=1;jettySize=auto;html=1;startArrow=blockThin;startFill=1;" parent="1" source="BncVeIozbWB8Ubywenjy-145" target="BncVeIozbWB8Ubywenjy-144" edge="1">
          <mxGeometry x="-0.091" y="-35" relative="1" as="geometry">
            <Array as="points">
              <mxPoint x="925" y="-480" />
              <mxPoint x="925" y="-480" />
            </Array>
            <mxPoint as="offset" />
          </mxGeometry>
        </mxCell>
        <mxCell id="BncVeIozbWB8Ubywenjy-145" value="EC2 Server" style="sketch=0;points=[[0,0,0],[0.25,0,0],[0.5,0,0],[0.75,0,0],[1,0,0],[0,1,0],[0.25,1,0],[0.5,1,0],[0.75,1,0],[1,1,0],[0,0.25,0],[0,0.5,0],[0,0.75,0],[1,0.25,0],[1,0.5,0],[1,0.75,0]];outlineConnect=0;fontColor=#232F3E;fillColor=#ED7100;strokeColor=#ffffff;dashed=0;verticalLabelPosition=bottom;verticalAlign=top;align=center;html=1;fontSize=12;fontStyle=0;aspect=fixed;shape=mxgraph.aws4.resourceIcon;resIcon=mxgraph.aws4.ec2;" parent="1" vertex="1">
          <mxGeometry x="901" y="-638" width="58" height="58" as="geometry" />
        </mxCell>
        <mxCell id="BncVeIozbWB8Ubywenjy-146" value="AWS KMS" style="sketch=0;points=[[0,0,0],[0.25,0,0],[0.5,0,0],[0.75,0,0],[1,0,0],[0,1,0],[0.25,1,0],[0.5,1,0],[0.75,1,0],[1,1,0],[0,0.25,0],[0,0.5,0],[0,0.75,0],[1,0.25,0],[1,0.5,0],[1,0.75,0]];outlineConnect=0;fontColor=#232F3E;fillColor=#DD344C;strokeColor=#ffffff;dashed=0;verticalLabelPosition=bottom;verticalAlign=top;align=center;html=1;fontSize=12;fontStyle=1;aspect=fixed;shape=mxgraph.aws4.resourceIcon;resIcon=mxgraph.aws4.key_management_service;" parent="1" vertex="1">
          <mxGeometry x="910" y="-310" width="57.31" height="57.31" as="geometry" />
        </mxCell>
        <mxCell id="BncVeIozbWB8Ubywenjy-149" value="Check IAM&lt;br&gt;permissions" style="edgeStyle=orthogonalEdgeStyle;rounded=0;orthogonalLoop=1;jettySize=auto;html=1;startArrow=block;startFill=1;" parent="1" source="BncVeIozbWB8Ubywenjy-148" target="BncVeIozbWB8Ubywenjy-144" edge="1">
          <mxGeometry relative="1" as="geometry" />
        </mxCell>
        <mxCell id="BncVeIozbWB8Ubywenjy-148" value="" style="sketch=0;outlineConnect=0;fontColor=#232F3E;gradientColor=none;fillColor=#DD344C;strokeColor=none;dashed=0;verticalLabelPosition=bottom;verticalAlign=top;align=center;html=1;fontSize=12;fontStyle=0;aspect=fixed;pointerEvents=1;shape=mxgraph.aws4.permissions;" parent="1" vertex="1">
          <mxGeometry x="730" y="-452" width="62" height="78" as="geometry" />
        </mxCell>
        <mxCell id="BncVeIozbWB8Ubywenjy-151" style="edgeStyle=orthogonalEdgeStyle;rounded=0;orthogonalLoop=1;jettySize=auto;html=1;startArrow=block;startFill=1;" parent="1" source="BncVeIozbWB8Ubywenjy-144" edge="1">
          <mxGeometry relative="1" as="geometry">
            <mxPoint x="940" y="-580" as="targetPoint" />
            <Array as="points">
              <mxPoint x="940" y="-514" />
            </Array>
          </mxGeometry>
        </mxCell>
        <mxCell id="BncVeIozbWB8Ubywenjy-153" value="Encrypted&lt;br/&gt;configuration&lt;br/&gt;" style="edgeLabel;html=1;align=center;verticalAlign=middle;resizable=0;points=[];" parent="BncVeIozbWB8Ubywenjy-151" vertex="1" connectable="0">
          <mxGeometry x="0.3253" y="-1" relative="1" as="geometry">
            <mxPoint x="29" y="17" as="offset" />
          </mxGeometry>
        </mxCell>
        <mxCell id="BncVeIozbWB8Ubywenjy-170" style="edgeStyle=orthogonalEdgeStyle;rounded=0;orthogonalLoop=1;jettySize=auto;html=1;startArrow=block;startFill=1;endArrow=none;endFill=0;" parent="1" source="BncVeIozbWB8Ubywenjy-159" target="BncVeIozbWB8Ubywenjy-168" edge="1">
          <mxGeometry relative="1" as="geometry">
            <Array as="points">
              <mxPoint x="290" y="270" />
              <mxPoint x="290" y="438" />
            </Array>
          </mxGeometry>
        </mxCell>
        <mxCell id="BncVeIozbWB8Ubywenjy-159" value="IGW" style="sketch=0;outlineConnect=0;fontColor=#232F3E;gradientColor=none;fillColor=#8C4FFF;strokeColor=none;dashed=0;verticalLabelPosition=bottom;verticalAlign=top;align=center;html=1;fontSize=12;fontStyle=0;aspect=fixed;pointerEvents=1;shape=mxgraph.aws4.internet_gateway;" parent="1" vertex="1">
          <mxGeometry x="220" y="248" width="44" height="44" as="geometry" />
        </mxCell>
        <mxCell id="BncVeIozbWB8Ubywenjy-160" value="" style="edgeStyle=orthogonalEdgeStyle;rounded=0;orthogonalLoop=1;jettySize=auto;html=1;" parent="1" source="BncVeIozbWB8Ubywenjy-28" target="BncVeIozbWB8Ubywenjy-159" edge="1">
          <mxGeometry relative="1" as="geometry" />
        </mxCell>
        <mxCell id="BncVeIozbWB8Ubywenjy-163" style="edgeStyle=orthogonalEdgeStyle;rounded=0;orthogonalLoop=1;jettySize=auto;html=1;" parent="1" source="c39yGLNnJXlrnnYztDWv-25" target="BncVeIozbWB8Ubywenjy-162" edge="1">
          <mxGeometry relative="1" as="geometry">
            <Array as="points">
              <mxPoint x="-120" y="740" />
            </Array>
          </mxGeometry>
        </mxCell>
        <mxCell id="BncVeIozbWB8Ubywenjy-169" style="edgeStyle=orthogonalEdgeStyle;rounded=0;orthogonalLoop=1;jettySize=auto;html=1;startArrow=block;startFill=1;endArrow=none;endFill=0;" parent="1" source="BncVeIozbWB8Ubywenjy-159" target="BncVeIozbWB8Ubywenjy-167" edge="1">
          <mxGeometry relative="1" as="geometry">
            <Array as="points">
              <mxPoint x="290" y="270" />
              <mxPoint x="290" y="160" />
            </Array>
          </mxGeometry>
        </mxCell>
        <mxCell id="BncVeIozbWB8Ubywenjy-191" value="Auto Scaling &#xa;Group" style="rounded=1;arcSize=10;dashed=1;fillColor=#FFD3A1;dashPattern=8 3 1 3;strokeWidth=2;strokeColor=#30f33d;fontColor=#805e3c;verticalAlign=top;fontSize=8;fillStyle=auto;gradientColor=none;fillOpacity=20;strokeOpacity=100;" parent="1" vertex="1">
          <mxGeometry x="420" y="170" width="69.5" height="219.5" as="geometry" />
        </mxCell>
        <mxCell id="85sZW6mU-xxooky95qAK-18" style="edgeStyle=orthogonalEdgeStyle;rounded=0;orthogonalLoop=1;jettySize=auto;html=1;exitX=0.25;exitY=0;exitDx=0;exitDy=0;fillColor=#fff2cc;strokeColor=#d6b656;dashed=1;endArrow=circlePlus;endFill=0;startArrow=circle;startFill=1;" edge="1" parent="1" source="85sZW6mU-xxooky95qAK-17">
          <mxGeometry relative="1" as="geometry">
            <mxPoint x="220" y="360" as="targetPoint" />
            <Array as="points">
              <mxPoint x="642" y="550" />
              <mxPoint x="220" y="550" />
              <mxPoint x="220" y="370" />
            </Array>
          </mxGeometry>
        </mxCell>
        <mxCell id="85sZW6mU-xxooky95qAK-17" value="" style="shape=image;verticalLabelPosition=bottom;labelBackgroundColor=default;verticalAlign=top;aspect=fixed;imageAspect=0;image=data:image/png,iVBORw0KGgoAAAANSUhEUgAAAwEAAAFBCAYAAAAv2KNQAAAAAXNSR0IArs4c6QAAAARnQU1BAACxjwv8YQUAAAAJcEhZcwAADsMAAA7DAcdvqGQAAP+lSURBVHhe7J0HYB3FtYZ/9d6L1SzLttzl3js2BtN77zUJCQmQQhIISQjpeQQIBELvvRdTDBiDe69yl2Sr997rO//Zu9KVrOuGjSUzn7R3d2dnZmdnZ2fOmepWU1PT1tTUhMbGRt3i4+NhMBgMBoPBYDAYTlzcHXuDwWAwGAwGg8HwPcEoAQaDwWAwGAwGw/cMowQYDAaDwWAwGAzfM4wSYDAYDAaDwWAwfM8wSoDBYDAYDAaDwfA944CzA9U0tDiOAB9PN7S0Ac38ETxEffCSn/qmVj13cwN8PeW8uRVtYoXnnu7yIzS1u3ETN27tbnjZU85bWttk694Nz93lXjynvzymGe3THd3QT15rdyPn9KVZrqubLvch3vI8rXJMO6SrG/rrI8/TKM/jsKLn9KPdjXjMeGhsFjdqAvh7u6NOno9+EN7HOWwMi4+X2Gl0BETwk/MGp/vweRiWRmc3cm/6S+xndo4Dxi3tMSyE4fKUyGoUS85x4PzMep9Obqzn4TumFVduSNf3Y7uhf97iSbM4suNa34/sGVaGxb6P/U6Jr8QBw8p7Efs+9JdWGBbnOCCMN7qx78OwekgAGJeEYaGdWkdc00cvvnfxsCMdu+kzOLvxdrx3ho3nvE7bthvrvXe4sdMk44jh786NHdf2M/P56YfthmialGvObgjt6Du07yPXaY8wLfGccUsYB2Kl/T68J+ONYbXjuvt03PE85KDpWMLiIw/hnCbpr/292HFAbDe8B5/JOc/gOd+fczqmK2c3zmmFXtJfXraf2Vv84JHthtfpF6/TirrR+3T5/uWa8zvtmo71eZzSpO2G/jAsDBvdaVqxrGh6s/NAwvTGi+3xJqdM63aaJDxv6pKOac/+LhkW2rHzDDveuobf+R3yWbzkh/7az0M7tN3upst9uqbJ7u7TNU3a78eON8KygsGw309XN1bY3DRObDdWHHSkY7rh/ZsceWvXOCD7pX3xk8/Unr5k83NKxzzn++Cx/T4Yft7LOU3y+286SDrmfRocbnjZSl8d6birG57zuXluxwHNbDek6zdGP+lLe7zJCcPaJOed0qQct3/Lcp327PswLM7fJdm/LO8cB+RwyzE73pod6Zjn9Jf2nNMXZQbGG01oh/d1jgM7/Acqk2jGsNjPTD+IHTZ1I0a8Tiv2fZzjyc4z7Ljteh/S9bu072O70XQsjuyygnTnhvd3/padyyTSXTpmWBqc3NBfvh/ep/155Nj5HXZKkwybmDFOaI9u6C9t22663ofH9IfhYPj1PnJOH2033cUB/XGONy1f5KJLNxr+jryJuCzHJGw0oQ++kibtOCBd78Ow817O6Zjfv7Ob7tIx063ths/sLL/Y8ca9c5qkmZ3v0w+Gl/bt8NvP3ClNSlzx3I6Drm5cff+8Titdw0b0+5drznHgfB/SVb7sep8DKgFPLs0Rh5bF0QmBKKtpQmZZgwYmIsAL/SN9sTK9UhKCmwgEbpjUPxjrM6s0gTOwSXKdL35PYZ0GLCrQW92syqjUQIT4eyAx3Be55Y0or21CiJ8Xhvbx1/ul5tbqffqF+yAqyBtbcmo00iMDvRAf6oOi6iZx16CRPSw2QAvr7Xm16u/gPn760ewtqUd1fQvC/CWsUb7IKm1AYVWjRuzEfkHqB5+nRSJ1YJQ/An08kCZhrWlsQYCPO8b3C8bWnGqU1DRrPEwfGIq8igbkyH0Z6Qx7bIi3PjMFdr73c8dE4bPUEtRKomqVZ58gfjA+duTX6HOFB3hiyoAQfLipWF8YE8Mpw8OxWuKkrLZZnyc52l/3G7OqNG5DfOkmGAu3leqL9JdnS4kPkHA0WnEgL7VvmA/C5TlX762UeHNDTLC3PJOf+sH7h/p7angr6po1XpiIB0tcMzPclF2tHzrjNUrid59cp71gP0/0j/BFuRxniBnjbZSkAz777sJaRxz4aPxmStyWyTvkhzkhKQjpRXXIrWiU99GmaYcFCu3wHTJsieIv47ZGwiZJA/OGh0lYa1Bc3ahxPTIuUFP9zvxaSaytCJY4mJ4cgoUSt0y7/PjPSInQuC+qamLUSrz5afiXpVVIvLppGjhd7DCumQ4Zp2P6BqFE3nt6saRJOY8L8dF4+WZ3mboJkjQwNjFI461K0o6/twcGSNphJsFnpp2+Yb7oK26W7ynXeIuWeybIeXZZvYbFX/xgvDFN7syv03TMdM2Mboc8D+MgWtI00w7fX6GEh2Fj3FZKXPN74XseGuOv72lfab0q5BFyn4GRftgjcVsi3yLfx6zBoUiT8zyJa6bjQZJ2GOZdBbUaZj8vD0xLDsZyiRMW2Iy3WYNC9VtgOmYGw3eRIO9+ZXqF3pfhvXh8NN7bWKQZH9/hhKRg/ZZ2ir+8zu9/vHxDn2wt0fTG9z5D3s/GzGqUMh3Isw6Qb52K6KbsKk3rfeSZh8cFYPHOcg0H43qwPGO+fFPMA5gZ83un283ZNXofhite0vYWSSsMf7jcN0HO7byI8TNC/ORzpObW6PfP9xUgfjO9MT6ZdgZK2siT582rbNS0Mj4xUN5vq6YDuu0nccBvJEPOK+ta9HmmDgzRNFos74dpkvlbmeQFmfI+mIHGBPuIv7767fL75/tgelsq6aJK3leb+Dta0hvjb5vkZ/rMvh6YOzQc724o1LTEZ5wzJEzuU6N5E7/3gRJv/PbWyLdMO8yXZg8O03yF6ZgFG/M8xkFGsXzLknYYTzGSnvie+T6igyStSJ6Wmlut6Zh+9Je0Uy3h4rfJ+/D9hMh9NmTJ9y9hi5Xvkn5kS7zymRmHzEPohmmSz5cicS1RrGmQ6VjzDHmvmaVMk1b+xXSR7Uhf9JfvhzCsTJPMw/mtbsurkXyGFU1tEidhmn8XyvfDfHNYTIAWVtvFDuOWzzxvWLimN+Y7jMs5Q5j265Ej4SX8jpPkPX61s0zTG8Ny5sgIcVOqhSDPU+ID9Vvi98G4jQnx0m+GbhhvjKdx8v3zvTM/puCRFOGneTvTIOONcc24ZFzzfURKmmR+UFAp6Uu+Q6YdPh/zqW2SJhlxzA8Y18xDmI4ZB3HiT5G8c+aTTMdj+gZqXDNsLOQHiR/Mw5iOq+qbpbz01HyE3zvLLqaryf1D9L4sC5iOWb6yHGV5w7jmNzVb8gimUebpjLepUv4USzxnSn7FuGQ4eK9vdpfr98P3ccG4aI1rS8hv03yTdrc6nidE0vEMyUc+kryViZiKxRT5PnZI2Asrmxzfsi8Cfd2xbp+UY440OULif+nuCs3TGdeD5HmY1rLkm+L74TsMk+dcvbdKv404SY/83plvMh3zG2VZVynHeyU98X0wTTJMqfINMQ6YX/CdZEm6YJnEdDyE95HvhWUbn5FxTWWdfjAd8x5REj6mUbscninPRz/5XTIdM39mfsjy05ZFhkn+tUq+UwrSfB/zR0Ro2cFn4n1GyHfKdKxlrJwzPZ05MhJvrytkRGt4T5LvP13umyPvwypffBAb6q3lGCu1mJ/PlrT+1Y4yfadMEywbKKfsLqBsJeWY2Gd8L5G8h5HBsPHb3S3vg89DP/pF+Og73CluxImmlT7yza+RuGY67iPPHyvlYb7kkQWy8T6UEerkPrvEDZPGsFiWSZA8pF7LdMYZ8wDGNZ+Z4Z0o5T/TJ/NSPt9Q+ZYZn4w3fntMx3xnzK8ZNsbbSZK/pYn9fC3H2jRvChW5gt8c81oqDfNHhKkMxHfA9zFN8ucCSccZ8j0QlqcsXxamlmqcMJynSX68aEe5yEAtGrYRIjcxDlLz5FuWc8ouYyUtfClxy+cLkPfDtM5vjHHAsojxSkF6A+UxcUOZgWXMqgzKfa1SFjJN+mqZzLyTz8r8gbIV5dY2iWvKSZR/+T74jYeJm0SHG5bFfB+8b12TFdf8Tvl+WEby++e3y3TMNJgmeQifW8tlkS8rJW9gumY8MRxRwV7Yxe9F7kMl7uRhYVqWlEpcM29l/lzTYJV9jAvKX93CSLt30Xb87gtrO+/5Nbj+zY16fPfn2/Hj9zbjjGdW4w+LduAeMfv1Z9sw74mV+MXHqWrn1wtTcdkr63DVa+vx+y8tNz98dzNOe3q1Xr9HzG77cCsufHEtbn1/M+5floa1OSKIaVHDrfMv4Utyxjrvaos4ztSC47oc65FtJi9T4Tnfko0e8sfSwhwGekYnHWbWuYVelZ3DgHv1U00dWOdqpoYd54oadpzbv270xzrhmXXAffvNacpj28w273zU4VawIk5N7LBo/NhxZF1pt2dft464WSftl4ltwYlOfrXjOBfrbXa8t4ebfvCabHrJ9lPu7zCyRC3ZxI5asc9l63puY/lim8mZXpIf23v11bbvvHccMzy0q/eUYzvuuVc/Ot9bf+Wnw0/B6ZDYXtjmHXa5t45tEwvLhh1lvK/eWn467PHIcX89l70c6Kuxw+nwwL5uH1mPwmO6t69a5+1mamybWaZ2nFgmgt6M5tapdYE/sjksOXbtcdD+Tttpv9CBhrsbO469dbXDzPm4E85xIZecbVmuHCZO1yyczyzbdgA73Fl29HmcwqvX9NA+t39tdzZyTC8lYGru7EfHoQoXHdgXnDb7+bhzNm//7dh3wmFouXRhv+OSYB9ooB1njn37T3cboT3HsSMN6TXxygq+/PJUrVjmeqhYF6x04ziXTc/af+zNxjpWUz20z2079t5x5Ihwfi/OV/Svw8BCzhka53TccSR7fSDHefs7ta5S8dgfx7X2I+IIh22g8dHVnuNIbmidd1yz7iMuHM+jp+1hYQBpbp3bru3fDt8cNulHe7g73NHT9mP+6s4+l63djSNCFPvYtsdfhz29ZJk7+9u+t0+dETM1br/WYUmPnG7dfh/dy8b4kOuWqeOOeqJHer39EeScXrWpQdfwCRq3ghrLj8Oee/v9rXNrE/SjdhzbO6f3Y6chRa/b93Rg27Xv247DXOk43i+8iphKOPe/ZrtRG+1H7SbqxoHD2Dq3/XJGTDSOHRaV/e1YccZ/XrOOrSvWuSU7WH5ZFx3nPHU6VzM1FDfWRQdO1+SnI3qdLXVyIFhurJ3l1rLBY8e19o072fOfzys3d5gKlh3rnrapY9/hqewsexb2nshx+3PbOOxa/+37jnvIZqeR9ntY5y5bAj7cVIQb39kEq8Hj2JMY6ovbZiThmol99VzDeITYIf42fnTH0fKX/th+HE0/SU985mMZtu9bvB0rf78tR8vPYxE2cqzi7dv625Ofl/Tk8NGP3hJvx8rfo8W39benhsumJ4ePfji7P1p+kp74vORYhu9ox9vRCOuxfF7ybfx12RJQ32R73w3UWp23owgf5ttG1NHwozuOlr/OfhxNP4+GP105Gv4ey7B9W45l2L6tv935caz8/bYcLT+PRdjI0fC3Oz++rb/f1r0rjpa/PTl8PTVcpKs/x8rfo8W39benhsumJ4evq/uj5ee39aM7jpa/xzJ834buwnU0wno0/OiOo+GvSyWAfaC6g/2QeFdeTwz10/7qamYwGAwGg8FgMBh6BS6VgCEx/uBgXleMSwjF3fMG4twRMTqQw2AwGAwGg8FgMPQOXIr5HMHsqoKfAxb6h/npFHSDIv11FgSO1j6Uja0GpuXAYDAYDAaDwWA4frhUAjhFkmMq0i5Y85J+urNIp5BatLsYsUHeiPT3RpRj47G9OZ9H+Htp9yFO1dQ+osFgMBgMBoPBYDB8p7icHejdDUX44fubtPa+K6zJ9/N0x/8uGomM0lqdw5TjBNoHKNhOHAa0z3mDg308kVZSizc352tLQ4eDjtmBrnXMDmQwGAwGg8FgMBiODS5bArhIxwGGBKicX9/UgtVZFVi2txTLMkqx1N7kXDc5XiLbysxyFFQ1IjrIB0U1Tahu7KwAGAwGg8FgMBgMhu8Ol3I+V0DV9Q8OAFfJ25xTidWZFS63taIk5FY0IMDbQ5SCMny83Vop79vCBgp7fEG3m8PekeLsl8FgMBgMBoPBcCLhUglYtqcCXLrcFaofyI8uPubu1u3G6xw3MLVfKOKCffDmpjwdRHw04LLdXKJ5e34tdhZYG5cW55LrXPaa178NXM49s7Rel5s3GAwGg8FgMBhOJFwqASrkHwU4CNjbwx1ldU2yp69HRwsoqWnScQtPLcnFexuK8cHGErwv+1dXF8hxMfYV1x/x1KWs/N+SU4MluytQXttixjAbDAaDwWAwGE4oXCoBkYFeB1QEKBircCxCPu11t7nLtbqmVixOL0FjSxvOGdFHuwUdrS42XqJcTEoKxg9nxeGnc+Pxs5MTcNaoSBSLgrAlpxq1jS1oamlFfkUjduTXYHteDXLLG9AgYWIYmkVJKKhsxE65xm1fST0yiuvU3eA+/piYFIQgPw+0ir3CKsteam5Nux36QXOeZ5fWY4f4z61U7m9Ph2owGAwGg8FgMPQ0PO6+++4/tra2oqWlRbfg4GC9QAH+mTWZLrvveLq74exhfVDZ0IRQPy/EB/t23kI69sG+XvD38sDc5AgdFJxRWqe17aopOODUoVMSQzEmPsRhcmCq6ltEKK/VlYuTo/3g5emuU5dWinmmCPNhAZ7oH+mHnLIG7dpE4T2dwrqc002Iv5deW7KrHFtza7FX3NC/rTk1iA/z1f1m2fqF+6CqoRWLdpQhVQT8jOJ67C6s0zD0CfbBirQKLNpeJspAk06rSuWjtKYZSRG+OiOSG/tLGQwGg8FgMBgMPQiXLQHsW3+w/vsUpqf2C8PsAeE4aWCXzclsdv8w9A31RW5lPfqG+Gn3oKMBa/JzyhuwPrNKhfGvd5ZjdUYl/L3dMSDKD83yACvSK0Qob8T05BDMGRKGmoYWrN5bqTX3S3aXo0QE9qkDgjFrUKh2HyqpblJ/WdNPhaJJ/KA9Kg9T+ofgrFER2kry+bYysduIOrG3T/wK8HHHKcPDMCIuAF/tLENZbbPpRmQwGAwGg8Fg6JG4lMYr6g7cF54OK+ub8ezqLPx32T484mJ7eKlssn9oyV789cs0vLQ+RwVr51aAI4XdbTg2gDXzG7OqsUiEb55PEaF+aIy/dtVhVyAfTw80Nrdp16QAHw9RHBqxQ5ScXNkPi/XHcBHcU+IDMb6f1f3HGbrZU1irXYNGxAdo68L84eE68DhLFAOOGw4SP2ckh+o1KgG89m0HJhsMBoPBYDAYDMcKl0oAa9MPBsXcOhF2aw9jo/2Wo9RXnmMCxvYNwjVTY3DzzFjMHhyqffFrGlpVgWGNPmv3c8rqsWZvJValV6JSlJs+wV7anYnBoB/s+kSC/Dz3a6XgomZUBCIDvODlbl3zF6Hfx9Nda/t5P3b74SxI7PpjjZA4WsOfDQaDwWAwGAyGo49LSb9fhA8614l3xhZye0qP90BfT63JDxQBfe0+dvdpEKHdTWv+J/YPxnXTY3HzrDhcND4Kc4eGyfP5gvI+u/3YykJFbdN+Nfh07+/tgfwq6xpbH8pF+OdxmL9nuwJhMBgMBoPBYDD0FlwqAVwI7EAdWo53TTfvT4HceQae2BBvTOgXrF2ZOE6ANfQRgV46e89GOd+SXY3Pt5diVUalTleaFOGnA33X7qvC2r1V2JBZrTX/9Nz2ny0iKfEB2CxuOZaA3Y4+31aKED9PHXfg4WhRsEPBPWcT0nPb0GAwGAwGg8Fg6EG4VAL2FDpm8OmhUIiPEaE/Msi7vTae3XE4FmBUfKCOO+B6ZZP7ByMy0FunB6ViwClDh4md2BAfTOofhFB/T+zKr9FZfeiGigPdRYnykBDmA18vD0wdEIL4UB8dLM1WBioKc4eFqSLAQcJsVfCU8DC6fDzdMKiPvw6a7jHNJAaDwWAwGAwGgxNuNTU1bU1NTWhsbNQtPj5eL7y1rgg//mATrN71nWENuZ8Iy/84axj++VUaciobHFeOnMRQX9w2IwnXTuzrMDkw7I7DPvkUvkNFGGeNPGHYaF5d34zQAC8dtMvpRMtqm3QF5GA/DxXeW+WxOG0ouwEF+3qo+42Z1SioasTZoyN1PQOuFsyWBPb/r6prVn+pRAT5eiJc/Oa9y2qadNrTmGAfPW9satUZi+JCvdWdmSLUYDAYDAaDwdDTcNkSkBThozXiXXHufmMfO5t9V7DGvk+wNyJEGLcVAEKhmwJ6YoSfCPeeeh4sQn8/OWf3HbYKcDAwu+xwXYD1+6p0kbC9xfXIrWjAgEg/VSoo/MeF+qggTzhoODHCFwOj/REt96XAT8LkXn3DfMVPa0iwj5c1PSlbEIwCYDAYDAaDwWDoibhUAijodhVhKexTsI0N9kFimB8CfTyRwEXBZFM5/LvXBY4YP28PTBsYoopEVmmDjhtIivRtH1xsMBgMBoPBYDCcqLhUAjhQltP5d4UOpvcLw2lDovR4Vn9rYTDWmPciHUBJDPfBWaMicdXUGFw7LRZnjoxEVJAX3LtrAjEYDAaDwWAwGE4QXCoB7CvfHTTNrqjH7qIavL4xD5vzqpBZVo+W7jSGHg5bNdithwoMuxexW5HpwmMwGAwGg8FgONE5rO5AFJC5ONbyvWX4aHshPt5RiAWyfZ1egsaWVrnusGgwGAwGg8FgMBh6LC6VAM6579bNVSoCHh7u7ZunY280AIPBYDAYDAaDoXfgcorQr3eW4baPtiLM3wuOpa+OKbFBPrhiTBzOTolxmBgMBoPBYDAYDIZjwQHWCSjEmuxynDo8XM+PNb6e7ugX5oeEUD+HicFgMBgMBoPBYDgWuFQCPtpcrCvjXjaxj54bDAaDwWAwGAyGEwOXYwKSo/0xPDag1037aTAYDAaDwWAwGA6MSyWgtrFFWwIMBoPBYDAYDAbDiYVLJWBPYS1Sc2v2mybUYDAYDAaDwWAw9G5cKgHaD8j0BTIYDAaDwWAwGE44XCoBw2IDMDYx0OgBBoPBYDAYDAbDCYZLJcDdzVoYzGAwGAwGg8FgMJxYuFQC0ovrsCO/1owJMBgMBoPBYDAYTjBcKgENzW2ob2p1nBkMBoPBYDAYDIYTBZdKQFSQF2JDvB1nBoPBYDAYDAaD4UTB5YrBuwpq0NjchpT4QD3vKVQ2VCCnYq/uv0tMtyiDoefg7eGD2OC+iA6MlW/TfJ2GnkNjSyNyKvehoDr3O02b5iswGHoPPp5+iA9ORERA9HEtw1wqAV/uKEVNQyvOGR2p5z2F1IJNeG3Ts0jN3+wwOfYEeAchLCAKHu6eDhODwXC8aGyph6e7B04ddDbOGHLucc1ADYaulNWV4PVNL+Djne/D081lY/tRxUO+h+jgeFGOfR0mBoOhp9LQXAdfTx+cM+xizB4wr2cqAW+uLURFXTNumhmn5z2FlVlL8OCSv2L1vhVy9t1E3KTE6bhk9NUI8Qt3mBgMhuNFdkUG1mQvx/j4abh+/A8cpgZDz6CwOg8PLf0Hnl/3NLy/o4qjYN9Q3Dr9V+gfMchhYjAYeioZpTuxPncN5g48HRelXOYwPT64VALeXS9KQH0LrpsWq+c9hVVUApb+DWsyVztMjj1nDj0Pd829D32CelZcGAzfR3YUbcEbm19C39CBRgkw9DiKqvPx4LJ/4MV1z8Dbw8themyJ8o/GYxe8gDHxExwmBoOhp7Ipbw3e3voaRsdOxIXHWQlw2VY5rl8wZiSHOs6+37S1mSXTDIaeg/keDYbOmG/CYOhdsCfL8e/K6lIJyCmvx76SOseZwWAwGAwGg8FgOFFwqQTkljdib0mD48xgMBgMBoPBYDCcKLhUAlpa23TrrbALT2trK5pbmtHU0oTm1ma0trXygsOGwWAwGAzHD5ZJLVJGNbOMkq1FyizT/dRgMHxXuFQChsUGYEzfAMdZ74KZqLe7N5LCBuDUwWfi0lFXY+6AUxEf3Fen+TSZrMFgMBiOFyyDOC1gpH8UZvSfg4tGXoGzhl2A4dEj4Oflr9dNOWUwGI41LpUAdzdux3/QwuHSKhlnVEAfnJ9yCS4ceTn6iSLg6+WH5MghuHLsDTrTT7h/pMlgDQaDwfCdw7LH19MXM5JOwjXjbsbo2HHw9w5AZEA0zpDy6cox12sFlvt3tMaAwWD4/uIyl9lbUo9dBb1rYDAz15igWJw97AIE+gTh890fY8H2d/Hpzg9k/57sP0R8SCLmJZ8uikJ0e22LUQgMBoPBcKxhWePt4Y05A0/FuPhJWJezGh9se0vLJpZT76e+iYr6Mpw+5BwMjBis9lmxZcoog8FwLHCpBNQ3taJOtt6Eh5sHpiXOhLu7O75K+wKpBVtQUJ2Hktpi5FfnyvlmzWhjg+IwLWk2Zg04WRUCdhNylz+T0RoMBoPhWDI8eiT6hvbD+pw1WJW1DDmV2VpGFdUUIq10N77Y8wlqmmowOXE6Zvefh/mDzkRKn9HaxdWUUQaD4WjiUgkI8/dEVOB3s9rh0YCZY3RgDCID+iCtZDf2laWjta0Fbm7WgsytrS1oam5ARmkaNudvwISEKRgVMxb9wvrjirHXY1ifkbr0+tGEg5K3FW7GjsItXTLvNgnHbqzJXtq+rZVte+Em1DZWy9U2NLU0qp20kp163h0cVFbdUIldxanifhk25q5CbkWmDoQ+FDhYukrc1zbWOEy+e/gM+8r3yPvag8aWQ5uNqqA6B1vz12scdYVL9nMhjuqGKmzJX9cpjtfnrNA4bWzucMf30qjpYhfW5SzH+twVUijvQ4ukF4PBYDhaMK9hK8CgqGGS59ZiQ+4aNDTXW2WUbMwLWWaU1JRgWcZiJIYmYfbAeYgJiscZw87D9KST4O8VcFQVAZYBe8vSpPxYrmXQPjn+tnmflkuNVaioL3eYfPcwjjLL0+TZ9kgcH1q5kleZhZ1FW7VMdIblb1FNgZbl1VI+by1Y36lcYdnL8qNRyiPnd8Ny2Ipb2lku4Uk/qu/OYDgaeNx9991/5Cw6LS0tugUHB+sFb083RAZ5I9TfqwcsZ9BBTmUmVmYuFWE3x2FiwY9rYMQghPqFizC9BcW1RVafSjH39w7E5MQZGBU3DnVNtcgq24scEZa35G8UYXIjIgKiEOobhvyqPL3ODNmZQZFDMWvAXO1idDgU1eThroU/xaK0BTh72CXwclo98sk1/8XTax/GloJUrM5aiZVZK7A44xPsKdmBMbET0dTahBc2PIoNeaswu/+pOojMGQrAm/PW4n+r/w9fpn2IVMmg1ueuxDd7P0dpXTEGhg+Gj6evw/b+MKOmsPxNxkL4efsjOiDGceW7pUUKoVc3PysZ6xYMiRqBAO+DD0ZPLdiA+776DWb2Pxkh8t6ceW3z0/hw+zuYKErevYvuxOd7PpXn3IRVEsfLM5fg64yPUdVYiZEx4zTN5FTtk3j+L95NfUnicJMoAiuxdN8XqG+uwwCJQ0/372bFT8OhU1xboK18Ib7hGBs33mFqMPQMWJGzMmuZ5M8b9qtYCvQOknxuGMrqSrVlmmUN8yEPN08M75Oigr6vpx+yKvZJeZSv5dPmvPVaqTEiZiTyqnIlfy/R8sC5nAoQ5YADi2OC4xwmB6dc/Hl+/f/w5tZnsa1oC9bnrMbnaR9oRUpKn7FHVCnGZ6moK8ML6x+TvNMTfUP7O658t1Bwf2njs5qnJ0cMlrLbkmsOBCuJXt70DEJ8QhEfnNjx/CK3v7zxSSzf95W8uxT8bfE9+HT3x6LEbcDq7FVarixK/wiNUmYMDB8i5bw3SkT++N+q+/HhjlekbNskZfMqKYveR31LLYZGjtLeCobvLwXVuSKnpqqCPzw6xWF6fHCZErfl1mB9ZrXjrGfDjCfULwyjYsfC38tfM0w7e2yVL3hq4kyJ6FGSISXpTAz+PgEifG/GvrIMFEhGu14+5KHRI3DG0HMQKQoBoZ/fliV7v5AMsRjFNflYJoJlB24orM6Dl7sb7pj+G/x8xl26v2D45ZLRfImFu9/X2phCUSIKqnI0w3eGLRysVXh63X+0tuHKMT/CDyf9AjdOuA3j4qdgqdx34e4P1A8+B2u62c+UmTtbDlj7Q+E7qyJDMsmNKKkpUDu0y5op2q2oL1VBuE2UBZrVSMFGd4TmVQ0Vjpp4y4113ZqKlffgvegP/aXCUdNYpS0ObJEhvBffE2tP+klB0YYmfS66r6wvF/fFep1uuzIwfJiGb1Haxw4TC/r15pYXMViUNsZxbuU+pMh7Zfz+fMZv8dOpv8SomPF4ddNT2CGFXmldkRZWm6SQvTDlWonDX2ocDosaLUrBqxqPBoPB8G1hfufj4YOUmNGIC0nQ/NBu4WUemxw5GFOknIoOjMXUfrPQP2wgdhWlYlfxdhSK0ss8iq0AZw07X8qqFBU0v00Zxbz7mbX/wcrMxTh/+JW4eeLtuGXKLzE/+Vy8sulJyfu+1Ly3QpSVRsnfCe/HPJx5P8PO8xrJo5lXV4oZ826al0vevD53mZZx9U21ao/lDfN1Kh7a2i1+05zhoH8sQ8rlXlX14o+UaVoOiTJhl1c2LO94L8ufGrRImUHqm6wyqLqxUssd+hvmGyJKl1WpxPuzPKHyxVYKZz9tEkL6a7m1tXA9apo6ZB+Ww6uzlyDCP0or1thyParPSNwy+TarbJn+W4wUpemFDU/ItXTUNtXgP8v/KjLGWlw44hr8YNLPxe6vMHvAfFEMHsCanKUOnw2G44/LloD1mVUor23G+H6HV/t9rOnaEsCMJD6kLy5IuUxr9L9O/wLZFVmaObCmhALheSmXaA0zM4aRMWMlQ2jSmpaGlga1w+Y/9sdk1yD2wcyvzJGMrEz95vUjaQmolczv/5beh8l9pyFRhNzFGV/gtEHnwdPRGvDFno9FmK7GDyf/QjKfvjpOISogBovSaV6PKX1nY3nmVxLWRpwx5CJ1Y8Mmyc/3fIQNeWtw56w/ifIzXjVKFiAJIUnqT6R/tPiZgIyy3XhqzYOiMDyEd7e9rq0SzICpV7y59QUsEaWjsLpAMrg+kuk348k1D8j2ID7c8YYIypsRLhnfjqJt+GD76wj2Cdb7vLH5BTy26v8Qpffrh/e3vYKvMj6VOA7UloX/rvw73tr6kgjSLyNb3hftvLvtDSxOX4CksEFae8/Wij999St4untoi8mQyBE6aPvt1Jfw0PL7xO1r+Gz3u9qyw1oZ1irZcAq9wuocfJn+Oc4edpEWiGRV9jd4R+7569l/0sz6fQnzBFGKzh1+qcZvjGwM4/vbX8XAsMFSKFXI/V7G9eNvxdwBpyM2OAF9xE5CcD8JY6gcxyJO7m3oWZiWAENPpmtLAMsRVk6dOfR8jO87BRty1mBT7jqtTCHsxnrO8IuknBmi5Q5bCoJFgM0sz1DBlWUQBePcymz1Z/6Qs9TPfBGyKRTz+uG2BLDr6f3L/oQfSfkzd8AZWlb0kfw8KXyQ5q/xkmfTz5vfuQqRAWEYGDFUu2s+vfZBvJf6Pk5Ono81Ihj/4cvb8b6UFZ/sfFPy8SJ1//rm5/Cp5N1ZFXslH/ZRf1mT/sDye/HRjre1XGPNPMuFtTkr8bvPb8eukq1STj0gef4HIkiniZ3FeHz1/fjSUdHDVtkSKaPfljLrkZV/03x+ZdZiyft9tHLv453viID9L3yy6118Ln6wZb9Jyk7OFNhPFKpPd7+v7t7Y8qyUvQvg4eaOuKDETq3lwT4hSCvbgT0l2zE6ZoLOIkhW7FuEdbmrcfbQi6UsH4DXtzyDiVKuzBt0piprsVImUr54bfOzGBc3CaW1xXhi9UO4ffrvMLP/KVbcSlnCVgKOW+wnfrAcNXx/6RUtAZzFuDf0XmMfy8l9p2utxRubXsROEVj58VPK9XTzxNTEWbpo2N7SNMlEirT2f2hUigrmhBkou96wxuWdLa+JArEPU/rNUOHTrqk5EnYUsqVhD+b0Px3nDLscq7O+0f6JzrB+3x6QTAVlT8k2lNQWiuIy7IBNsazt2Jy/FsmS4Tp3WWH3Jwr/0/vNxejYiVrbtFwysMyKdNwx/Y+466S/id8p+CrtM7m3GyYlzJDMbJoIyZdIpp+ABTvf1pqQWyb9Er+Y8UeJtzZ8uP0NNDTXaosEx1nwOjPszQVrkFG6U2tk2GXJXfxjzdVKec7TBl+Ae09+ABeMuEr75bMvZV/xf032Cu2GxRYKjmPILN8rBWAczhh8kbzDWcgU/z/b9QEuG3UD7p33b32Gt7Y+r/0xGUc2fGfzks/W+GWGbfORCP3j4qZIJpvsMLHsEio+1Q0VGh4qgXHBfbWQ8nT3QUqfMfCWwoowDvlhnjroHIyIHqtmBoPBcKSwbGLtPQXBz3ctwNK9i1XYZwnAMmZk7BiE+UVo2cTa8m0ioLNCapCUA/Y0obSXLXknBw0v2P4OxsVPVAH0SNlSsE4UCj/J40arIGznkwFegTh32GUimIzRijS2OFdJOUKYB7ObS05llrYQPLX2P9p19Q9z78elo27Ewj3vI1fy1FOSz9Qy7Lzhl2Fi3xnaYstKq59M+Q1+M/svGCJl0PPrH8XWgg2oa6pGWuk2hPiE4Vcz78PImPFi90Otdb9jxu9F+RiiLbLZ4u+XaQuwOnuplit3zfmnxM8IbTXfVrAJlQ1lyKrci1EivN82/R4tO+YOPBPT+s3Bbinbl4kf4+Om4k8n/0euTZBy6mvsLd+tz2XDCrppiSehor5Syur09lbsxelfiAA/SN7JABXiCePLbqFna8XGvDXi3kMr4bYVbkSAT5CWRWz9seM20DsYl4y8VuSPkXpuMPQEXCoBJw0JxZkjIxxnPRMK99GBfRDiF6ofLYVKdgkh/O748bEmgjUy72x9He9vewsLdrwrGXC5mjvD5kFmzIv2fKY1xlGSCX2beZoX7HxD+yIOihyuH/1wyWxf3/KcZio2G/PW4byXTsY5L87B+S/Pw18X36mC5/xB57VnHN3R1NIsgnGp1j5w8TN2w9mQuxrXvXmh+DcPl716Bv75zR/U7skDz8Lt0/+AQRFDJaMNkef2Q4kI7mxSDfWN0Fr5PiKIsyl2uwjrbHJm3FBoZlMqmz7rRAnw8/ZDblUm0kXwb5PCgcoG3bDAYs0Xa3VmJM3TjP6k/vOlUAvX2vSaRjYBF2GECNohfiGqQFCJWZH5DUb2GYW4oAQdzO0vhQ8z4RKxS0WiuKYQpw06X/y7SwqEaH0WZ+hfcsQgfCqKC2Hh+dnujzSTtVsGqFi9sOEpnP3CHJz94lxc8frZ2jpx/vCrpCAaqTVxPh5+2jrgDBWwAO8grREzGAyGbwP7+LO1l91kOA6A484o1NtZPGv3WXZ9vON9fLjtbbytlVGZVuunwxLLg1b5q2mswabc9dr1hS0I9Nu5guRQYX7Jmm9vj87jxngf1tL7iYIgZ3reXhZx5zhnn3a2WK/NXoEsURQGhg/FvSc/iAHhQ7RLLZUJlite7t6Sny9BiuT10xOtyqmZUk54ivsVmV+pt8z/pyXO0XEIyeGDdfrusXGTpXwYj9igfqhoqEZmRZqOBeOThvtFSt7eoOFnl86dxVvFtA0xgbHi/3gMk/I2TOyE+oar4O3p4YmyujKtAMqtytJW3+vG3YqksGR9D86wnI6RcO8s3iJlZLmUd7tEuUhXZYflkBUfkHLlSVz+2tlatlz22ul4e+uLoghdry0FlaIUhPgGaTnaHncCj4OlTOS6RT0RVvrVVDZi3+5ybF1TiI3L8rF+ST42rSjAjg3FyM+qRmOD1cXYcOLgUsrdlV+LLTk9fUxAG/w8A1QjZz8/zqfs/NEx1/KQDIAa/PiEyRgfP0nHDYT5dR5MakO37BpDIdJXMmZ3h9Z/uLDmesneryTT2YJbP7gJN71zFfaUZmitRUFVrsMW0DckUfsV/li2W6f8HHfO+it+PuNeyTwP3FTILjQhvgFamBCGs68I4deMuwnXj79JFI9BWkPOPvbl9SXaBPrLT27EP765C4vTP0WDCL9sXnamXgR99rPfmLcWL218Cs9veBzbirZJPARqLVXfkIE6oHaVCOiMG2aW7JaxNmcZArRpN0kLraX7vsTvv/wZfvf5T/DG5qcl081Gs4SDmfKYmIk6+wIz7Z1Fm7VGhhk5450bBzNfN/ZHyKvK16bqe764A99kfNb+nM6w9uqCEZfj090LtDsXa4mipTAZJ4WHnQIozE/tO13j9yey/Wzar/Hbk/6OGybcpoI/C7rGlhrUNXb2n8oD31NeZbYqmgaDwXCkcEIIbw8f7bfOiofOZRRLKTcVYFk2jU+YousHsCKK+XxX6JbdWKsaqlSYdJ5s4nAI8QvXSq9W7D8TEPO+3MpMOXIt7AV6h2hXojD/CDy26kHJ73+Kt7a8qIOWbfiUDZKXssKK3SrZ2so8mZVDQVJm5FdZXXp9RBFhZRTLMT4PB0/z3EMUBda8U+akwsF++pw4g92Nnlv/mJSxi9Ai2bOflFGEcUy/3OUedpnCbVDEMO0S2gYP/HflP/DnRb/WMXOsxOr6iLwv439z/noJd6GOmYiQsoutF+2VQuJmSuJ03DjhR1K2/Ay3TrsT98z9P1w79sdSnoWKkhKB0tpKbfF2FpipcHCcWm5llsPk+NPS3IrC3Bos/ywbT/99E/7+s5W4/+dr8Z+7NuLRP2zC/+7diP/esxEP/mY9/nnHajxw52q88/ROVQqoMBiFoPfjUgkorGpEbvn+UzD2JPiBV4i2ztp1jujvCmvI9xTvkMzSFzP7z9Xp1pjRFlbna03zfkh6DpdMjc2AHNxDIfpIYMbBTOuGCbfgjCFn4LTBp+G2qXfqoKRFGR2DWSlcz+o/D3MGnqbblMTZ4PzRB+oKRJhJjuwzDrtLdmpmzUKEQvb0fnMwK2meNqEyTvIkk2Vffo6juHTkDfjRpF/h9CEXSma8fw03M1vWnJw++DwdZ/DrWffJ/j4dMMbBtGzepfKwLPMrbS2YlDBdMsk8baplJhkb1Ff7c1JJmJwwCzeMvx1Xjb1Fu10xfJ7i/9TEk5BVkY6vRRFhEcGuSWyZsGGYGQf3zPkHfjXzXswdeCpe2fSs1gJ1rbEh0xNP1q4960QRYT//04ech2DJxG3YksPanjkD51txPGC+NtGyFYOKHmttWCjvLEl1uLBg4fT4mv8TZeh/VklmMBgMRwjLAk4J6id5HbeuWRm7qjIfGhM/QceezUiao5VaBVJO6fitLjCvDvIN1tYADqA9EtjthmUcW3+dyzm2iP935d+0fz7DqXd3hJcCX0OTvYBoGxJD+uOXM/6Eu076Ky4YcaV2Mfpw+2uO6xbM9wO8fXSwrg2739aLPxS4FcljWZbbJzx2bz+3YB9+Kj2T+87EL2b+UcunX8++D3fMuAcTE6apHTrp8MdCW1xEzBkfPxV3TL9bypU/STk5W8qpJVifs2q/+GOZwa6p1Y0VonCkalemYWwdCIpnyNQOoyMpNBkzk052lCunif/TtKWAZfeo2AmisJTrpBvOccupqf+y+Hd4ccNjDpPjB4V/1ux//EoaHvrNWjz7z61YsygfTY2t6D8sGLPPisN5NyTjwh8MxhlX9se4WdGIjPFF7r4aLHgpHY/cswFP/GUjVi/KRY3IikYZ6L24VAKoYbf0+BfrhrLaEhRVFyIpfCAGRCSrIGlv7NO4JOMr/HfZ/bL9n+4fWvIPvLbxeeRUZGkG4WyfNRFnDD0XnDGotKb4iBP2+5IRcsDihZIxcmrQc4ZdjItGXi2Zxhy8veVVzXyJm2Q4rNFmky431mQcShck1mKz7yJrsh9Yeq/OW8xChBka5yveVrBRM9E6uQ8HoLC1ZFTsRBH+fbG7OFXsWTXfzC+bJNNnTTubbiMDYkSx2KHhY3eYZfu+1GZOLriWHDFUa8zTS3YhwCsIKaKENEimlib344BaNk0XVBegqblJMs1Rap997gvl3bCFhjdjc2+QKGvs88ll8TktqfPzso/oP775HUrrCjEiegxG9RmvihzfTXfEyH259P6rm5/G5vx1OGvopV3iT5QPd8/2+GVcs8sRCwqaD44cIYXhGDy99iEd5MbnZny9JwrFxrz1GCHhtTN+g8FgOBI4M82+8gytNR8rgj6xyxyyvWgbnlv7OP4jZRPLqEeW/QuPLv+35ONbtDbZtmttbeLHRB20ywGoh7omTFcGhA3WbptPrXkIq7OW6iw/nCjhra3PSf78gZRVp2gZEBMYqWunsIxIL92h8+K7u7Xpvf/y1Z1YnrlI8tHhGBM3SStWbKGXe9bcs6sTu+iw+yfHjBXV5Ov9CmuKVHDunv3zXArY8cFJUqZk6Lg9jtljX//XNj2NPcXbHLa6Z1P+avxv9f3adZVTfA6OGqEtDi1tzfspDYTjxQZHDNfBxkW1Bdqdly0XznZZfrC8tsoWX/XPvs7Z5TjW7oFl92FD7kodM8A1E17b/JTEwyIdp3C8oExTVdGI5QtztJb/vWf3oLmpFXPOTcSP/jAGt/55HK75xUicfc0gnHROImad2RenXJiES344FDffNQY//ct4XHX7cAwaGYpdm8tEediCV/6Tiowd5WgWxcLQ+3A5O1BLaxsiAr0QH9q57/zxxnl2IH50FPRZsx8XHN++1Hrf4ESdaYG11wNEOUgISXRsfXXPQVeckm1I5FC1w9l/RseMwwUjL9WakIW7P5ZMKt+qRZB7HM7sQByk9Oiqf2rfeArDbEJkMygFUGaq7GYzIW4ydhXvkEy3GOePuKrbmn8K9ZxitLmb2YHsmv9hUaN09p/XNz+DFzb+F29ufV5rOAaEJ+OSkderkMtWDc79/E7qiyJkr9N7eUheNUDiKUEy1VVZX2NxBsdBJGBy3xmqULy08XGdO5rNpackn62150G+IVprxObe2f1P036X63JXqZDOMQwcoMzaGma4b219AZ/uegc+Xr4olsyeBQ4H31J5odK2SQT2c3Tw2Wjtr2nDvqhpooQ8v/4RvJX6gs7LfP6IyzArab7GY9cMmwJ/lH8M/rXkXsyUjPWyUTc64rJNxx28l/qqrj3Amp2u0C+uH8GmYhZorJ15eeP/dKYjNmFfNfpmreGxxxcYeg5mdiBDT6a7dQLY9YaC49zk+ZjUdyo4W9mA8EFa/nDsGFuArfLJ2njOsmxIFMsoq5waKnnZaUPPxqjYcfgq7XMRardoecW87HBnB2JYxsRNRFVDuZRJ/9Vpk1/d/ASyKvfhBxN/qYNqWWZF+kfizdTn5fqT2Ji3WsrCESLQ1uCy0dfofV/Y+KiUP0/jy/SPdYa3a8beovk4a8Hf2/6a2PGQ8usC5FezdfV+KYdeQl5VNi4ffYPk66eoQE+l4NRBZ2tXmrTSnSrcT0+co4L3Vk7lXZ4uCss8KS9GgdORvrblacmrn9A1ADi5xZyBp2NH8VaVDcbETtLZ5GxYVrLc4QKQb0uZYj8HW6U5uQTHF3QtV7hmA8uWd7e9ilEiF8wffK6On6M9lnevSFyxXOH4hu7697PM4FTdpSJDPC/lyptbnsHLm55QmeKOafdgZv9Tuy3zu4OyWVl5JbbtzkB0RPi3Wl+ACkDevmq8/9xufPD8Hnke4LRLk3DhzUMxdrooWUlBCAn3gb/IfT5+nvDy9tDN28cDvv6eCAjyQmikLxIGBGPk5CgMGxeB+tomrF6Uj61rSsSdJ6Li/NWN4cD0pNmB3GpqatqamprQ2NioW3y81R99V0GtCJCtSInvPGjyeEMh98Glf8OazNV6zoTND51dVDj/8jCJUPbJ6/JdH5TapjrsKtoOrihc1Vhh9QV3+HHGkHNx98l/1tkdDgb71udX5WrNOmsJnDMYzpmcJ5khBVcOtm0WYVObGTvVXluwBoiDnjhYp7v78rmpAHGOZXuOfsLMnZkeFQ7OGsTabc7gw8KCNRessWCNEgducXo1jgPg1G86YEnCywHDLMRoh+dssuWesEmXNUK2XU7zqfMxS3zznP6wsONzWgVTEOpb6vTdMINnxkplZNm+xdZ8/NEjO9Xc8568f1U9u3i1yDX2Hw3TwV30r2tmTdjEymlIg+SZOcCMdhg3fF6uLMx4YPi6g/Z4TyoMHATGOKd7X09/uW+o9i/t7p6G4wunrn1j88siKA3E9eN/4DA1GHoGRdX5eHDZP/Diumckz+3os8+Z7FijTcGeY7gOVRC0Yf6UUZamK+JzMUzmvTacyOKxC17ULkWHCvM/q5a6TGvFWenFPI8VTFQAmPex2w6Vbqv88NaJFDj5BscssKKKs9nxGvNx5rXsUko4CJpdmoIk72ZeysGyzGPlploOsSafZQbLJ94/MiDaKq+k7GELAsPAsozjvVjmMA/nGAn6yTKCrSu0z27AnImH5SDDw3OOWXOGeby2dMj92RWJk2lwLBq71fK4O+znpl+cbtSegY9yQU5VJgKlbGM56OodarniaAHg1Nsat1KuUDZh3B4qLS2t2JuZg/889TomjRuBC886Gb4+h18xRTkiO60Srz+2A9vXlYgQH4kzrxqIvgODVeB3dz+8ck7lj5Y21FY2YdWXufj41XTUVTfhzKuTMfusvggO61mVxz0NLtT69tbXVZG8MOVSh+nxwaUS8P6GIknAzbhm6sEF3++SrkoAkfSo8jozIgq59jRehwObWTm1qA7mkT9n4e9wlAB+HM44+9P1GrEu7/8BOtt1JYh2558N3fA5+H/I8Dbd2Lfvf9D7HeB6flW2dvd5Zt3DmDfwTG0BYcbe9dlc+XEoceAqnK7cEpdxJE5MV6CeiVECDD0ZV0oA8yVW+HiJ4EkB93DzF+ZVFLjZhbNrpnUkSgA5WH57oOvdXXNlfjQ41HvaYXeme3f6q8dd6Wrf9tOVeXe4CuvhQD8aGpuwMXUXXn9vIYYN6o/Lz5+PoMBDn7mOfmSnV+Gtx3dg2/pSzDg9HqdfNgARffzg7uGG/MwabFlZhNKiekecHBg3URiSR4Zh6Jhw+AV4oqGuBds3lOC9p3chP6sGZ19LRSARQaGmFd0VPUkJcNm21ChaXmPz/om4J6IJVzbWjFuzCNQc9qY185K5dlUADhe6dd6c6XrNut79vTrb6R5nO103vc6/bq653FzYt+numr0d7DprYRbsXKBTc7KbDWtXaN6Vru7szRXd2XE2czbvDrGxn33d5M9gMBiOFsxXONCXNelcTLK7cuhAG93QbXeDhY+U/fI9x2bT3TVurq65Mj8amyu/u5p3h/N12043Mno73dknrsy7o6vdg9nvDrrx8fbC2BGDcePl5yA7twBPvfwuSssqHDYOTnF+Hb54ay9S15Zg1pkJOPvqZETG+sPD013937e7AgteScOnr+/F1x/m4usPXG+L3s3GRy+mYfWXuagssxZb9fHzQMrESFx8y1DEJAbik9cysGFZvk4nauj5uGwJ+HBTESrrW3Dl5Bg97yl01xJwrDmclgBD97Dw4sAzLw92VwrS1pojyRQNBtMSYOjJuGoJOJYcaUvA9xXWji9fvQnrN+9AbV2Dw7TnQn2lubkZeYXFyMkrxPjRw3DLdRchMnz/WRGdqa1qwpKPs/HWEzswfHwErr4jBeFsAXDq/rP002ytxR8hgvzssxMPqByVFtZhwcvpiOjji4tuHozYfh3jJDnAeMOyArz52A54+3rgml+kIHlEmLY2GDrTK1oCThkejvPHRDnODIZvB/uTchEZ9vHXpnCjABgMBoPhOMDyZ8/ebBSVViA2NhLJA/r26G2QbEOS+yGpb5w1/sLfD15e3Y9nsOF4grRt5fj8rb2ITQzEBTcNQURMZwXAhq0C4dF+6D8kBP2Hut7i+wciINCr23ZyTy93jJ3eB3PPTxRloR4rFuagrPjIprA1fHe4bAl4bwNbAnrHmIBjjWkJMBh6DqYlwNCTMS0BvYNnXv0ArSIon3nKjIPWqB9vmpqbkbojDU+/8gEmjB6Gy84/VRWBA1WmlRTU4aMX92DlF7k4/8ZBOPn8JBX2u8KWgA+f34Np8xNw7nXJDtPuycusxksPboOfvwcu7NISQNjCUlXeiBf+vRU7NpTiml+MwNgZfURhMTMGOdMrWgKaOCZANoPBYDAYDIYTDdaKe3l6aq16T90409Cq9Vvx+Ivv4tSTJuPKi04/qALAxcAy91Rg/ZJ89BscjEknxx1Ct5xvL+8xTBwQPHFOjM6ktGlFIcqLe353q+8zLlsCXl9TgIq6Fvxg1qHNO/xdwZaAJ1Y/hNzyPJ3j97tgct/puGr8jbqasMFgOL6YlgBDT4YtAf9Z/i98uXshBoQN1MkmjjXBvuH4+azf6Po4hkODLQHsAH/O/NmIjOiZLQHNzS3YtjsdDz/1Bi48ay7mTB8Pb6+OhclcwUG7C9/MwJfv7MN51w/CqZf0d+lGxwQ8s0sH9550Tr8D6gIlhbX46KV0hEfvPybAmYrSBvzv3g0ozKnBdXeOwogJkYc9DemJTK+YIjSnvB5cNbhvuG+PmieFSsCnu97HuLjJmDvwDIfpsYXzE3MBEOc57Q0Gw/HBKAGGngyVgCfWPCLlpgdun37nd6ACWDWwPiyjpKxyMzObHRK9QQlgbXpVTS0KCkvQPzEOnp6HNp4uc08lXvnPNlSVN+GH94xC4qAQx5X9oRLwwv1bUVZUDz//ju5rKu7IrXQyKkcibm1pQ11tE2af3RcX/2iojjXoDnYL4oJkn72egbOuGYiTzk7URcgMFr2iO1BmSQP2FNb1yOyEHwGF8gDvgO9k4+IeRgEwGAwGw6Hi6eEF/27Kk2Ox+Xv568JXRgE4seAKwSFBgRg8sB+8DqEFgFAA5yw+2emViB8QgNh+B17wNTklDBfcNBhnXZWMeRf2023OuX0RJ+64WvCoKVE45SLL/JRLknDBzUMw88y+CIt0vegZwzl4dBh8/T10kbKaSmsxU0PPw6Vkm1PegAwzsttgMBgMBoOhV8D5+Quza9HWAiQkBcHL+8CDcmMSAnDapQNw7S9TdFpPbpfdOkyE/2gk9A8WBSAJV//cMr9Wtit/NlxnAfL1P/DsRJExfgiL8kdeZi2qKjpWtzb0LEz1tsFgMBgMBsMJQFNjqzU1p5sbQiIOvmpvfnY1vnwnA28+vh1vP7kDbz+xAx88vxvbNxYhL6sKSz7JwjtPiTmvycbjTSsKUFdz4Np9di0KDPbUbka11Vzl2tATcakEJIT5YsABmnsMBoPBYDAYDD2H1tY2NDW1wi/QE9HxAQ5T16SlluON/+3C6//dhXeeTBMhPw0fPJeOPVsqUFnaiBWf5oliIOZy7a3Hd+Plh7bjmwVZKC858Kw/foFeCIv2pS6CFgkPuykZeh4uBwYXVDaiRRJTbKhPj+plyIHBn+3+AJMSZuC0wec6TA2Gw4MZEgddtcre9KPtXews3oq3Ul9G3+CBuHbsTd/JwEuD4VAprinAU+v+C28PH/xixt0ce2roAXB2Gvaxt+kNA4OPhIqyBrz/7G5sW1uCm383EgOHhzuudA8HBtP+mOnRmHdhUvsg4O4ozq/Fe8/sRnC4zwFnB7J59ZFtWP1VHq6+PUX9NzMEWfSK2YF68hShRgkwfFuoBNQ3NKK+3vRV7G2kl+3A+zvfQFxQEq4YeT1aWlscVwyG409ZXRFe2vIkPN19cOukO0367AFwoKqfrw98fDpmqDlRlQBOD/rec7uRuroEN909EoNS9lcC2FrQUN+CpoYWrFqUp7P4TJ4bizOuHAAvHw94dxlHwPKS9nMyKvHm/3bBx9cDZ109EDF9A+Djz/UM3LsdtPzyf1KxdnE+rvl5CkZPM0qATa+YHYgvy8O8MMP3AGZeZus9mzbc6Cbn/Oty3WxmO96b3bgoZ91eN9t3venL+F7gJnIbhfL6umZUdDO5CwX6fbsq8MSfNuLOS7/GKyKoZ+4px4cv7ME91y3D52/sRXMz5wV10Abk7avGi/en4h8/W6PjAdYszsW/bl+N31z+DRa/l4n62v37/DfI/StLG7RhwVOVBMvc0LNwqQR4ebjB+6ArzBkMBoPBYDAYegIeIrf5B3iKEN6Cwtw6Ffo7IafVFY3Iy6wShaENQ0ZHYPzMOMQlBaKkoAb52TVoburshot/ZWdUwt2zDcMnRGH0tBjE9AtAVWUDivJqdDByV2oqG1FW3KizE3n5dN9SYDj+uFQCThsRjovGRznODAaDwWAwGAw9GR8/D8QkBsDLC7peQLsSIDsesysQF/3y8fPCxDlxuO1v4/GLf03A+TcNQp8Ef7Tp9Va1R/stHDsnx2T8zBj86Pej8Yv/m4ir7hiBAcPDxFM3tDR32LeprmxSRaDvgEAEh/k4TA09DZdKwMJtpXh3fZHjzGAwGAwGg8HQk/HwcEdopC/8g72xb3dVp1l8qssbsX1DMXZsLEFlWb1OD5qxswK5+6qxV/bVIrQXZNdg47ICXWyMbneK3e3ri7U1gNcyd1cia08FMraXo7K0HrmZVdi4vAC5e6vQ3GS1CFAZ2Cf2ysR9VJw//AMPvKaA4fjhUgloaGpDreOFGgwGg8FgMBh6PuHRfkgeEYqinBrsE+Fea+jdgD3byvHEfZvwxv92iuBfg7Vf5ePlB7fhvWf24IPn0lCYU4dNK4vwn7vWY9G7mUhdU4SXHtiG1x7ZhbzMGqxfUiDHO/DKQzvwxmM7kZVWiTWLC/Dw3Ruw8M29OiiZUBnYubEUbnLffoOCERDUMSDb0LNwqQRwPIC3p+nDZTAYDAaDwdBbCA7zxuDR4WhsbMX6pQVobLAqdFua2+Aust3UU+Jw21/HY8bpCWgVs4b6Jl3h9+IfDsFNd41E0tAQ7TLUIhuVh5lnxuPn/5yASXNixaxVFwoLjfDBRT8YghvuHIG+yUE6mLhVbmO3AuzeUoZEUQASBgYfdNViw/HDpRIwPC4A4xIPPAeswWAwGAwGg6Hn4O3jgf5DQtBvUBC2ryvBnq2l7f31OUA3MNgbffoGIoh99R0Ddjk1aHi0P6JF9vPz7+i+Q/vs0x/bLxCBId7WNJ/yT8Ge9qPEvq+fR/vkSxwkvP6bfJQX12HU1ChVLgw9F5dKQG1jC2q6GfFtMBgMBoPBYOiZUHCPTgjA5JPjdIDu4vezUFXeCHcPrhEgQvqSAjz1l01YvShXhPo2eHp56CDiBS/twSsPbUPm7gptMbDm9W/Dyi9y8b97N2Hj8kJRJqgAuKOi1LLP7kE5GdVqn4rGrs2laq+fKCFDx0bAL8CMB+jJuFQCdhXUYUtOtePMYDAYeid2DZhN1/PuYNFnbwfjUOx8Gxhe5zAfSvidOVz7R4JzfNmbMwe7Tg50rSsHe6bD8ctgOBHhgl5Dx0VgzPQ+2LK6CF9/lImAIG8MHxeJiD5++m1EyX7ImHAMlS15RJgI7F7w8HRH4qAQJAwIRnS8v5iHIyLKT7SHNkTF+mPEhCiMnBKtKxHTPtcA6D80VLv+cOrRL97aKwpFPWadmYi4foGqkBh6Li5XDH57faGuGHzD9Fg97ymYFYMNRwMKEfaKwSaT6l2klW13rBjcH1emXI+WtgOvyMp3beVxDfD29oGXl1end05zXvfy8pZ9ox6LI71Ga+4envD19YWnZ4e75uZmNDQ0oFns039PcUs7Hh4e+6WnlpYWVFVVIigoWK87w2s11dXw8/fXcHUH/WftXV1drYbR29vbZZqlXfpZX1+HVtl7+3CVVF+X9g8E79nQYC02RD/c3a06I5rTf4rYHmLG+OM9u8J7Ml5aWpo1LPsh1/39A9AicUk/GHYbN/GX9/SR8HcXdtqtq6tTd13jle+vprrKcWZB//ju+Y6Ipgd5f/4BAe3PdbTgisEvbnkCnm4++OmkXx80fRqOPUxCvlwx2PvEXzHYGfbr37mpFC/+eyvqaptx+U+HYZgoAfLget1N/lirz1p8duNhf3/CFgB2KeKaAxxX0NTYkYa5mrC7p9hv6LBP6mtb8PEraVj6SQ5mnBaPc64dhLAo63szdKYnrRjsUglYuqdcuwSdOjxCz3sKRgkwHA0oRBgloHdyuEoA3++aNavxzjtv47TTTseMGTM7CX4LPvoIGzasw/zTzpDjD5GauhV+fn7tgmVYeDhOPXU+Zs6cJUKrP6pFaN+0cSNWrFiGtLR0UQiakNC3L046aS4mTpyodpzTVElJCW684To8+uhjiItPcJhalJaW4u9/+wuuvuZajBw5ymG6P6VlZfjLfX/S8M8/7TQVxLuDwnjq1q148cUXND+fP38+zjr7HJf2D0RZWSlef+01jYdLL70MwSEhal5eXoZnnnlalZbBg4dg2dIlyMrKlPs1oaKiAgEiWDMOvERZGTduPDIy0lGQn6+Cd3l5uQjtQe0K0w9/eAs2bdqIL778HF6iZNmKEIX/SZMm45xzzkV4RES3gvo///kPLF3yDR586GEMGDBAzRjvK5Yvx+9+dxfi4uLa36GnpyfGjB2HCy+8CGFhYRrm9957F3/+y98QHBysdo4WRgnoeXxflQDS2NCCTSsK8doj2+Ht64FzrknG6GnR2k3naJR9XCOgKL8Wn72egZWf54qSEYFzrx+ExOTgo+L/iUhPUgJcVoEMivbHiNgAx5nBYDD0TqjwJSQkoFwEaQrvFERtampqsFQEQg8PTwSK8JqZuQ+xsbG48KKLcM211+Cyyy/X2rL/PvIwdu/epYLsxws+wgMP3C+ShTtuvPFG/OCHP5LCzh1/+tMfsXXrFr2fM2w12LFjB5pk3xUKwzNnzUJ0dLQK8IWFBdrCUFxcjKKiIkeNO6fca1JhuqLCCnt9fb1ep10bCvoUwhd99aUI1htEcTkV48ZP0DBXVVWJ34Uq2FM5ILY544OKCo+dlYWW5hYUFBSgQNxxwSCbZjHPyclBbm6eCNqxOFuUjGtEiZk7d64+66hRoyTursVVV12F2bNn4/zzztfzeaecIgpUFSZNnowr5RrdJPVPQrHcu6a6BqeffoYoQ9foNmrUaDz22H/x+RcL28PrTF5eHhbLc1Ihe1eUOxsKHVVyD8bV+RdcoO/wqquvljiejbfefB3PPvu0vh/GU1pamsY5zxmPjE/GUdd4MBh6M6zRT5kYifNvHITa6ma8/eROLP04G2VF9SrAd8muDhn9buqbdX2Bd57ahWWf5iA5JRRnXDkAfQcYBaC34FIJ+HpnGRZsLXWcGQwGQ+8lKioaI0akYO/eDK21tqGwyPOUkSMR3aePmvXvPwAzZ87GnDnzMH/+6bjlxz/RZu+9YpdKwvMvPI8zzjwLP/rRLZg4abLWWP/mN7/FtGnT1a/DESAp4G4UxYQtAhQ+//Ln+7TV4qWXXsRTTz2BL7/4Qru92LDApuKyfPkyvPji8yq02lAA37NnD775+mvxqxo5uTlok7Ckp6fh/fffw5NPPo6XX34Za9euUeE5Pz8PH3zwPl595WXdli9b2t79pysszlmot2+WMSIjozUO5p58CiZMnCznURgpAvzcufMwa9ZJGDZsOKZMnabnkyZOQnh4OMaOHStxezJmnzRH34subhQaKvamqjnt/uTWn2rLyNIlSySOOhQdwnsvXvyVdu/52W234e2339I4cYbXpk+fqe/wZAnblVdehVNOORWfffppe9htND6XLcPzzz2Lp59+Eh9++L4oOdmOqwZD74d99yfMjsVFPxgMDy93vPv0Lrz7zC6kbSvXBcKoDBwqFP7ZusB+/+u/KdCuRhuWFGDMtGhcePNQDBgapt2LDL0Dl0oAlTiXFw0Gg6EXwe4gEyZORHlFhSoCrAFmMbVs6VLtNpKcnKx97QkF4crKCq11p3Cel5cj7t0RGBioAnuTCKXTpk3Tcxt2X/nTn+7DhRde3N4F5VBgTf+nn3yCwoJ8FfZfEWH82Wee1i4rFGT/9a9/qlJAWPhyXMDq1avw8ksvIaZPTHv3TcIuMyHBwYiNjUNISAj6JfZDgfj71FNP4vOFn+lzsrb7sUcfVeWirLRMWzUWLfoSvn5+2u3JndOHONHW1ir2SpGWtge7d+3SjcfamnKkVYjdQAWGShDjnH6zpYHCeWRk5H5h4rtjV55TTp2PU+adonG4ePEijR8bhruysrLdP7ZolJdXaIuLc6ipsO3cuQP33Xevvv/4uHhRor7Ba6++6rBhMJwY+Pp7YsopcbjulykYNCpMu+488ecNWPhGOtJSy1FSUIeaKo6VadFKD/t7am1t08W/6uuadTGwvKwabFhWgFceTsXz92/VVYXPvHIALr1lKPoNDjYKQC/DpZwf4OOBQF+PThmmwWAw9EZYoKWkjERUVBR2796N4uIilIhwu23bNgwbPkIFZ7vQS01NxQcfvIe33npDhPIX8fjjjyNWhMOhw4ajQgRK2vX12X/AG4Vwu6b8SKEgeuVVV+P662+Q7Ubt607Fg36y+87atWu1axK71Fx2+RWd+spT0YmLj8Oo0aOQmJioSk9Wdjby8/Jwx89/iRtuuAk/ufVWjB4zGt8s+VoVIiobc+eejGuvvU5bNGxFyKapqRlffPE57rzzV/jJT27R7be/uRPLli0VQWH/7k1HCrs/ffrpJ3j7rTfx1ptv4F///LsqYPNPO10VLGc2b9ksitxeTJ48Rc7cMG/eqXjpxRc1fmyoUC1Y8KG+w7fefA2P/vcRbBF3jDNJDZYlgV2eeB8qIePGj8ecOXMlnm7EoEGD1MxgOJHw8vLAkDERuO5XI3GJCO1sIVjwcjoeuWc9XnhgK758dy/WL8nXhb6yM6qQs7cKmbsrkbquCKu+yMEHL+zG/+7dgKf+uhnb1pZg2PgI3Py70Tj98oGI6NN5LJShd+BSCRiVEIjJ/Y/ugCmDwWA4XnCw6hQRHPPz87E3I0OFwqbmRgwfPlxrzm3KysqQuS8TGRl7UVRYpIOCf/vbu5GQ0BdBwSHa1aa7/v2lJSUqzLJ22blW+nCgUE8Bnu7ZTYaCPVsmWLZWV9doNxgOzPX38+u+2xFvKxt37GpUWlqix0lJSepnUGCQKjF1tbUoLirUGXjYomG3XnQtxL28PHUg8kP/+Q+eevoZ3f79wIOYNWu2jqM4WnCMQ3Z2lsR5Bvbt24uk/v3xf/f/GxMnTmofLEz4DO++846E2xsb1q/Du+++DR9fH3z99WLs2rXTYctqLcjct8/hXyZCQkNw75/u04HGznjK8/H9c7D4v+//P/z5z3/SrlbxCfFH/A4Nhp4MZ/4Jj/bD3PP64Wd/GY+rbh+uffnz9lbjk1fS8cw/tuLhu9fhgTvXWNtv1uCxP2zEK//ZIYpAnuZFs89KwI/vHYsbfzMKw8dHwsdP8gIj//dKXCoB2/NqsCm72rxXg8FwQkABlwNlWcO7e89uLPnmGyQnD1Kh21n4PXX+fPzhD3/EP//xT/z1b3/XWnkK0bQzbNhQUQIqHbPhdAxYZS30q6++go8++rBTjfSR0FUQ5xnlUX9/P5wmAjlnuOFMR+np6QcUVDlY2Rag7XEFOh1nQ4MoF14iPB98+j76ESyKT3x8X/Ttm6gbjwODgnjRYevb039Af/zqV7/GPyTOuf3iF7/EmDFjOykAhIO7Fy36An1FIVu3bi2WLVuGIlFmGC7OZGQrRpzx5557fi/v8F/4u/h31113a8sBlaqucIrRG2+6Gb/57V0YO268jpn4jyg97EJkMJyocD0ArvY755x+uOm3o3DrfeNwzS9H4NSL++naAskpYTr//7CxEZgyLw7nXj8QP7xntNq79MfDMHJytK483DW/MvQuXCoBXCOgpNo0hxoMhhMH9qFPFIGR3Wq2bd+GIYOH6GBVZ9hFpEm2xqZm7Q7DWmVCgXvQoMEYN24cPvzwAxUWOUsN+6+vXLlCu59QwbC7BXWFg01ZO21vbJE4nNpme9pMDkqOjYvTmW44wNcV2sc9PkHdcQak7Oxs7f7EwcMxsTHaNaqn0MZ+x1RQJL65cQairnHDc8581Cr7f/3f/doq8bRuz+JHt9yCTz/9WOPUsot2v/gOuXUX11TYduzYrl2QIiIice655+LiSy6R+zehtrbzYGOD4UTEzd0N/kHeukDY1HkJuOgHQ1Up+NHvx+BHfxiDH/xujHYfOuOKZKRMikZUbAC8vA993JOhZ+NSCfD1coe/t8vLBoPB0Otgt5ep06bpIFTOZz8weZB2iSEU3jlLTWAgF5DqvnaLU3redPMPtEb9tdde1ZlpXnvtFZ3Jh11Xzj33vP1qm+lvdJ9ovPvuuyK4P9O+cU0CEinCOAcBs/tPTExse9cchiE0NAwBgYHqR0REhA7gjYuLxyWXXIpdO3fqoFZnuCgWuz2FhoRqLfrQoUN1Nh4KyK+++jLeefdtnW2HXZxYWx4SEqwLlXUH78k5/YPk/s5KDc1DgkPEfZCG2YZdhzjGwF6QqytsfQgLj9BndSYgIFDdHax7EWv5V61ciXnzThH74SrY20I+pxdlvG3etEnXeOAAYIaze9w0jOESFsYRu1Zt25aK559/Vt7n2zoj0ehRY1SBMhi+j/B75/fD79tVXmg4MfC4++67/8jMlbVd3OyFUxqaWhHs54n40M4Z9vEmpzITaaU7ER+ciOSIoQ5Tg+HwaZb0zhpH05zZuyirL8bOklQE+YRhVPRYtGmv90OHgj7zOQrtQ4YMbR8My5piCoXJAwchNi5WhdbuoPA4a/ZJKghXizJBwfyMM87ExRdfqv52TU88paLBa4FBge0bhX/en0LriJQUEchD5dgfY8eNbRekGZ6BAwbqzD6s0R8s9qOio3Qmn5iYOA07rznf01OEadb0DxB37MrDe1Bx4DiAIUOG4PwLLhTlYJjWlnM8ALs6sVWgu+/Ay9tLu9pwnQVn5cbby1vdsSuV82DiwMAgDBo8SIX67qDAT8WEYzDs+7HLERdbY9csPrer75HlVFGxNUajT5+YTkJ+YGCwKkyMo0GDByNM3vHoMWM0/rqDCgNnHuIUplTQuKgZu0kxDYwbNwEXXXyxKolHQn1zLTYXroO7mycmx8847PRpOPowSTH9ejoUbLJhqzWGZEhykijOB+8aZzAcLQqqc7G9MBUxQfEYHp3iMD0+uFwxODW3GvWiCIzv17MGB5sVgw1HAxb2ZsXg3snhrhjcHfY779pFxJV5d9Cubb/bQbpOdFcrzXtw4zXbvfMxof92WJyPyYHC2p1d26yreXfubVzd40DmB/PvUP3qjq7x44yzPweyZ9M1LDy3zQ4lLK4wKwb3PJg0vq8rBht6Hr1ixeCtOTVYt891f1ODwWDorbgS9A5HAKQ9CpoHEzaJbc95s+/DYxvnY+Iclq7h4nlXM5vu7Drf08aVexte787OgcwPxOH41R1d48cZZ38OZM+m6z153l0cGQwGw4mKSyXAw91NN4PBYDAYDAaDwXBi4VIJ4FiApMieNR7AYDAYDAaDwWAwfHtcKgFJEb4YFN39rBEGg8FgMBgMBoOh9+JSCViRXoFFO8ocZwaDwWAwGAyGI+FYjTWhv2Yci+FIcakEtLRyCkWTsAwGQ8/HLgTtGV7MZrbvYjOcWOTm5uoq1FxYj4vXHQ1WrFiBffv2ob6+Ht98880Rr0TNPI4zOHKBwpqaGvVv+/bt2LGj81oh3waun0I/MzMzD2lw/aHC+Ny5cydqa2sdJh0sX778iOI7KytL49bw7XA5RShbAWoaWnD26Eg97ymYKUINRwNmqGaK0N6JqylCrdV7s49q4WUwuILrPgwcOBBeXh3rJBAzRWjPg1n8waYIZb7xwgsv4K233tKVoy+66CKX610cDpdeeinOO+88nHrqqfj3v/+t/nIBv8OF4aNw/uGHH+Kss87SsH322WdalvEeR6Mc42rib775Jvr166fhdF4D5NvARfgyMjI0nH379nWYWvA+V155JebPn68LHR4qDCe3N954w2HSe+hJU4S6VAJ2FdSisbkVKfGBet5TMEqA4WhglIDeS3dKAOeFf/PN1/HBBx+gsakFtbV1Vsl/jGlra0VCXCyCg7iqrsuGVcMJRmVlBUJFCPvVr+7URcqcMUpAz+NQlIDCwkL84Q9/QHp6Ovr06YPf/va3urAdy4eKigoUFxfrAnJFRUW68BiFWZ6zBpu15zxnSwLPuZCevXDglClTcN111+Gyyy7D+++/j5kzZ2LAgAEq1NM+Wwa4SF7//v1VCGbZVFZWhpycHJXJuGo3F+UjdP/www/j17/+NcaNG6dh5SKvs2fPVv9KS0vVHRfJi4mJQXg4V9ZuUvOGhgbNJ3nMxfpiY2N1cT1ntm3bhqeeekqV25tvvlnDz+dl3NAuFya0n4v+Mk54jffm4ntcqZv2+Aw058Zn+vTTT7U15Ec/+pE+uzOTJk3Se02cOFHPGS6ujs44do4Lhp8LPTKeqZw888wzePzxx7F69Wp1R3tsUaA9vhfeh/bKy8u1goiyLRURxg2VHC6USP/5HHwHDCvd2e+Vz8SWEfpJO3w2pgu6oZ+8HxcdtOVmvqdDpVcoAUt2l6O2oQXzUyL0vKdglADD0YAfslECeifdKQHMjB/+z0P4ctEiNLZ5YlfaPi3wjjUs8G+8+lKMHjkcXi5WGDacWDC/2LBhPdauW4NHHnlUhJ8oxxULowT0PJjFH0wJ+Pjjj/Haa69h6tSp+Oijj3DTTTfhtNNO0xW9169fry0EFKopJ7E7zrBhw7T2msLq7bffjsmTJ4tyWKmCI4XlCy+8UAXHadOmqRJwwQUX4O6771Z/affrr7/GkiVLNA+hwEnBlIoChct33nlH/eG9KNTSjxkzZuCBBx7Q2u9LLrkEZ5xxhgrtdHv11Vdrd5svv/yyXTilEkDlgAL1559/rnYpxJaUlKggTD9nzZqldm2clYCrrroKqampWLlypSpBtEfz6dOn6/MxTtasWaPX2M2H8cT4Gj16tAr8jE8qHBTc2WWJ9/z5z3/erRLAlhEqOuziRGGaLR2DBw/G3r178cknn2i8Mh7q6uq0ReWkk07SVhtbCaCSwHjhe2F8UkifO3euvh+G8cknn8S8efPUP4aVyh1bIFhGsEsRN/rNZ+R9GbfV1dWqvFAJ4DdPxYnPzvfO98ZWGMYDn4/3Sk5OdjzRwekVSsBb6wpRUdeCG2fE6nlPwSgBhqOBUQJ6LwdSArakbkOzuz/WbNgCDymcjzWNkob+dd9dmDNrOnx8jk7TuaFnw/zi888X4rlnn8aDDz1slIBewMGUgOAgf9x7771aq86uKU8//bTWzt9yyy0qnH7xxRcqwI8ZMwann366CrlUFO644w4VeilQU7C/+OKLVVilIE3Bn35R0OYxBdtTTjkF//rXv9Q+7Y4YMUL9o3DKbj4PPvgg0tLS8OKLL6oSwTAsXLgQW7ZswSuvvKJC6RNPPIHbbrtN3dIelYCf/vSnak63VDaoQFBQZdgvv/xyPP/886ogXHPNNaqYUCmg8vKXv/xFFRsbZyWALRj0n0I1lQkqF1RceMwwsxsOa9ApGFP4fvXVV/W5+MwMK/2icMy8mQoUuy/9/ve/71YJYK38FVdcoa0MtDty5Eh9pnfffVefg/dj7Tz9ZfzyWako2UoA4+7ZZ59VxYV+LFiwQIV/KiJ81h/+8If6LvlMW7duVYXhpZdeUsXkN7/5jbbCUMli/K1btw4/+9nPNPy8P7tyUQHg2AXGxY9//GP1k2mE3ZvojgoAFaxDpVesGOzj6Q4/L9O8bTAYDAaD4USlTfvCU+hj7Tm7s4waNUqFSwqFFPwIBcEbbrgBZ599tgqCFBwpaLL2mjXKFLA5loC18txT0GTFands3rxZFYlf/vKXWnt+/fXX484771ShPyEhQZWGlJQUrWVmxSzt0i/WYLPbDZUR7gkVFyoRFG6vvfZareFmiwJrwdlNaffu3SqI060dNgrDFOrZnac7WEm2ceNGrQ2nf9zoN2vBeR92r2GLCQVkCsCMN9bgUylgiwQ31tizxYJKCJUBPgv97Q76T7vc+OysmWf46DfjnAoPn5dxw7hguJz9ojkFfSoPDAfdsfWBcUalnQoI/WENP+/Bd0Z/+H45wPgXv/iFvtcbb7xRuybR78WLF2vrBsNNP9iismvXLn13PKeCRb+oBB2OAtDTcCnlD4jyw9AYf/k8DAaDwWAwGE48WlvbsHTpUu0Tzi4urDWnAMz+4+wKw64lFAopSNp91dnXnN132N2FSgKFQgrZ9kBaCq3sRsJa+u6gsEyhln7SLRUP1ohHRVmtSqyNZo34okWLVJiloO/KL15jdxkKvBRM6R/DwbBSOWGffp5TmGXNN69TKSC2gtMVPi/9pFLCMNlhZKsBBWgK4exWw3h77733dNYjjm9gLT27G9E+n433Y3xRkWFNvivYOsB7EY6noN8MG91ztibeg7XvHAPBe3SNCz4n44ytE2zxYDcm9nCxFQX6zbAzXAwP9/THfkZbiGeLBN8DWxPsbk5UBrnxnVEJomJA94xT+333ZlwqAfwwWmQzGAwGg8FgOBGpqKzQmmcKn6zdp5DHLjMUBqkE2NNlUiDkxmMK3hQK2TpAgZrCJpUImhPWMtMPCovdQYHcFqTploI1u56wlplKCJURCs4MAwfMdvXHFm4JBWAOvqXATIGf1yhAU8DlMe9FXIWlO2iX8UDFgv4QCtXsZkShmc/K8FJRogDP2nDuGQbWxPO+dMdwML54TPeuoOJgC+1UJnhvHrNrEpUgCukTJkzQFhBbgXGG3YLWrl2rg4rZLYvdkg4Gn5Hxxvvaz0iFj12JeE8qMRT62eWHrRnsnsVB3VT+CMN3IuBSCdieV4ONWdUwvaUNBsOJBjNwbiyguNnnBoPh+wX727NbDLuksN//7373O93YVYdCIWuVWWtMwZd9zCmgs28+u5Kw2xCFYuYhHFTMGmPWjlOQZD92VzXFw4cPV3fs1877c8wBB69SGGX3HbYSjB8/Xu2wq4+dR1Hgp2DOe1MgJxSK2R2GSgxnD7LDQMWGQnHXPviHAgXkIUOGaK05WyPo51dffaVhoxDMVgEK7rwvW0CoxNiCPO/JFgm6YS0+w8KxBLzuCvrN8K5atUqnE2VXKArovB/vwXEXPKdyZceFM3xHVLqoANAeu3cR2nUF443hpCLHrlubNm3S98pxB3TH56KSw7TB56Kf7ArFd3Ai4fppKP0bDcBgMJxgsJXTUwqAmD5RGDl8CEaPHIb+/RLgJwWuUQYMhu8P/NQpZFPI5KwwrMm2oSDKWnjWrnPgK/MF2uVAXXY54QBZ9ou3BX12DaI5FQX2SecAXfrHQbbsisJj3oM15ZyGkgNVKVRyUCsF5Tlz5mjNP/vZ834ceMzBqFQE2Nedgii7+LB2ml1fWGPOvvicoYatBhx4TDt0R6Gagvr555+vdiggUzi3BVjWclMAph1neG5P0UkFh2GiImT7SYWC/fs5PSk3hoHPy/EUrK3nxi417F/P2nwqEOzGQ4GbYexOKWJc0Q1bXRgXDCPDTUWIe7a4UDjnAGF2TWLc8V3wGeiWcFAxFSi6ZzgZZ2w1oHLCrj2Md/vZ+R4GDRqk5lRoWNPPFhi63bBhg7ZqcPYhjqngdYafSh2fkfdm3PB9Mv6c00tvxeXsQBsyq1DX1IqpA0N6lC5gZgcyHA2YiZjZgXon32Z2IL73qMgIjBXBv090lOZ5FPl9pHBqkOONm1ORvjcLzS0th5QuzOxA3z+YLszsQL0LfsrdzQ7U1tqKgX0jERURpjXpzv3WmVewWwi77bB//yOPPKJrB1CYpIDL2nwK9KwppvDO+fvpnumDArTdB50CPmuzKSCzpptCPI/ZdYiCJQemsjaaigjdc6pKCqUcGEtBmEoEa7pZM0177BfP8FAIpR8MJ/2kHEdzthLYygflObZi8B68Tj8YJk6pSeWGwjCfwYatC+z+xHDQf7ql4kN/+cy0b49boHvWjlNhYdwRht2uXec9GVbGlz2WgtdYU+8MhXsK21QoKMjzHowv2mfcs6WEiggVGT4TFSC2ktAu78HZeSjsU4CnIsZ7UWliSwT3zOPZosAuQowXhpHXGGd8Fp7zORgnVCw4noNxwrjlu+UgZ9rhO2P8sayhXV6jokiF43DpFVOE7syvQUNzG0YmBBolwHDCYZSA3suRKgF85xHhYZg9fRLCw0KRIcJ++r4szez7REViyKAB8PfzxaJvlqt5c7OlCNhbdxgl4PsH04JRAnoX/HwPtk7AgWBt8N/+9jdVBCj8O8OaaioBnHKSs+6cCLXDPR3m5eRgZfeh2vuu6RVThO4urENqbo3pEWQwGE4IPNzdMXn8aIQEB+GbZavx1dKVSN+biX1ZOVi1biM+/PRLlJSWY9qk8RiTMhxTJ47DsMED4SfCw9GGNWz2oEDCPc1Yo+VsxoF1rGmzZ/GgGfur0h4rb2wzuqU9+mnb7Q4qPLTb1Q7Pnf081jiH2XljGOw+v9yzBs6u7TQYjheshWaNsz3o1Rl2oeE0n6yBtrucGI4tB6qYceZQ7X2fcZli2RWottH1oAqDwWDoLVCgjIqKQL++8di1JwNpGdaMHyy0ubElobyiEouWrEBYaAhmTJ2IAUl9MXnCWIwdNUJbCI6WIMr7vvXWm7j//n+1z0pBszWrV+OlF1/QY0KBfNmypXjooQewZctmNWMQOEDxrTffwO7du1ToX7NmNZ568gnc/3//woMP/lv9Tkvbs194WRhmZu7D+++/p90L7MKR+70ZGeonm9q/i0KTz/j5woV44N/341//+gf+71//1O2//30Yixd/pa3S7G7A52I3AaMEGI4n7IbC+evtrjDOsD87Fw1jlxajBBh6Gy5TbGSgF/oEm+Ztg8HQ+6HQGR/bR4TmOhQWlaCldf8+/yzA2RKwZMUabNq6HctXr8eO3WkYNzpFxxGQoyGMsq/vY4/9F59++glWrlyh4aC/5eVl+N//HtXacMJacArsH8hGgZl2WiXc7LP7pgjs7C+7Y8d2VRzYN9bH1wetLa3q5+uvvSZCdKH6Y8P75ObkYuHCz1SBsJ+fe7pfsOAjbBVlg/HQNW6c7XbdukIzV37YG5/lm28Wq5LDftn+Af7a5zg3JwfPPvM0du7coeF/7bVXROkpaFeMbPddhS37vLtrNt2FyWA4FCjo23PZd01D7LvOvuL2eACDoTfhUgmIC/FGYvjRbwY39FIo+5jKOEMvhAJnTJ9ojB2VIsJ/K6pqahxX9sfDwx0btmzD18tWWd2E1m5EXX0DZk6diBFDBsHb2+tbKQIUEpYs+QYe7h445+xz8f5772q3GAqoI0eO0m45rK3nPTjILT09DaeffgZWrVqp9lhDnp2VKYKHhw7G27YtVQepXXPttfjlL+/E7Xf8HCefPE/nPueqnl2FEp7z3m5unbN+N3eH8CzWt2zejC+++FyVFUKlhGHeuHGD7j/+eAE+/PADPPHE//D2228hOztLhfS2tladUo8tEY8++ogI8K9qiwSfiWH56KMPVXl58onHdbBfU1OzDqz70S0/wa9+9Wv88ld34uYf/BClZaXaKsJnZQuN/Qxc/fSll17E448/hsce/a+lQEg8sbsQWxS2bt2C5597Fo88/B8s+vILbUnhdYb/m2++xqP/fQRPPvmEtjTYipbBYDB8n/G4++67/8gMnBkpN06bRDgeoKS6GYP6dB7JfbzJqcxEWulOxAcnIjliqMP02NHW2oYNX5Zj28pq7N1SiwzHtndrnWzc12Kf7uU8lWb1cl6HfXKcmSrHji0ztUHPM7fVI0v3ct6+Neo+a7sU8HKcpVuTdd6+NSFHNu6zd3DfjJwd1pbr2OfsaEHuTus8l8ey5e2kGfetyNvl2Du2/J1t1n6XvbWhQLb83bLtgh5zK06XhCL6oH+IFMYnUEUHZ4CxB38aeg9l9cXYWZKKIJ8wjIoeK7qpNX/26lWrUFhUhFY3L+TmF6oZpwPtmxCLk2ZMhpeXJzZsFqE5r0DyugN3dWSasNNFVXU1vMXtcFECPGVfXMJVQq10wzzz1Lkz0b9fogrmB4OC7V//8mfMPflknHPuuSLQ/g+TJ09pn76PXXs4e8aIESnYtGkjVixfjh//5Fa8//67OOmkOfoMC0QIj4yKwqmnzkfmvn1YLW44G4e3lxd8/XyRmNhPp8SLju7TabYThpetCGvWrkZoaIj2YS4rK1Fhf/v2bdgqgnly8iBaxKeffKz3YBcHCvLvvfuuhmv9eq5k+qa2SFBAZzelvLxcnc2jpLgYr7/+Gvbt3Qd/Pz+dpYSzn8QnxGutPgX1WlHAWJuaKPG1afMmrUXlAjwhUu64yfPX1dbplIOcozw2Lk5bS04TJYjv8R9//6s8o7duWaJ4UBmZPn2Ghuu8886Bh8Q/a2xraqrxwYcf6nR+nD7x4wUf4p133tZFkxobG1ShohIwdOiw9nd8ONANlTMqRQybv3/nlVDrm2uxuXAd3N08MTl+hqZPw/GFr5lpjVMD22zYulP3Q5KT5B0e/gwvBsORUlCdi+2FqYgJisfw6BSH6fHBpRKwJqMKxdVNGNevY/qonsB3rwQAnz1fgE1fV4qgLoK9CPGZ2zv2Wdx28FiEe9ln6Z4CPY8bRGCX/U7uxUz3ItDLcfbORhHaG5Aj+1we77L3IuzTzGmfu6sZebubRIgX4V7Ouc/b7dj0uEUEd9nv4V4E/T0i0Mu+wHkvW8Fu2bjf04bCNMdej0XYbz+G7otkXyTCP89Ls4CweDeE9z2xhGWjBPRODkcJ4DZr+mSEBgfhy6+X61gA1hAf6junvbLychE689AqmcGUiWN1VqEaEVbJ4SkBblpz//TTT+Gee36vU+F9s+Qb7eM/e/YcrbVmjTmFbk5nRyHXV4TpM844A+s3rIefL1cy7aPdg+bOPVmnuGM3GrYQbEtN1UWMNm7YgFzxg/aSkthHuSNMfJbMrEytJU/PSFdBdu2atVi3dq3s1yA/Px9jxo7F2LHj1B+GZ9jw4So05+bmYOasWTrVXpGE97zzL8CZZ54lz+wlisoyVSi2pm7V55szZy5OPvkUhIaF6Cw6oWGhorx440u57wXnX4hzzz0PMaL0sFVhz57d2q2JygLD8dlnn6r/l19+Jbx9vLWLEgVtdhUqKSnCpZdchvETJuosdi+/9BImThiPhL6JqiCcc865uPrqa+T6BG2pYLmWkjIS9977R50q8LLLrtA451iDj0RJOOOMM/ebJ/1QMEpA74Ofu1ECDD2FnqQEuOwO5CFXPN2NcEQa61pRX9OCuppm3azjFt3X17Q6HXfZajuOG+S4QezW11objxtq2+Rax3lX887X5Zh7MWuw7cnWWMdz2dr3tCObnndcb7Tdij96rHvZ1D73fE6HXdl3HANNctzqesIRg6HHwkG+MdGRyMrJQ2Z2rgrth6/0uaFRFIcNm1JVaYyPi9Fa98OF96VwSqF9/bp1uloo/Vm48FOtTWct/6RJk7W/fnFRsXbLYU23j48vxo0dr60EnK+bg4HZdYj06RMjwu3lIjRfIYrDdJ2ucrsI4s89+4zLQb4633fyIEyZPFVbIbhRobBbDew5zVnbzjnC09PSEBIcIkpFf73OKRJHpqToPOicr5sibnaONT95dlY2Fi36Ek8++biOY2DXpsKCAnnmegSIsEy/w0Vh4KJBDFtNTS3ycnO1SxEVDVZC3XjTTRgq4aHQZkM3E8ZP0C5A7Gb04Qfvo6Kion1gNZk6ZSpCQkJFIYnUAZxlpaU67zlbOThfOZUvdhdKFWWF8VhXV+twaTAYDN9PXCoBoxICMam/1SpgsPoVy4/W6uix7vWXP7pXY93rge4tI+uanukxj7ruLXu0Ze2569i3qj1etezqXgwsOx3Hnc4dbq0/4jjWE+6trZN9x3XdnMx5ZjD0Nnx9vOHuxqX2m7RLyeErABZ0x5aj6uoaBAUGaNeTw4U12RSMWSvN2Xm4TH1gUBAqKyrx1Vdfaq168qBkrRnfvGWzCrljRo/R2uqRo0YhVYT7bdtT1U3fvgkiAFfgI1EqtmzegukzZuKSSy/DNddehzPOOEuUlkYVmKn0dEK+5yARtKdMnYZLL7tM3Fyq+9mzT1KhntfZvYbdidhl5quvFqG8ohz9kpLaW4kZHk9RXphHeHh4amuL5hetrYiMisSgQYMxeMhQpMhz3nTTDzBj5iz4+0mcsWapS/z3799fa/AZdtbUX3/9jdrC4O/v57BBFQzYuWM7Xnn1FVVMeL+4+ARRZjrX3np3qdXnGAW729LgwUMkTENEuRiOWbNOwi9+8UsEBvasVm6DwWD4rnGpBFTXt6Cq3lT/EksMVpFYC0n9U5nY2lvmDht6ofO+qx11SXMnM1vYtt2po/Zza2/Zg6UQ0Ix/ItjYdtREDm0/LDc85N5x7DiynFj7juNONnigZw4LBkOvo7yiCk3NTQgNCRLh9cgH9dIdFwPrEx2JsrIKHdR6OFCJWL58uQr4t976U5xz7nnaLeaKK67Uvv7vvfeuzlwUEBCoffo//OAD7WKT0Lev1ojTjN2Yli9fhlEjR2lNOsc1cKXLV155SWu3KfCHhATDPyBAFB83dbe/0iPnEgVUiOje3lrl+ey4oRsKy6y550xCtD/Mqf88uwRxNiHa5yw+vBf73rMPf1BQsC6cdOWVV+HUU0+TcPqoEK8KQDdQsUjqP0AVh+RBg9AnJkaVIUv0t+BtOVB4965dOOP0M3HRRRdj7Nix3TxbZ3id4eF4C64EesUVV2irCWdyqa6pUeXAYDAYvs+4VAL2FNVha65pLrWwCkiWkVpM8piiuHXiMLcu0sgqTC1z6wqPnTZnM/mz/q1zq8bfNrf96djrsW3f/qO5KgOO+/G6w65utp2uf852nDb1xdlM/gyG3khNbS227diNfokJmD5pPIKDAtWcybzr5sqcG1cYvuic01VQz87LR7MI5IcDZ8h56aUXtMadtfYUYq1tnNbGZ6SnY8WKZSq4jx03Xvvhs2+73W0mOChIBPHhSNuThslTpqrgzoWLOMCYNfv//vf9+O1v7sRdv/0NXnzhOa3VnzfvVK01d4bjGppbmrW/vDP2uDBbGeDy/nHx8SgtKVFlpP+AAQ6b0G4/7Fbzlz//Ca+8/LLWso8aNQonz50nylYoXnjhedz3pz/ib3/9M9asWaX+UpLn9KXOWQnvY7VUOBk6wetUthimxH79xMQNb7z5Op54/DEsWLBAr9szGBHnZ+I1njOOrrv+Rnz55ef4wx9+jz/f9yc89dST2sphlACDwfB9x+XA4K051ahvasX47/vAYCmf1n5ehtKCxo66Kfug015+Ou2tQ/vcrrVyc1zkvr0my7Li2Luhrcu5fWJbJ2quBx2G9lG7t7K3jq17WYfW3rLCY15zHFuGSrt9+fXwdEP8CHdE9nOycAJgBgb3Tg5nYDDhImBM3Fz9d+TwwRg1YihGjxyGMaOGY8xI2bi3j522sWo+QrZhSBk6WDODJSvWIq9A7iF5JtMN88xDGRjcIoI3u/ewq0tMTIzD1PrOOFMPu/hwIG9cXLzkwUGIiorEKaecqjXYhM8SHhGu3WemTp2mM+xQiKWw369fEgIDAtQsVOwPHzFCpwmlcN5VCWBSDwsLx9ChQxAZGekwtczZ737E8BFac+7l5aX9+cvKyzBTlBYOEKZfHMxLhWb8uHFqf5h2r5lt9fWXsMTFxumYAy9RXnjMQcJsVfBzhG1ESorWzhO2DiQnJ2PgwGRtMegKw0QhnooSnzFCwssxFBxoPHr0GO1uNGTIUI0zjqeYPn2mzg5EBYDxyu4/nNudbsPDI7TFIkjiluMpTjllvraaHAn02wwM7l0wLZmBwYaeQk8aGOxWU1PTxmZmTl3HjbMukPWZVahvbMW05BA97ymsylqCz3Z/gEkJM3Da4HMdpseO1pY2PH7nHqRtsuYWtwRGS2BWMVkO9M/JvOM6DzuuW3b0ql5UMx7wV42svXVuXaGBHlkXOq7zjyfy784f29Rhpu7b3XBvnauJY9/xK3/WBae9Y5MzLz83TLnUA0NmnTg1ZxQU6hsaUV8vyp310IZeQlrZdry/8w3EBfXHlSnXo6XN6vf98H8ewpbUbWh298eaDVtEebUGlvJdUwhNTIjVGn13u2uKs2zGJNCdrOYw55iC7Nw8FBaXquBvp5lGSUP/uu8uzJk1XbsLuYJKQ1VVpXb3cR7wyrBxk3xYlQhfXz8VsjlolQN12efettfUxDy6SfvsOwv39Jt5NwccE/bZ59ZduqbfnCaTXW7YymBjlwGWIuOG0tISne6zqrIK11xzrY4JYBz/9a9/1taBG268ySF8W/7Y4dHvqr7ecQ9PfR66431pbisvhIuhMYQ+YtZVWSGMZw6CplJBNwwf3VB5oODN5+Uz0s+KinJVLmy/GZ/0k9doh/evra3R8DFMRzIrkA3946xHzz37NB586GEdjO1MWV0RXtzyBDzdfPDTSb/W9Gk4vvBT8PWV78K7Y0D/M69+wASLc+bPRmREqMPUYDj2bMpbg7e3vo7RsRNxYcqlDtPjw/45rwMfT8lcvVxe/l5B2YC1ObpXQYEFt2XOA/3TC5Z5d9ctMzWxztWo8zX900v2uZMdXrBO+Wv9WZb1uN3UNqO7djfcW+dq4tg7rlp/1oX2vXXMK45Tg6GXQqGtTgTQnbvTsWLNBixftd7aVjttXc+7mK9Zv0lbAJwVgMOBAilnrnFWAAj94jXWePv5+es5Bevg4BARaDvs0py15azp7iow28Iu1wrgZgu+3cH7U4B2VgAI70mlg/fgTD3PPfcsdu3ciXHjx2tffxs7vBSiGWbeyzk8vE6hnc9KhccWynlfhp172uFGZcavi0LjDN3yHrYb3pNz/dvCvrqXe/FaaGhY+70In8W+RugH45Th+jYKgMFgMJxIuJTys0obkFZkzYX9vceSiWVTcblDUG4Xkm1zy6J9nfv26+1mNLT2DiPLjIdqRgM9dbJjm9v29LfjTy+1aa2amquBZU/9cBzb16xD7h3HjiPLnr13mHeyZzD0TlTwFGHTFgoPF9vtkbrvLfD5KFBPnzYDV1x5lXY9shUGtjhw5qGLL7l0v9pvg8FgMPQ+XCoB1Q0tqKw3zZiEIrA9Iw+lY/2joEwTPXc25xn3auiwp0d6TQfHCbEDvTHnijCMP40DFW13ciR7265tbnllmXNvmTvsOs5D+3hg8oX+GD7bFwHhbu0D/Dr543wsR3LAM/1Tc3vvsGvbpz2DwfD9gAOBZ82ejRkzZlrThjpgfpCSkoJx48Zrrb7BYDAYejculYAQP09EBHRuuv7e4iQUqzise55TRObeOu8wpy3u1bLuOZsHiRvkg7lXh+O0m6Mwfn4wBo71h1WFb7nVo3Z/HKZ6rhf03HHCHwu3NgSK4D90mg8mneePWVcGYsRsHzVTt620S3/ohX2sPtFA93pMc8fesqOXLTN1ZzAYDAaDwWA4EXCpBAyK9kNKfIBDKPx+Y8cBRWTrjydOx9zLgZ7Z5o495+N2d29DwiBfnHxVBM74QTRSZgahtqoFddUt8PKxO/Hwx3LjOLSOrVOHf3rgZC5HtCheuDm6w9ZWtiIo0h3jz/QTZSCgszJAu4K1s86tQ+4dx469sx3uDQaDwWAwGAwnDi6VgPTiOmzLM+sEKBSELalYheJ24dkhJFuXaEf/ackS/kU4jx3gg5Muj8RZP+qDUScFi/DfjMWvlWDhM0UoK2hud9vuj+71wDJz7DvOacVhxpP260BjXRv2rKnHkleqsGdtgyoD40QZmHlVAIZO90FAaIcyYDlxHOsh913+utoxGHo88u1Jeu26GNax2rTbnfk6DAaDwdALcTlF6JtrC1Be14KbZ3bMDNETOB5ThP73FzuRtqlKzhyDAjlAkH+6dz7XE7iL9B+X7IcRU4MxcHQAgiO9kJ8hStXyauTsqkd5UTMaatpw9b0J8PJ2w8t/yoXOIufsj+NYfbSP9V/+9Fyv6LG7pxsSh3tj1mXB2LCwFqlf1yMw3AMR8Z5ITPGSzRs+fu4ozmrG3o1NyEptRk0559K2/Lb9UT8d+45fN3j7u2Ha5d4YNvvE6R5GxaZXTxHqLHf2wuB/Gw40ReietDQMTRmH3IIS/Q6PNZwt6KLzzsDQwcnw8jTdJ78PML/4Xk4R2ovzHGbxZorQAyNRoT+s2GgRuae12aoAdPdwk/xV5AzZVE7ojeVlD6MnTRHqUgl4Y20hKuqajRIgH8MjVAI2UgmwCgDHgSUi69469xChI3GYP0afFIYBI/3hH+iJrJ212LykCrl76lFd0oKmJrYQWDXyV/2hrygBwMv35qG1Vbzo5G/HsWXsZE4z/ee59YH2HeGD2Q4lYPOiOl3gi0KQb4AbQmM8kTTaGwPGeMMv2B1lea3I2NCEjPVNqCkTZUDbgyy/LO/VZ+tYfn38RAm4gkpARwba2+ltSgBrnavKm1CcV4fqykY0NbSiTdKMpxffjyh8MX4Ii/KFt8+Rz4DTWziQEpCXn4sbb/oh/PwCmIyPOZKMEBIcBK4R0JvinUFl2JmumI74sWtBL3kGzQ2u4Xv+vigBjfUtKMipRXlRPRrkmOUh04i3rzsCQ7wRkxgAX3/P70Th/jYwvRsloHuYB1SUNCBzTwX27qxE3r5qVJQ2ornZyhuYL3j7eiAy1g+JyUFIGhyC2H6B+t5P9LLmWNErlICc8gY0yQefFNGzVtI7PkrADuwRJaBdMLYTvuz5EfCPmeKcS6MxYkoI/II8LOH/m0rkpzfIB9aM5kYK/xTQ1KEO1r36j1ZLwEt/zBXtm6Yd/lv+Oo6to/Z7Wf/WnguFUeCnEjDrshBRAmqwRZQAtg7Y9ink+wW6IyzWE4kjvNB/rCgDQe4o3teCbd80InNLs/qvvoobPbLdyrG3nzumGyXgO6dFMuFCKYD3bC3Hro1lciyKZIWkpSbJmZ0kNTcpgP0CPBAS4Y2kocEYOjYM/YYEw08yaXk4h60ThwMpAYWFBbjt9jt0VVxDZ5qbWlCcX4/cvdXI21uLotw6NNSJYCeZD5OJp5c7gsO9RLDzR8KAIPTpGwD/ICnoNRcw2DC/OGGVAHnV1RWN2L1J8pxNZcjaU4WqsmbUSzrRPKc9KXA9Cyu9xPbzx+AxYUgeGYKIPv6O6z0Lpm+jBHSmob4ZWWlVWLs4Dzs2lmoFE/MIL28PBMh3HxTqLXKEu+QRzagUpYBpgPJQQJAX+ooyMGpKFFImRSEyhmt9mDzicOhJSoDH3Xff/UfO/8xmbW7BwdZS6qm5NSiqakL/SD897ynkVGYirXQn4oMTkRwx1GF67GC+t/qzIpTkW6tx2kKVCo6OY9oJifTGadfGoKmxFV+8XIANX5Yje3cdaioctSe0qtbpTtxIwTt6DhcEcsOmxZVi4HS9nY7jdkFVdloot+/lV3Yh0R7ol+KL/LQmFKQ3OWr3bdzQ3NCG6vJWlGS3oCCDQr8bEoZ7oaG2DXm7m62WCPFHbVvet/94Sr7ZN8UTUUkdi/GcCDRLem9uPrLFn44lrJlh4bv4vSx88WYWNi8vQXlxgxS43iKcBWDYuDCMmhqJ4RPC0XdwIELE3EMK5BIR8NK2ViB1TSkytldoGgiN9IGnN1XFnvWM34ay+mLsLElFkI/EQ/RY+XRYO+mO1atW6UqxU6ZM1YWiDMyb2lBT2YTt60vx5dtZWPxuNtZ/XYi9OypRUlCPxgb5BiTPqpG8vjivHlm7a0ThLMfWVSXYs6UClWUNWuPHVk1T0Fswv0hPT8PGjRtw2uln6OJrztQ312Jz4TrJ8z0xOX6Gps+eDrPAKhH+V3+RhwUvZGDFp/nIzajRvCM+KQADRwRj9PQojJwcgYEpoYiKFYHaz0MFyYztVdi2thQ7N5SjorReKyMCgl2vnn084PNxwThPpwXlNmzdqfshyUnyDntWZeexhJVLuXursOidffjwxTTs2FCiFUYjJ0dh+mkJmHZqPCbPi8P42bEYM60PRk+J1mvDJ0RKWgjUFoK9OyuwZWUR0lPLtTWa5Yy3j0ePK0t7KgXVudhemIqYoHgMj05xmB4fXCoBazIqUSgFw5i+QXreU/iulQDW0K/+rBil+Y2WgaRxW6DSX0eaDwqVDP+MSKRvrsGKBSWoKhXB2lEBpN+F/Fj2HXvxd/ScYO1nt2lxVUcli/zQhv0xWccd5o4DPbJ+ZCeFc0iUJ5JGWkpAfkaTFtgOLyzkhPdoFl2muqxVnLohbogXasvbkL2tS1j1Bo67yQ8XLk0c6WGUgO+AytIGLPskFwtfzcTOjWUq+E+c0wczz47HpLkxSJkUKYVwiDbLxvUPRMLAQPQfHoKhY8NFOQhHoigFzKSpDGxby9aDWoRG+CAozPuEEeKMEnBo1Nc1awvSp6/sxZKPclGYXYfwaB+MnBKJiZKWJki6mnhyH4ybGS1KZRRGTIjQGt34AYGaBeTtrVHhbs+WctTXtiBMCnrTBYB54omlBLAlaPvaErz/dDpWfJavNb9jZ0Zh9jkJmHpaLEZPi8Lg0WHoNzhY85y4/gHa0kizYePDMWBEiJR/XsjPrBHlsRQZ2yrgIYJhdJy/lB0u5x75TmGSNUoAUFfThI0rCvHO07uwcVkhwqN8Me/CJMw9vx/GTu+D/kNDEZMYiIg+fggJ90FwmI/ueR6TECDlDt97OJJHhGqLQfr2cmxaUYSq8kaEi53AYC9TWXAI9CQlwOUX2tIqQhIlYINW9bf/OY7VmHv+22ayZ19t1qypDTf+yhXdOVy1WdccLvTIsmNft67wnAbWWYe5ZVcvtZvZdvWHx3pi2dO9489CjkTgZxhV8KcTvWZdV79oon7b54ZjDVuGstOr8NELGVj4Wqa+k/mX9cOltw7GrHPiVciP7Reg/f4DgznQ21P7afoFeGkmzf6a7Ao0dlYfnHfjQFx5+1AMlMJ5y4oSvPzADmyWjJp9es37PPFhWmLT/uevZ+L1h3drjX6yKI6X/mQQLvvpEJx8YSLGzYpWAU4FOxH62byfPDJUFIQITBPBT9PQHUNx0nkJ4CDBz9/IxFv/24Odm8q0tdNwYsA+/1+8mYlXHtwlwns5Js6JxrV3Dsdplydh5NRI9B0YpMJdkAiDVABZ2+sreU9QiLcolL6ISwpEyqQInHxRX00v82RfUdKI959K17ysvMTRgm447rCb1zcLsvD6ozu0cuikc/ri6jtGYOaZfTFgWKiWLXzH7BZoVSJawjz3Hh7uVjchKXv6iDLAbkBnX5uMK28bgQRJI8s+ycYbj27H7s1lVndVQ6/BpRLQP8oPQ2N6Zv++75p2YVj/HQKy07n+08xhu33vMLfMeG7vRRFQcwfyrWn3HV63jfX7Uw+sveNNqTsqF7zOjZd56DjXU9qxDqxD+WnfLFP9c3Ps9b+LPbVl29dzw7GCQlv6tgoseGEvNiwpwojJ4bjwh8mYdnqcZrAcgGfVqGmicAlbhHxEMWCtzfCJETj/5oE445ok1FY3461H07D6i3wt9M37PHFh18PMPVV4/5k0fPNhjnZTvOAHyThXhPoUEfA5kJN9falAMk1pQe9IDmyVZEFPxZJpiN0+Tjo3QZSHwZgwtw8ydlTi3Sf2YN3iAtTV2OOIDL2V+tpmfPRiBj55eR98Azxw+W1DMF+E/+SRYQiJ8JG0cGiTDOhYklAfbR2YdU4Crrh9iFZYLPkoR9NLkZlq/LjDrl7LF+ZgwUvp2vXnopuH4LTLBiBpSKj28ee3f6gwTTCfCBcZkd2ELvvJMEydH4/07RV4+8md2LmpRFujDb0Dl0pAsGj8oaLxGzpoF5jtPwpT9rmjILVwnMuPtbOvd5gTtpolDPLDdfeJRv6HeEQneSMgxB2X/TYGV/4uFsOmBegA3vNvi8Ylv+6DoVP99Xz+TeG47O5ojJobCP9Qd5x0ZQjmXMsByfI6Hfeyw+b40b3+6XUedbnicKfnslf3trkeGY4VHPjLWjMqAjPPisNZ1wzAwBGOzPkIm1ZZMEfG+mPaaXG45lfDdHD3e0+lYcVneWhsMBn0iQjHkmSnVeGdx/dgx4ZyTJgTjStFIGPXjsgYPy24DwcKBlRA+w8LwelX9JN0maStAh88x24juTqOwNA7Yasg8wOOEeEYo+vuHI5R06O1bzfHqR0JzKsCQ7y0S9mFPxqIKafEaKXGW4/uRnG+UQSOF+wCtG5xHt5/bg+i4v1x+U+HYdLJsQiN8D0s4b872DLUd2Awzr12EE69uD/ys2rx7jO7kZZart3MDD0fl0rAroJabM6pdpx9v2kXnFUgpoTsMHP6o6H9OXXY1RPHVZqpgXVunehx+6/srCPBjfYddnlMM3Xj2BxdjWjmuKq0SSAsE4e5XpIje69/nVEzvbljr+c8tY+ta4ajD2dqWfxetva/nnlmnCgB8dose7T60rLpngrFFbcNQVCYFz5+aS+2ryvVwWGGEwe2JrHPP98v+2bPPCsWU+fHoqqiSQcGH0KFrktsZWD87D4485r+2v1s0dvZ2CgCHgcWG3oXFM6+ejdL+/8PHR+Oc24YoH39PR0zyn0b6J5KBPuVz7mwL2ZInrZ9XRk+fnGvtjwYvlvYNWfnplJ89HI6gkI8cf71yRg8Khw+vkdWwcu+/wvfzMDDv1uHh367Vrf/3LUOi97bJ8pkBGadlYDcjCp8JefFebUOGcLQk3EpadRJ4qk1fT8VFZLlz3HSfqymKiBb5orj2HLBP57TwHFuGejGRTkK99XjnYfy8N4jeSjJaUBtZQs+fqIAHzxaiD0balFX3YzPny/BJ08UIW1DHWqrW7DkzTIseLQY21fUoLaqBas/rMTK9ypQX8335biP/Nn35D+x761mDkPbnh5xr6f2ueMSDQ1HndrqJqxcmI9dm8sxdnY0pojQxmb4oz2wiq0CrM1lFyPy0QvpKMiuMTU1JxAVZY1YuiBH0lIZJs2LwfTT4lQpePn+nXj78d06FeC3gcId+wuPmBiBUy7pq1PSLn4/W2ehMumoFyFZy7a1JfjqnWxE9/XFGVf1Q3S8v3ZH/bYKQDviDxVHtj7NPiceY2ZEaovAyoVcD8ekle8KluP5WTVY/EGWDvZmTT0H9R5qi2CdKG10z1acpkZ2I2WZ1YjUtcXYsKwAe3eWI2dvFbasKsKGpYWqcMw9LxGjpkRj88pCNTeKX8/HpRLg4+UGvx4ysv/4I6lfvgB+VJbQzH9777juOLKuOEzb3XSgV8XAugY0NrTpzENlBU3yoYliIJlkWWEzyuW8oZZzeAOVxc2oKGzSGTq4eEdVaQvKxU6dKARsnq8ub0F1KRf2oMd6E9244000BLyZdWpdsE4VmunGP4c9C8tiZzPD0YBxyrm4Ny0vFgE9WJvOOdDuWM2sQEWAtX4cuFeQWYdvPsg1GfQJAgv4HetKsXpRAQaMCMWc8xO0Wwb77bMQXyPmrz+yS4U/qwXI+q6PBDb/UxGYdkacdjNY/XmB1vgdqX+G75aq0gZ8/kaWDu4++5oBiO8fCDeRCY+aAuAE8zJOWMDB5ZFxflj5WT5y0k3vgu8Kfv/bRGDfsbFEZ3iaNDf2sLoEchrQlx9Kxb9/tQbP/nMLVn2Zo2MLOKnIUFEmrvvVSNz+twkYNTkSrS2tKruERflh7vmJiIoLwNJPs5GdUWUUvx6OSyl/RnIo5o8wC+7Y2MnYEurlzPqnQYcZT53MrPOOP5p3mHXAAbrqhn+OC9zpoW3OY+6d/FBDy5J4Yptb1/RP3dLAMrU9t69bx13P5Y/ubLvWznHVcLTgvP9bVhXLURvGz4pGXFKAdq1gxrt5ZbHO615eXH9UM1AvLw+d8m9gSjDWflWI7LRqk0H3cvidctGvZR/nwj/AU5W80EjHdIfyav0DvRAraaskrw7vPLEHKz/PQ3pqBRa+vg8fv5zesb2Uji/e3Is9W8p0cPGB4MxU42ZFqTJAxWKXKLON9abVuKfD2v513xTo+592WgwGpIRo5QC7IjIv2ryySGcoO9j7PxzYIsAZhE46Jx5FkgZXSfozs8cce5gv5GdVY9WiHISE+WDWmX11Zp/DUfaCgr10cHj69jIsemcvPnsjAzki1NMP5iucAjYuKcjy11F5RcWP04yOmRGlXV23rStBrRk71KNxqQSsSKvAFzvKHGffbzRLdAjG7UIyTXVvXZdDxT63uuxbhrTPrj/6RzM1t65xr0Y8b7fjbE5jq4XAypxp7tjsP7Wnjqy9w6F1Tdw59h3XrOudkHO1x0Palftxzwu672rfcMQwbjn3OlfkHDouDIPHhmlmW1ZQj89ezsYTv0/F0/dt00XCmkQx4IBPFpzfdmMaCgz11un8qHAs/ThHzQ29F878REE8O70a406KxuBRoR2tSfLNckzI4FGSxkaHYu+OCp0ylutPfPbKPix4PkO2vbp9JMfvPZWBlQsLdCrBg8H5w7nGgL8IChuWFCI/u8ZxxdBT4RokSz7KQ1C4p04YQEGOQvryBQV48g/b8Pg9W/HO/9I1T2CW75x3HOnGlmwuKjZ4TDgShwSJosG0+u26phkODtcISdtWLoJ4DUZOjdIpQA9VAWA5kZ1eicUfZWnXH/pVW9usYz3YJZDyAJUB1vR//lYGMndXaEuA7TtbGybMikVUrD82LStAUW6tkR96MC4XC9skWmSVCArjEoP0vKdwPFYMXvlJYfuKwZ0+IznhOe0EhHhi8vwo5O+rx64Nldptx2Flf+RjpJuxc8P0w9qwqFzP98PhmBl1TJIP+iR5o7qsWd5TZ3/5bYdGe2HAKD/k7mpEfnqj1cSrF/kv93N2IOfBUR5IGu2LquIWZG5tlI/Ysue4bOEIk4cXkDRKNP/+J9ZsUcdrsTAKbuy6wQGc0+bHImloiAhunIfZHTGJ/vAL9EBRTh36JgfquIEPRUD77NVMre1desRbDlJXl2LA8BD0SfBH2tZypKdW6qJRfoG9awEos1hYB7oewJuZOuXnmVclISTCagVgt5+cjBpsXFaEAsnLKQwMGR2G+ZclYZDsUyZHYPIpsZhyaqy2DvUdGIhiyeP8A7wwbEKYFvYHguklQBQAptPdWyoQ0zcAsf38dT7xEx0+e29cLIxdD5d/nIcZZ8SLYBgBb8lvWDBwGtmhY8OQvrNC7U05NQbP/i0Vn766T/KcvG7ykkPblizIxdqvCrQsTB4ZgiZRCjYvK5Z044lBoph+l3kOb/V9WiystKAeyz5j950mnH5pf/SR7/Ng8U3hnwL7l+/s1bUEtq4u1nUiOJC4ubFN0kgERkyKku+9XGv4uSDl1jUlKMiuQ1ScP8ZMi0akY1p55g0cL8DxbomDgiVvCOwxC8f1BHrFYmGsuRblziAwE9facW72uW3W6Y8Kgfw67Kpbx57Y9nldfhxbxy/3/Ey9/dz0g7T8sc6nnR+Gky6PgH+Ih/rj7e/uGAPg8JM+WDs9t+7FE8d1/aeJ45p1qKgNNXMYOLDNaa/zFcO3oVgyWi7JHx0fgPgBQe1T8rHGLHFQoG6+/lZhVVrYgKzdbIIFQsK9dUl+Ftqcyu9AG+3oJvZDZasqa9DVY6ulUPAL8MSYGdE6qHwPp3I7is3/hu8O1rTmZ9bqAGAu9MWC1hm+VU4FWVvTrCsCX3LrEF3dlemDA8W5mBw3rv6ZIOmQ3YkOB44PGDIuHD6y37ezUmcOMfRcUleXwFME/+ETw0UBYP5i5Tsx/QIwdEIoAkU4Jyx7uMBcWVE9wqIkLznEPCfUKc8JDveCl48b9u6oxL5dlVrBwQXpOPNZxrYqrdwwHBtYZJfKu2NLQFScH6IT/LW2fsPSfKzvZktdW4SstAos+TgTD/x6Dd55erd2+eP8/z+4ZwxOOqcfRouAzzwjNjEQl94yBL9/Yhp++8hk/PqhSfjDk1Nx092jpdwKcYQAWqZReWC5tW93pZlOuAfjUgmYOjAY84aFGuFPsIRja2sXlGVnC8n7Cc80c/zZ5zY87uieoybyz+bXNrh7umHmhRE49yexIuy7iyJmXQ8OE+FwmJ8OHq6pbEHyOH+c97NoJI30cygLlr8W1rke2Ye6t054btm1Nv5a5o4/hstxbmGZGQ6dsrJyfLN0OVauXoumps6ZH+OSqzWyv39MP38tFO3CmDU17h7u2vJjV9pwYTnWoJxySSJuuGs4rvr5UFxyy2Bc9KNBB9wu/uEgXcHzht8Ox/W/HYFhE6wMmemFr3PQ6FCd4WUPV3hsttKfoXfRUNeis/PwvQ4ZE6r5h42HHAeFeqLfkCDMvzRJZ4ZibT3TErsLcW9vmt60C1GH++6w06QN0ysV1vBYXy3oSwrqHVcMPQ0qg1yHpE+CnwqGfOc2FNiYDuyaYmYFnHBi4PAQ3Py7FFz/m+G4pJs8prvt0h8PVvs3SJ5z9rX9VRGwpyMODvVGQnIACnNrVUg1HBrsoVFcWq77Q4HdR8sK61Bf04REUbzKixrw7D+24t93rsWDv17XaXtAzB76zTp8/lYmcvey244bzrp6IG75w2jMOTdR8oxAjJgYhctuHYbJJ8epwh8W7afjPFjpEMdNjqNi/bQSy4ZpiRULXIugMKfGKAE9GJdKQEFFE3LKzJLfimSKzBhtOUkFZTW0zhUnIcqaq99hr8ORtRe6uuexuycw7ewwzLggEt6+bmiTTFgFQHbFGRmgNTg711TryHy675Pkg5OuCEfiCF9LEWj3yfq17su9w1St2OZ66IAH9om6VDu2O+uqsx3DwfD394OnpxdWr12Pb5atQF19R4HX3NQmwlKDFIxtiIzx7ZRxuoID+rgSMAW7xe/l4Mk/peLR323Bo3db22P3yJ7nTmaP/m4rFr62Twtz/yBPeHl1fOp8txHRvgjrI8LbTklTTabJrzfCcR2F2bXgQGDWsjp/ohTqOBvUzfek4NRL+0GnnnUS/A6XSikL2D2AfYFbnZqIuWZAXGIA6qqaUVEs6dq0KvVImE6qyprAFcj9Ar3aBf4D4SF5RkCIl3b3YH7SOX9xynccZo/dsxUv/GundnP0D/LS2uQO3dJNWyApMDbUtiI3vVrzNcPBqaiqwQOPv4IFXyxFU9PBZ3TjqvAF8r5bxCpbaBokn+D3y1WcL7gxGRf/YJBul/xoMGaflaDlCisUpsyLxa1/HoczrxyI+P7BWjZReVz7dS42ryjUFmPODvTpKxm4/xdr8c87VuGft3Nbgzf/txN5+zrP/BQY7KWzlOXtq0G1aSXssbj8DDPL6pEm2vqRFxsnErYQbAnIakJB2XHefuywBSkjLTN10f4nhryqOB3C3csNsy+MwilX90HO7lq89988cD0A5tO+Ae4YMU20+cJGpG2sUeExY2stPn2mUIQ4L5x6fZS2CGjXIKFzeBwhsM8ZBKdzhwM156nuLRvWn8O+4fDw9vbGhPFjMHP6VKRu24GPP/scVVVWBkkljoUx3y37TR5CWeygTTNqTrFXWVaHhGQ/DJ8YLIJeEGqr6lFf24CkIf5qNmRsECrL67B3V6U1ray8QrY+OUOlMizCG8V59WgyKwj3Ovg265keMmoQFOoFPxG6nGHFQG56jc4Hz3651rd95HAw57tPpOHVB3fpgHZbEaAAESoKRmN9G0pFuW0SocHQ8yjJr5N304aoeD8c7rANTgGbsaMckbGemr8MmxAs/nghaw+7m3hZeY7kQ8ER7jp3PGcB0gTaJc2xSxDTCtNOUY7IFka4OCSCAvxx7vzZ+PjzZXjl3c9Q33DgylnKCJzjn+N6YhKsLoKcBSpxYAjmXdQfp1+RrNtplw3E5LlxCAnzVUWNlQmxotD7iTt9N/L+SvJrsWZRPl64P1UXCeOaAXtSS5G1uxyNkv9widS8zCpsX1+MipLO4QoM9tZpr1nJxAoLyh2GnofL7EAFB/PO2lGBWOODwrEVMZ2FaWun13nCc8d1tW/bdRyrBe6EpOH+mH1xNCpLmvD2g9m6pxs39zZEJ3qjT38fpG+u1a5AdMJBOmkbarD4tRK9Pv38UO0+pN6qDYff9j310L4///Wimls423OcO+zzvLm5GTt27caib5biq8PcFi9djuWr1mLVmvWHva1dvwmbt27DlsPcNqdul/DuwZ70jANuGXv3YW9mlmyZumXs4z4b+fkFKCgoPOytuLgEFRWVqKyskky4Dv36JmDK5AnIzM7BAlEESkpLtetNowjdXIE1OMxb4/xwoLIXHReAUy7shwt/NBjn3TRI+/TG9Q/CaVf0V7NzbkjW+bn1HbsoaFkoRMb7as0tw2PoZUg64LScLPBDo3y0pcgZKpt5+2rxzYe5ePWhHfjy7UytITxSOLiTCwZxKsn3nknDTioCWkC4ISxa7u/noetOMH0beh4UCt3c2tCnrz/Y5fBQoTCoZUKbO6afHo8LfjgY5/9gEGaeES/lk5idaZmdd+MgTJwbK2mCdrUQ2Q9WPLBm2svHXWec4WQUhoPj6emBMSMH46c3XSpl22489txbKJcyxhUsu9kFi2N2AkPtygGry5+np7vm/famacFRRrAm//1n9uCRuzc4tvV4+4ldyBXzivJ6fPjiHqz8gjPKtWHUtD748Z/G4O7HpmDSnFhtZeQ4Umf4vgNYOSH+M59ykSwMxxm3mpqaNvZbbmxs1C0+Pl4vLN9TgVrJ9OcN71lrBazKWoLPdn+ASQkzcNrgcx2mxw4KSff/dCN2ri/Xc86gY9VgcO/4etrc0CfRDz97IAUbF5fgg6cy0dIkNuQy7fPf3c2dOzXkHzPLm/+SrH0m3/x3Ji67sx8SBgVgwVM5WPFBqX6wPn7uOPXaPhg9OxQv/zkLWTtYe2LdMzTKC2f+sI+OFVjzcTlydjdgzuURclyB9Z9XwcPLCp9l2zrWI+5b3ZCY4oOTrwlF9o5GLHmtUoQGxzW11tm+m0cLPAdtgUdslj6rM5xZijPssOtS93T45QwVixarxLAMukHvbQVIoVLS0NDoZHIA6NZx3ybeq5v+lFb/+P3DzbinsM0wHl7GxalcOdNWh6M2Oa+prdEM8tR5czBpzBQsfCVXZ2E457r+GDCCs2Q4LDvYsKQAH7+4D5PnxUjct2HJgjycd8MAXVTshX/uQJMIfxffOgh9BwfpFKIP/3ajFhSX/WywzvzDAv/fd6yHu+S/N/w2RVfufPnBbVj/VTF++s8x6Dc4WOy74YPn9mDh69m4638TER7ni4xiyQOcwn4osAzx0Db/7unuCp/Xi/3QXbzJrvFhw94svFdWZQYWZXyC6MB4nDXofE1HnJXmxRdfRElJCa697jqEBFuD1Bg0htHx9e2PC2MpKx1Tbe5vwYUT6z5ysbv0bpl079JL5Hdx2j0ubsY0lratEk/9eSsmnxIjQtjATmmVC4it/qIAr/5nJ5qaWuAX4IWZZ8Xh1EsTtWDmYlE2TO/pWyvw0XN7dWDneTcNQHB4h4LKx9m+rgQfPb8XVZVN2iIVI8Ik7zl0bDh2bynDW4+lYcjYUJx6SaLW9roIdrefu8gH8g7tC84u+cV3TyMddYOa8qdLAPj9NdNNdwHrxisaNUuY2oPVCTcsX74M77zzNu66+26EhYapKe3yOSoayvHxnnfh6eaFS0ZcK2bdS7sqrMlraOkmk+n2toJ9j26cdAutxcj73iF5ypsP78HP/jYKA0eGancxZ6i83X/7OhXMfyZ5xO+vWYlBo0Lws7+PwZKPcvDo3am449+jdEIB5nHbVpfgwV9tErujddA5FcTVX+bjlQd24apfDtb+4xyD8Ng9GzFa3Fx+22Dsy8rFti15+PKtLPQbGqTTlH5X8LXr+Bf9pokbFi9fr+bjRw1FYGAPn01M33srMrML8NWytRg8oB9uuvo8xPWJdFjooKKsAe8/u1unDr7prpFSHrTgxftT0W9ICG78zchOM3+lrinGiw9Y16acHKvriOzeSlnHSmDu8vFXVdSjuKBGy5iTL+iHorx67QZ44c2DdZzR03/frNMPc9xAysQodWfzysPbsOarPFx9RwrGTI92iv/vN5vy1uDtra9jdOxEXJhyqcP0+OBSCcgtb9BMsG+4b7f55vHieCgB/3frRuxa71gzQT4K/dNI4V4O5HuJlkLxtgdTsGFxMT58MlO0ZbWq1y37DruWK83Eb/prsk7T9tTdaYiI9cElP09EeIw3vni5EGs+K0VYH29c/ft+qKtsxbO/26d98ihlhEd7Yd7VURgwOkAE/kosf7cU8YN8cco1UVgtCsG6haIEiJBn31v/7WMignziCB/MuzZMlYBvXq1AC7vsid+2fQ2lI7xURmZd6Y/hJ3nbPrSjWYU8zKEWSjatUtp0jGU4dCiYHzoMLQva/e/FM/avbGzkgKWuT8VHarXi+7CwlAAW7nom+/R9mVi6fCVioqMx/5S58PMOwYfPZqAgqwZnXzdA53DvevuDKQE11S0465okxPcP0Gn3OJ0fC7hzxQ4FfvbjfPzeLfDxd3epBHAw4LtP7sZX7+bg7scnSvrzQ5kId11rcwjzgfqmNkkPDoNOuKng2xV60ygSjqso1O7pXdzRTbM4EHmiG6z7s1AqqM7BqpzFCPeLwqx+p1lTvUqa/uSTT1BZVanTNgYEWFPVaYoWd92FvUmEQt7PSsSdoWDcjRPtVsW4oJOu13lufWf70yhCFuNxP8QyC8b93IhVvos6Cq5OznjoKZHXL9QL4TXNogSkijAVKwrlAEl7lh1iKwEfv7QXg0U45+q+W1aWYOKcGPTp64elC3IdNi3YSlBZ1qiDi1nA2zNW2bDmlsrnvIsTNczffJiDpKHBuPAHg0TIaMJbj+7RweZjzojDXhE6iiVsXZ/Jh7WP3Wg7DLf9zTjjLnZ9RPDYL26EbgVnMfIW+cZbHHZztVP8ENrR8TYqHFpm7chFvq7u1BAv0fZSN23A5wsX4ke3/BhBjmm1eX++s5qmKny97zNJ4x44PfliudKiih7fWyfa79EZ+uMlaUIV5a5OHG64EM1+8SvhoiLa1Y2/jwc2LcrHaw/uxi33jRRlLUxrgZ05qBJw11bcfO9wjJgQofnizk2lePov23DD3cMxfFy4rna/cXkh3n8qo1sl4IJb+mHB58uwZu1O7a/OltDI2O92Wk4dAO+IHO4LCks0LYeHhqiA2xtobGxGVk4+wsNDcMt1F2Hy2BHtz2RTKbLbhy/swfolhbjuV9b0k1QCkkTQv6GrErC2GC/9OxWJcu3iHwzW1gOWKTalhXVY8HIa1izKw/TTEzDjtHh8+sZeZKdVadnF97h5RQG8fT1F0B+hg4ht2Brxwv1bsHlVsa4uPGpK1H5h/b7SK5SAt9cVokKEgutnxHabCR8vjo8SsMGpJYA/LLQdGTR/Wq2WgNtFCVjPloAn9zlaAix7+u9oCbA/AlZA3/y3QaoEPHnXHi2g2D3jyt/00+bS5/+QgaSUQJz9wzh89VoRvnm7SAoqD/lI3TFqVjBOu7EP1i8sx+LXS+VebRgwyh/zqAQsqBDzCh3UZd/LOaz8Y0HSb4RvuxLwtSgBbAlQYa49zA63svfxc8Pca4Mx6mRLsOpKdwV4T4dhZqtCXX2jPuPRhi0PO3buxuJvliEiMhzz581BWGgouEbAR89laL/qs65N0pq1rvd3qQQMD1ElYOuqIq3Z5aIsjPqy4lp9Z0GhPlq4U+Hh7BuDR4fgpt+lIKIbJYCSx/P/3IrNy0vx+6cnISzatxtxp4MDveKjHnsH8TCjbAfe3/km4oKScHnKdSIQtojw44FHHnlYCvYC3Paz2xAW1qUFszs/+UxHGHj9Rg4DCpOORb335wBhc+WE6TdzVzWe/OMWjD0pChf9cLD9ySq2ErDgxb1IGhaoAwP37azS2tfYpEC5lu+wacEpG9k6xQHk0QkB+wmJNZWN4kcTZp0dr7W+yz/Jw/CJETj/5oG6YvG7T6br2gNciC4oxKvbcLuMMRcPqVFwmN9md0L7QdEbWYftHMAbKohffPEFnnvuGTzwwEOIjOxcG8t1LF7a/KQoPD746cRfiYIqkvVRChZx5ZWrqKLx2sWFeO5v23HpT5MxZX6sY4rQDlwpAT/92xhRGHPwn19vQkQfTmTAxaJEGG1oRllRLcIi/S0zyXPqJM3x2tW/HCJKQGwnJeDqXw7TVsstK4u1dWra/DicJ2mHE2B8J1Cp8uI6AR3p+qW3Ptb9GSdPR3hYx/SWPZWa2jp8tHApVm/YiisuOA1TJ4zSFtCu30i1fKsfi+C++IMszRc4h/9z/9qq3UjPv5Eyh+PdizOuBvzRi+nyrsNxsdjlIoAcu2HDaWI/ez1dxx+dejFne3LHW4/vwoqFuSqz8NZMM8PHh+PSnwzBoJEd+S7znKf+sglZojBwCtHh4yMO+3s+UelJSkDnnN4JfprczCuTeJCcreNPDaxjjSSHqe4taG6ZcjpQR82w47rtVwdyZl1GUXY9nv19Bt55OFvncB81O0QXB9uytFw/HhHftRl/24oqvPa3bHzxUjEa6q0hn23yonTv/EdP2814YJtbdi0sV5Yt7iw7aklPLXPrrHs0bL1wk5/9zI7Gxu5HazdsxKefL0L//ok47+wzpJCxFsehkMWpOdl/mgOEDxixzohbduPgKq3TTo/H8EnhGDwmBEPGhmDKKXGYfGqsmHH14RAMHReKaXI+++wEUQys1puu33FzU4sIbw3WzEE+VqHAWnZXG7vhuNpYk31Ut27u77xZDyQRJ/t2c3HH74N1wPv5x83JvbObbs0PYZP/w9rUjdyv243Xum4O8673dd5YgcDPtDSvHo313beQcSraFQvzkLu3DufemKzTOM69oC9+++jE9u2uxybi2l8Nx4DhYRg1tY8Kfs7XuV1+2xBExfpi8XtZ+PqDHCSPCsXpVyahjygMXJiotqpJKyjYzcxVuDs9n/PWNT4cG9+PXD6srbv7HnTjvbozc7XJdaY1t7ZWOe7mnhLv7H+vdmyzrn4cwubq2+r6/dnbfuFwbAxDcJiX2AHyMmsOWfCWR9P8iQt7cYpiLjBm5zkjp0Ri1jliNk3M5Hyw5Dmjp0fipHPi1b66d9J6GWPsF15RzIUp3bW7mZcnp6jlrGfHfqPw7+PtBX8/3/bNXjzM18enk3lP2/x8OcNPE1555zOs27wDt/3gcsycMlZbL/huu8La/MhYf7lGIb5B0wDHCK34PBu/vepr/PKSRdZ28SI88rt1OuMXlbjln+XgyT9vwqYVhY7ugux14IdLbhmGq3+eojM7cTGwq24fjr+/Ngt/f3Um/v7KTPzz9Zn46V/G6qrEzrCMq65sQnS8v84U1F1YDcefAyoBBhuJDZWcLQGZcdOuGFgnamZlmmpgXeex/lt/lj2HmeOaosfWSUVJI/ZurUZUX2/ED/RD5s5alOSxywqty5/YY23yno011tSO6swytz4x65j+2fY7Nl523Ivn+kcXPHXY4Rmvt+/1onVuOCQqyit0cPDUKRMwf95cycQ7mr05WIrzqnt6s69lU6fxA65g8ztn92Dt7uR5fXDtr4fhh38YiR84tituH6zdg06/QjYRzFjrdvMfRmDSKTE6Y0NWWrUuEsb3a1NX04LK0gb0GxaotTuG3gULVK4SHNbHBzVVzY5C2xnJDcQOB29yrvCr7hiKeRf11Vpb+9Puutnjfey8ouvGsQWV5Y0YMTFCxwNoi5LAtOUueiQHujvXIhp6DlyU0DfIHcU5tZ26exyIGilnOKc/pxK+/rfD2/Obm38/EjfePQLnXNeR53Adih+I+cU/GSTp0h2ZkudwatEWp659nICgpKheu5f2Gxrc6Zqhe/jdVVTW4JGnX8fefbn43R03YGhykuNq9/Ab5MQQ7NqXlV6li1JedutQXP7TYSLQD8XFTtslPx6GK+8Yjsknx2iXweULc/DP21fj8fs2YM/WUk0rOXur8cVbGdiyqkgCBK1YiksMREL/IMQ7tmB2IezS148KZ0lBLaIS/HQmPEPPxGWOfcHYKFw3LcZxZrALQv6ooOwwtM/azYhloJua89925zjWAwftRzSXcph1+1UVzVj5UTHWfVEqF2gif2rRss1alvY/Gjk8cewcZtZ128C262Rqodf0oOM6D2iqe+vQcGhERkbglLknYdrkSVrb5Axr8jhHv4+vJ/L21h5klVXrPdTXNOP5f+zAR8+nW9OwOV4LNyqCL/7fdvz+2pX43ZUrcc9VK/H+c+laA7Pmy3z87Za1uOfqFVj+SQGa6h21lvLV791ZibLiRhEQOT5g/yZlQ8/HR4St6Dg/KWjrUJxb5zC1oGI3MCUYl9w6ULuETZjTR977kQvoTB7ubh46puCc6wdY6xIIHITOVYs9JJmHRlEJ6B19q79v+Ad66iDOvbtqUM7aeB1Y4BrmOxuXFOKP161CaX5de37DjZUSuzeX4deXLMPvJL/5//bOA7Cr6vrjJyQhgwQIgTDC3nuDoAgiKO6tuPdsa1tb/7Wts63WWqt1W/ce4AQHAg4UZe+990pCEgjZJOF/P+f9XvIj5gdhSYDzTd7vvTvevffdce459557LzTn37fP0vMBMlML5Lm/zpcHrpksL9y/QHKyipTm0K8hLK5ZvENq1o6URD0k0bA3kHWM+Hfu0Fru/7+bpEFSYsAlNKDlderFOCG9lqS4MkE9qN/QxnLJrRz65gSBoGv4bR3l7CvbSM8TG8r5N7STe57vL31Oqi+TvtokD942WV57ZJ78+OV6GTtijS4iTtmULS8/PFduGjJGbjjJu64b+IX854/T9ITiYKxYkOkEv126NakJAVUXIXuFL+eny4jpqQHTsQ0lfv4ftNP9eEx92TM+PKiv0j91545L0DM0uPwbnsE9lYhs3VAgY99KkRVzOFTFUYLAuxqV7xuD84zSkeeGWZ8Cf56f8s9qUL9q6f3hplb+HS9q0ruh8oAI+1dFYEvPhs1ryKa1OyRlPac0BhzKAesOPT0963qNoiU/t0SZLmYE/ItzADiNsW7DKBl0XiOp2yBKVTPYwSUro1BnGvoMrucYtxZy6e9bS1LjGC3fuT+6tu0EyY69Ex0DV3E6DVUbUbGcCFxLD19C/5rReB8wedu2Fsiy2dtkw8psXaR3IGjZsbbceF8nPbEaAcCv25x+zZqAhk3jpW79Kr7DyjEMBh86HZeohzatXbLdm0UOAVS6Lr29ra7x4GwB1ovsRnPyixzN8QSJvkPqSqe+taXQ2UN3GE3m3qh5rJxzfXM5/6aWMvCcZCc4lOhsJoJCY1d/WHxuqBziasTI+WecJLVreYJ3ZcAOXW061Vad/oXT01x79QSKPV2oEbXvkSi3/a2H/OE/vaVNl9oyYdQ6+eTVZbJuxXZZvzJLD/5C0IuIDNeNALqdUE8ZfM4T4IRiHxlpebJkdrquD2rSKl6imYE0VEmEFAIKXKeRV8lpw6MdyqMpZ+wzxZ6t9xd45gEv3LjjV/17Fj4jXcpYez7VTu9BfnjW2XxXOupP3/Hs9c8zqJ3+eg9lCJh3i1//yp4VLg7CKgvPM+if3rEOmHk2HBSw+ApVCk5ZXbMkSwqC9Lkpc28XC2dwmc6i3uNOaaiLu34as1keuW2m/OXSyaUXo3ALp2Y69xoy9IKmqgs6+avN8o8bp8mnr6ySgpxi6T+skVxwSxvXGTeW2LhISduYI4tmZkjztvFS3wkFGpfhiANrApq0ipPqMdVcR5+hI60+ih3tTt+cLzN/SJP3n1kmo15bpczc/oIdRZj250AhXwCACVw+N1MyUvOdMOIYu7rG2FVldOmXqCe4sg0k+tqlcMXpzQYGzA79hzXUrT+3Z+bLY7+fvRvNufuyyfLqQ4sdY1dd+p/WyDGCSap7zpah//7tLN1XvnGrWk4AaCNnXt1SmrapqTMC7E7FbBTCRbipjR1ScGJzSycERMeHy+yfUnWXn8qAth0dEyl9TmokN93dTQafy4nCnirX1pQ8XWOEQNm5bz259s6u8rt/9pEeJzRQoSCYR2DWYO3yLCcg1tV1Q6EGxAyHHyFbIoxhRdsFHpsIjLTzWMokBz3zGLiCfhQ+M63+Avmp98Azjp6fwJ9vH3jmInb8q4vvV/1x11999pw9N8/km/VB/XmPnp3aK8rMaqV37Dz/3o/hYIHtF1t3qSX1m9aQBdPS9RRgwG4KU8Zt1mtbRoF2zoCFxL1PTpJ+pzaQLv0ZeatTdh1XR/qf3lB6n5Qk8YmR6q//qQ21w8du8AXJktzSOzWSGSbww+cbHTHfqTvFoL5hBPrIBDOEdRpE65aPa5dlyZJZqA7uDvSDWTQ87v01MsIJA+wABCjyiq59AfV18cxMJyBUk6ZOoAzeetBQ9dCoWbxjwOvIinlZsmxOhu7yBOZPTpPPXluhszp+n8AiXkZ6Tz6/8c9oTmd39Tixngw6h52makiLDrXcc7ITBhKlq6M7A89Ilr5DkjQcaA6zkYQ91zGjTdvGSfvuCdanHGLAqDdtVVP6DW4k65bvkB+/2lCp9WfB2LQ2R5YvyJKinWHSpHVN6Xpcki4M9rgC//o5MtPyZPqELY4ehLt36tmsTxVHSCGge5M4Ob6lt/DrWIfHIPtMceC+2+UonbsHfOuj+1X78n5LAna+gMUvfhlVK/XHc8CsfgL+d3MPPLsfvbxn9e6FGbDzrP1n7/JsPI6wvF2wv+DL/ah/w8FBcos46eo6V9SBZk1MU4aKkdzZP6Trtp3o3cJUQcxZP3DKxU3lxns6yU33ueve3a9b7u/sOuHGUjsxWoZe1FQX7d10b2fnt7Nc8Yf20sAJG4RDOTJFO3lsirTuXFM696ursw6GIxfsstJ7UH3d0vPHLzdpPSqFa7K1EqJ0l6jeg5PkpzGbZPRrq/RgnxnfpcjUr7e4y92/SZGFM9J1oXhlgTrJnB/TZP2KbOl+Qn1p1qam1jFD1QaqhZwwzRbEzOCAJTO3y/iR7EhXpLsI+dJgq0615SZHW8rTG+gK15V3OtrSOM7RktpyPbQpQHOu/WtH6X0ya1A8mrN9a4F8P2qjM4fLCac1lJg40w//JRDv2n7PgQ10LciPX26UJXO27nUtSDBatKslV/y+gzz4xgB5dMRJcsVvO0pSsncS/eJZW+WtJxbIs/fOkLmTU1TdkGrDrPY3n6x1/UyGDDyzqbTqmPCzBcOGqoWQpWPqQBUBhpibu+uf96xQe+9RH/DjeXD3wKX2OHnuPKP+wbaR7BaDjjYbdERUZwTPW8CJP3Q0cffX9TE9F8GJwM7sgpAwx8hpQ9PFwoBf4vSeA1G5H9y9v2Co74Cn4HSqm282HFRQXozWt+pUS6Y7hmzuT1slISlKrvhjG3nwnf5y3yvH6cg/epqA4mFf5lAX7qH8efauM04vkE9eXKmqIqdf0cy2bTsKEOHqETr6vQYlyepFWXoIWKn+vytamHUOZ9q0OscJidX14Lhls7fLG/9aKi/9baFeL96/UEa/skZSN+apahG7iuwRro6tX7FDZk5IlYS6UdKxTx2Jq22M3ZGAxi1ryqBzk2XL+lwZ+94aFRrPvKaZ/P2tfvLQuyfIjY6RZ6tXH+VpSfDlzywCnoPdtAtxNCcvp0hmTUyRmd+nSud+dXRWwfDLACEM4XzoBc2cwJcrn7663LXxHB1ErAxQ/evWr760715XasRX15nH6lERktQoTsLDw/WcksWzt0lxcZiuCcJt2jebZeIXG1w9i9PBCXYSMlRtlLX2cli8OVfmbPDUFI51eGyw+1NOy3vWuzNjFcwoq4vaeSb/rr/l/MHUN25dQ274exu57v420qAZW2mFy+V/bilX3dNKOvWvJXEJEXqA2GV3NZWO/WtKbK1wOevmRnLl3c2kx8m1pUbtajL0inpy6tVJElvTSQfE4V/8BaVDn9XNi78U2KmfwN3/C5j1fc+n4SACPf8TzmgocfGR8u0n62XJrEyJiY10xDcqcGiLEwAOAo9OObKt7AfPLZc1S3fI0Eua6l7e5Q+EMhyZgAHvO6SBJDWO1dNdF83I8BgxB5i8eVPSdJeOi25rK8MuayZdT0iUq/6vjdxwTwd3tdfrxnu9bWWHXtzECYehO27q0taUXPnO1VfU2DituHm7soXChqqPQec11n3+fxqzRSZ9tVnYGACak1AvWmcfD0ZZUk84hXrhtHT54s010qhFDTn10ma2e9QvDLYEZs0GB30tn7dNPn1tuer278uMQDAQDC67vb38692B8sh7g/R6dMQgueGvXSVza558/tZK5ytMThveUpq0qqmCg6FqIyQXAB3wzrg1OIoWYIg94haw4rf0T/14VgEb9+f78R34VX88e7/hkWGO0Y+UuFoREumekd7j60Q45j5comJd8bgiiK3l3GtG6igdo/81nN9Yd6GLy44gsU5wiI7z3IAXgws9EFdpOvSXH99NDd6l/56N/xzsw/81HFx06J0oJ7lOOT+nRL58a43rNLfq6K1fzw4UhMM+8h8+v1xmTkhzzGJ9GXR2su4xbzg6AM2AyWLPdnS5v3hztaxevF0HGdiVgx0/OOwLQQEmD/WwPkMbSr9hjXa7ep1UXxo1i9PwKgJ1idmkbz5cr4s8ew6qryO7evaA4YhBjCuvi3/VWpq1qymjX1utgkBhQbGW78GgO4TB7mTzp6bLB8+t0M0IzruhpSQ1qvjEecOhBTr5g85uIie4Nj5l/CYZ8dxi2bRmh84Y7mt5QxsY8Y+Nq66zA2w9yxq3OT+lyMjnl0rWtgI597rWTsisZ2pARwhCllJt11kkugI2eOyvNhWIpHdTG/8e+Pfs+MVB/Zb5KfXLL27uYrRu3ZJsefoPC+W5uxbL+hU5siOzUF68e5m8+OdlMuvbdNmRUSiv3rdcXrl/hcyekOHMO+WDJ9bKy/eskMlj0l2nvFM+f2mzfP7iZsnZVqRxajyB+NXIU+Du/ftu+qtu3hPPvpv+e2bvZcMhAOocfYfWl1Mubqxl/9GLrpwnpuo0evC6kH2FV79KdEHe+08ukUljNkv3AYly/o2tvFOEbeT2qAIjrO16JsjZ17ZQVY9PX16lGwpcdkdbPTyuU9/E3Zl7bdwVXBXAq0vegXVfvrNGd59q1722Lgytk2T7vR+JYBexa/7UXpKb15D3nlwmX761Ws8sQa3nwGiON+s4acwmefuxJarKetGtraRTH1MDOlyA1nNg2DnXtpa+QxrK1G82yyv/mifzpqbqLlH+esTKAr9cCBFsQfrF2yvlzccX6PawHEDGCfYxtknAEYOQQkDPpvFyfKtaAdMxDu0gYY3dQ+DuNRru+qv2Hry7/+v9BZ7U0vcHaEiOaO5gj+UiXb1Pg8zLLlZCWrTTvYM5p1jynV1RoSe5s1987o5i2VngKLb7L8xz7u7yQ/bS5D24EPUdbDz7gC+9eUyB59f9+y/qTS1wMRxisPD3xLOS5fybWukagBHPLpfPXl+lO74gDFAvKBuvHEPD98OuH4zYThm3Rf5333yZNzldTjovWS77XXtJcEybTdEenaDj7T24gZ7mS/l/9c5aXWzOdoE+7dgX4F3pkauDy+ZmyLtPLJFp47fo3uBn64FhtnHEkQy2fL3xvk7SsXeCjH1/nbz4wHxZPDPdCQM7S0eJ91ZlfJpTXEyfVCSrFm2TEU8v0cGMhs1qyNV/6iA9BtYP+DYcLiAI1G8cJ5f+uoOcf0Mb3ZDif3+bK+89vUgP9UIAZDbIFwiCy77M7DH++XlFkrY5V6Z8vVGef2C2fPbWSmncMl5uvqebDDitscTWsPVBRxJCCgHjF2XIJ3O2BkzHNlz19/5co+DOA+0DMza+2deeorFg77sHN6Lgy3vJuzkbzx6T3rkF37HXf3VXP+5itM9zCzh6Hjz3gF/9w13vahUABsyeH3UP/PGvZv99z8JwiBDpmH/UNS79bVtp2b6mjty/+s+F8vXIdbLOCQNZmYU6xQ6D7wsFAKKN+hAEnEN6MlLyddeWNx5ZJO89uVTfOfeGlnLBzW2kVmKUzQAc5YipESH9hzWQ4be3kZi4CPnstdXy7n+XyCKYO1eH/I5+T6BuUacY2du0Olu+/Xi9vP3YUlm3PFsGnpss51zfUhlIw5EP9nC/+b4uMvSixrJ5bZ787/75MvLZJbJsXqYKktSBna7OBKuOcIfphxZBX/C3enGWfP7WKj0leO5PGdJncH257i8dpX3POvqOoWqAk4TPvLyV3HxvN2nZoZb88OVGeeLP0+WdpxbKjO+3yMbVO3R0H6GAc0W4OIxye0aBbN2SpwLD1x+ucQLEbHn5n/Oc/2w57dKWeqYAW4j6G1kYjhyE33333Q+gNlBcDHNRLDVreqM7izfnSGHRLunZrGoR+41Z62RlxlJJrtlUWie2D9geOkD3fvh8vZ6K6bFP7tfno0r5qTA9hOWEMxtJyrpcWTI7U3dgKXMPPAZ+4MMI97hTk6RaRDWZPi7VW7Hv+//ZPfDgbmVW/pN7dqJcnQZR0qZHvKxflicbV+SWjfb677gfJeGYnf/ERtWldfcasj1tp6yel6szEmWeg+DM7ETUqmesNGx1dO33W+Tqe1FRcZVhjElHnaQY6dArQQ9e2rSWvbW3KlPPwSu6jWjWTmXkEATogDkVdsOqHbJq4XaZPD5Fxr2/Vg8VYx1Ar5OS5JJftZEux9VVIeNoQWb+VlmavlDioxKka1IPFVA5hGja1KmSk5Mj/fr1l5iYY/f0WhZ8128cK6271Na6wkFis75P032/2XrW2xY2zNX9EjVTl6BX+KVOMRK8Zul2FURR/1k4NV3qJcfKude1lBNOb6SL1o9l0E5XrVopc+bMltNOP0NiY2sEXDzkF+XKvNSZUi0sQo5LHlDlB1CgDe17JUrLTvE6c8Thg1PGbpGlc7fpIVPMSnPYF6pCOwtL3HOh9nOrHOM/f+pWGTdyvYwbsVbWLsmWxi1r6OnkLAKuWbvq1BNIfEREhESEl9HB2QuW6r1d6+auDI8dtTaPPtSQrv2TJLl5nKSn5MniGRky5etNMvWbTTJ3Uqosn58h61ZkycqFmTL7xxSZMHqdjHfM/9cfrpV5U7ZqhvYZ3EAuua29nDAsWWrVKTtE0LB3pGRvksWpC6VBfLJ0TOocsD08CHOd5q6dOx1jUVioV3JysjqMmpMmWfnFcmW/Bj/jCw8npq6fKGOXj5a+jQfIaW3PDdgeOtBBPnjzZJ0mhZZ7Fd1j5N2vNgbs2Yv3zqd6yfb0Qhnz9hpHEHc44lmsnSyX9gPOb5jjwAkBgnr7fzorAX7m/xY4P4QX8MNf4O79l931jzjVK5Zh3uFT3eLljOsbyaTPtsq0r9IDJ0Diz/OPPjCdf1RMuNROipSO/eOlx+BasnDSDvnu3XRH3HepP30j6D2eomLDZdgNidLz1KNn+p/RrPyCQsnPLwx8b9UCo7WMsC2aka6LMFct3KaMvZSESUQUi7PCtUwZjSvM99TIIiJF6rt6yJaNvQYmSYNmNfSwqKr4fQeClZmLZdTSkdIovoVc0fk6Kd5VrFvWPf3Uk5KamiK/+/0dkpBgI5AMNBTkeSoaLP5cOnu7zhbVqBkh9RrF6EFjDZrE6rH/MHfo/Kdtypetm/MkI6VA6UWDprF66FxPV5/Q/zdVMo8+jh8/Tl5/7RV54smnpW7degEXD5l5afLW/BclIixKbu97l9bPIwWM+q9esl0PLFy5MMvVhVzXV1VztIZTo8N1sSe0BmGxqFBcHSmRWonV9XRaDhBj5J+FwFUNkMDo6CiJql6WtlffG62N5Jxhg6RuYu2A7bEFBh9zc4pkw6osWTgjTVbMz9StgrOd0Kd8SwAIDgl1q0uTNvHSoWddadc9URIdPcD+aOtffgnM3TxdPlowQro17CMXdh4esD08CCkEpDppv9hVkAZOmq9KRXx4hIBJyowFWGQlKP5d7dw/K+Uvv6OddyS6Y8A5Rn3xrAxZMn2bbFqVLTnbi6TI8XB0zAgEKgQ81tUJAWHy7J2eEECAfngeA66mIHvP7Lt5To65jwiTNioEJMtPCAFjnBDgiDVMItu/RUWHS0JSdWnaPkZadY+Thq2iVRjITCmUaV9ul3kTsjRdwXG5GwYNPyqmmpx2Y10TAg4TGKFlinbz2hxZv2yHbHOCZqFj/iHgLCymc27cKk5PBmbbUZi6qv5NBwITAvYNtG2Yu83rcvRU4WVzM2WrY/azlSZBjLzGXy3Q1mvXqy4tOtSUjr0SdQcZXUhuzH8paFtHqxDgA0YflRBUQFYv3C4p6/OkwNWhkmIOhfL6FLYVbdOlttRLjlFVw3C2HHZVqSoCcmhCwJ5Bn8igEgMFeblOyNNd6hD0RKpXD9edgDjoDf7GcGA4IoSAbxZnSI5r9Od0353AHW4cTiFAG4QyVx6TDLPs/Xt3ts5q2jpeOvdLlNZda+u+3VFR4bI9s1CWzczU6dWUdU7K3lYk+dlF8qtHujghoJo84wsBhOwCDg7XZ+b8GYRSe/7w6y5G7JgJOPOGRjLp860y65ttElc7Qjvzxq1jpGVXx/i3jNEDyIh7y5oCWTUvR9YuzJMd6TCTGgH/BK9haix690aAhjkhoJcJAYcVWj7uop/194HHrLu+uO/x7Y52mBCw/6C+oAaEekf2tgJX/x1j5wQBVASZNWIUF6Y/yt/do4oydYcT0IujXQgIhh5S6eoNfRTVwT1qfYHsFB8hn0a9NyHAUFVQlYSAkCJdZm6RpDlG1aB0QplGUKJ3b2Gm6nrqv3dnxHbFgm3y8Ysr5dm/zJVX/r5Qj0vP2b5TegxKkqvvai/X39NeTr+qqXQ8ro6OxuurhBUIv3y4vr172N3e/1N370IYqNcoSnoNTZCzbmokF/+hsQy+LEnqJkfJusU5Mv7tFHnvkfXy8VObZNbX2yQzZaeO+HgxEJb71csLrzRNAR+GwwuKA0YfoU07YrWkcz52BADDgYE6xEhezYTq0qhFvLTsUFtad0mQVp0SpGmbWrp1pO77T5O3Zm9wgLaUDlJ5N6VBR4oAYDAYQiOkEFAd/fG9HR9/zMDrEX3m2BME3JO7wSD7d31wWcbaI3QmOaHv4xdWyjN/miuvPrhQfvx8k+re9h6SJNfe3V6atK6hTLgHP3yC0VCx0nt5s/5jF7DnTppi4sOl7xmJMuyaBlK/ebRsWpknXzvG/52H18iHT2yQGWMzJX0Te0GzkNJFFOa9q6Fy09A0+CB7d/cs3I/BYDAYDAaD4WhASCGged1oaVvfTvgDymwrDxx8V854N3v36370t9Qefbr8/CJZOnubfPjcSnnyj/Pk5QcWyk9fbJJ1y3bIptU5ThDwdO+8cPRB7154avszcymwd0x93o4i3RVo2awsGff2Znnj76vk/UfXyuQvtkra+gJVayodOi4Ny7uX/5bAf6mZP4PBYDAYDAbD0YPQMwEsOIy0mQAf5Znl8uZgex70L8gdc1jYLj1oA4HgIycQPP/XBTL6ldXKoHv+/XD0Qe/88R9s3v0uuoB746o8ee/RNY7xXyOTRm+V1HX53qI/3tMf/x3MZfcye//u2wf5UzeDwWAwGAwGw9GCkELA3PXZMmXVjoDp2IbHFHtsMAyx2mCl9zJzsD0P6hJw9930WdVwRA/hyPPXXaj/Mj/8eda+fZnZvwfbc5hLblaR7CzAjMCBbZkf9VX6TsDN3YPtg909c+BuMBgMBoPBYDiqEFIICGd7SdsWzoPHH7vLY4i9u88s61OpWW30n5+AC/eAm97V3nPzfAaeffsgP561b7/7PfAfMPMcsA88e4++rdrg2XsOuHnmMnvPwXP3zFh5dgaDwWAwGAyGowMhhYCk+OqSXLt6wHRsw2OPlSUOMMTBjLGzd8++mZv6DNzVzXNRt4CruwXc1FFdy+z58+31gUfP3vsPvutv4O7+/HdK3fX1Uvvd/fp+fm6vLr67ZzyqwbZ/5S+DwWA4lDgcdEfp+lFOzw0GQ+UQUgjo2DBWujeJC5iOZXgU02OslUX2nnEJ2KtTqX3ATu/qy7MvtQv4cX/+3bPiHrAt9esMeteHUnvv37P3zP69zI++EzDj7vvx3DWwgBlv3H0zv8ELlQPuGI9CsCh727ZMmTJlskydOmW3a/bs2bJlyxbJy8uTlStX6h70+4u8vFzZunWr5Obm6nkcq1evkg0b1mt+H2oUFe2U9evXCeeBHIr4drrwV6xYIRvWr/9FmJiqgqysLL2oQ+WxY8cOV6+2ad6npqZKSkqKpLqLe1paqtaD8iguLpbt27erH+pKQUFBwOXnIE7c96U8CZ90VZRmzNnZ2epGfSd+P81c6elbJT8//2fxUZe3ZWZq28jIyHDmitOEXVmeoAJZ5of4iJf0BYO8yMzMUHve573gvAy+sCN9RwrIiyVLFv+M5kydMkXWrFmt37J27VrZuHGD5vH+gDIlv3YEynvzpk0uziWaj4e6mVJmma5ebN2aFrA5uOB7KHPo6KEod8KeMWOG3oPrJXV13rx52lb21vbS09O1/yjf1g4GCJO2NGvWrD1+P2mkHVHutOmDBeJfs2aN61fWB9pzGWjLS5cuVXqwL9+OX95bt87rqwy/DMLvvvvuB8h8KjpXzZregVBjF6bLws25ThCIV3NVwcasdbIyY6kk12wqrRPbB2wPHWhE341aI2mbvE47jC12AgTUZ3i8m2cPWfDsGdXx7ANG/nHkt8yPGryfMn8V2PNU+uA57W72LANv6nOwOdivf9fHwI/n7N3L7N3N3cMjw6RtrxqS3DrGszxKUOTqe15evna+11xzlSyYv0B++ulHmfjDD/KDu+bPmyu1a9WSqKgoefqpJ7QD6Nmzl9YJzSf3U5qvQfDtg90WL14kkyZNkpiYaHfFyEcffagdROfOnaWa7tcaOjwfvpvvryKvFYWRnp4hTz31pEt7T6lRo4a6+x1YRf6DzTzrAXkh/OBGJ/PwPx9S4j1o0ElKzMuHeTCRmb9VlqYvlPioBOma1ENFVPJw2tSpkpOTI/369dc8PtSgrsybO09atGwp1avvPmv6xRefa/nWrp0gr736sixetFCZvoULF8iiRYvUrW7dRFcecVoWdJzz58+TadOmypw5s2WZ6wzp5OPi4vQKBv5xmz59ujRr1tx9e+XyGsFj1qyZLv6F0qRJE63XPrKytjtBeJIKpggXX331pcx2fknzggXztXOmnOPi4iU2NlbTAJMzd+4cl45pLh/mOEF5hTJH1DHyP7gO4P+77751TO5kSUys4/qZWqX1fp5rZ4sWzpeGjZJL0wRj8cknH8nMmTOlpctf4uSbP/xwpLbL+S5NUyZPculaom2LNNarl+TytK6+fyjBd61atVLL6bTTz3BpqxFw8ZBflCvzUme6thEhxyUP0PpZHuTb44/9R957912ZMX2GTJz4Q4DufC/Vwqu58mkqr7z8kqxYvlxatW4t8fFeP0zc3qXGUmD23QD5TR6+9dabEh4RIfXr15cJEybI11+Pk+P6HifVA/lcFl7oOuS7hfLn2we75eRku/L+TutPjx49XXo8ZpB0BfstM6txN3ffjw9Mvj2C0SeffCxffvmFdOjQURISEgJunt/ywD7C5UME+3cHMHvBUr23a93clWG0PvsYNWqU3HnnnUrL2rdvr/WP8KFxf/jDH6RXr16SlJSkdqHwySefaFuHxhP3wQRlO23aNLnjjjvk9NNPd3Sm4sPOyE+EmaeeekrpCN9yMACNePrpp2W5q59du3bdjZYwePbMM89ompo3b64HOVYGlOlf//pXJ/hulE6dOmmeVwS+Cewp76s6UrI3yeLUhdIgPlk6JnUO2B4ehJwJKHJttohtJQ0KKh6EjFFyaLqOjgcqo3fHrKbdDhQrtXcX72BQo+/mfj079+c5eM/l7fWuD3r3vAab3bP+B+z48+3Vouzu26qNb/YMelfXUnt1OKrBNzZq2FAee/xxefGll/V6yV3/fvQxOXnIUHVnZEJHJJ3/PMdMrVu3Xpa6Dm758mWSlpamRBl/dH6MTi1dutj5WatMKSM1c+fMUaaREfOiomIZOvQU6d+/vzJChM1I6vJlSzU8RlDKj64QN6OC+CNcmB9GYfzRYC4YyVWOEaPj3bRpkxJV4oLp+3HiRGWUNm/epLMChAcRTd+apsybP/ICo7d27Rp9hmnkW2CyGJ1ECCKe/PwCZYJgZJctWyIZ6Vvd+8TFTAOjnFkuzOV6P5pBXr322itaLsEjXti/8L/nlUnOyEiXZ599RplomFguOrnnnn1aXnzhBS1n6seoUZ/Kfx79t2Nw50mxKzP8vPIK9fBFZax9kP+8Q5k8/M8HXZn4Wwx79pQR4VG+5UFdY3R51KefaD0LBvXyi88/l9WrVrsyX61M0Pz580vTvHjxYnn+uWedcPOZ1mlGFT/88AN5/bVXZbGrb7lOmIZhfeF//5PR7l3ygDT5II0IAY8//h8Nm1Fi3514YFBzc3PUDNavXyvvvvO25iPufBtXlgt327btmj+vvvaaq3/LJNOlb7u7Ctx3B8dZlcG2zjCuV19zjbzw4otldOflV+Syy65Qpp82WVTs0RWeGZWGRixZskjbfn6+1x5p5xs3bFSas2LFcpc/Xt6uc2X9zdfjZaFr95RXj5495PwLLlCGDXdmCFY6/4S3YcMGjaN8/kFTVq9e6dp4utIcwscO+OmCnixx9XHVypU6w0FZb968Rb799mtZ4MoO+kJ5UY+hOdTRNY6uMLvkm6FX0Av/O5e5uHiPmSDCwz41LVVpE7SHNsd7fpp5RoDlXerJgUJpvQv3vffek6lTp2qbAthBc/32TvwIBswOLFy4UOs1brT9MWPGOEFxjranBQsWaJsAuOOXPAGkl5lm3iVevoHwqPfQWOy4eIbpps5DT0gH75Im6gB1YtWqVT/7fuLDnTB4phyIb+7cuRoeZUYYXLiRXuInzZs3b9ZvBOQB9AN7vhm/FeW1Hx95wAwEghDPfp6Sbt7n+0gDz9gB/JT/JtLi56OfFtJBneGOG3nih8G70ChoFm7kCWnHnvd5j3j5DmbKSC/2tAH8kmbypaJvOxoRciZg07YCJzWHSYeGu49yHG4clpmAT9dK6qYcxsk9S0e49BlJVP89e4xqcg+QUl9S1VvALeA1YOnfAiFU8Kzw7X1j4O47+/ddYQEC7swaiu8OSuPDPsjBPaspYOU54Sdg5X4idCYgTpLbHH0zAQUFhcpU//jjRLniiqskMTFRRzH9iw4TpnzK5MmS3LixtG7dWr7/4Xv59JNPZOq0qTLpp0na+SXVr68jHhMmfCeffPyxTJs+XQkQhCwiPEK+dp0xI6ZFO4ukZq2ayvRAjBglmjdvjmPMPlW7aVOnyCbXOTCqyUiKX4dgkJ584gmNc5HrQEgvKkyJdepo3KiYfP7ZaPnqqzE6mgyBjaoepe35ow8/lMmTJ2mnv9PFT9r7HtdXv+/lV16S/znGbeDAQVKrVi1lEMe6MI7r118+/vgjZQy90ek52kk3b97CdVKb5c933aXqBYxGUUlWuU69Vs1a0qt3b2VoP/vsM2nRopWOlh1sVJWZgKSkeu5bP5E6iXWlbdu2EhkZqfaUNfnyu9//XkpcHXvjjdflkUceVYbvpJNOlpNPHqIdz3//+7hcf/312kn+6+GH5Kabb5Ff/fo3cvzxJ8gJAwZIgwYNdHS4S9duWi99wOSNG/uV1pe27dpqXUFgmzFjusycOV2Zp5zsHK1nwSN0zFaUlBQ7pnChq5cF0rt3H61fdJ4TvvtOO/yzzzlHmYKNrkO84oor5eZbbtU0nzhwoBN6HWPmhIXWbdpoXf5x4g9y4UUXu2+4QQYNGiQDThyo30Vn2qJFC6nj6qZff7H/9ttvXB3coYxkcnIjHe0mz+a5DpnO+Pjjj9eZBmjum2++KZEuvXxbSsoW6dOnj47yn3TSSTJ48MnSxbWbzz//TO699z654sqr1O5Q1LWKwDcd6EwA+Ytw3qxZM+nVq7eOegbTHPpiBPfo6GhHI7o45n+ZE64+1XY/2dEiGNP4+Jo6wk+5f/zxh44W/aSzQxscg9zG0Snq4TfffK0MWKOGjTS+r8ePlwGubsGQfvzRR0ovprv3Kc+aLrzk5OTSGRq+E7rx4D/+7pioAi2/H77/XrY65r1Tp85aTgxsjBwxQmnR7NmzJCU1RRo1auTozwKlgwyQ5Lo2OdcxckWO0WLWDAH2Hw/+QwW6vsf1Uybv3XffVvrD+x854XKi+3ZmojZu2qh0ELr5/oj35LPRo0qZSuhZtqur3bt1V0EUGrrTMW7kafmZOarhvswEQO9oD+Q/zDr1uV69eppv0LZhw4ZpfWR2d4T7fmaOmbWCKW3atKkK1W+88YYy7ozAI0xQth06dND2NXz4cGX6aTfk0T333KOj5ghYr7/+us6iUJYwo9BwrpEjR8qrr76qjCoMLjSBfDr//POVWabNEFaXLl1KaRFlBJPNbACj66R5vKsDzFL85OoLo/akh3oE00u8H7tyo44RNnHx3ZTBlClTXDm9q+9hTx/T2PWJffv23Y3OkBbepX+D0SaPoAnQM2YJv3d16FNXVuQZ8XAxM4lQ/OWXXyrd6O36Eb7/Q9d3ERZ+iBd/pPXhhx9WOxj2b7/9VtON4MysIX0A+c1gA+0ElSm+rVWrVsr8v/3225oG7Ckn0gVeeeUVzRfCRNWJ2Z7y9ehg4YiYCWiRyGFhRxfTd+BwxFz7NO4Qdp+4+/YQG88eoqPEP2C/Z/jh7Amh/Pj2u7sHdzw8l5nd3RGG0udge/0tsyv7LbM7GkF2ZGZukzFjvnDE6ZPSi06PkVwf+IPIor5AR3fttdc5Zu0EWbCQkczvdLR83LhxUs8xI5dfdrk0qN9AGXam9zs6AtzVdVaDBw9WYr/ZdW4w7jDSMOlpW1Pl3PPOk1NOHSaMviNYwAj48Jir9Tqy1q59exl+6aXaIX3tOnnSiPrJDxO/1071qquvkbBqYfLW22+qAHPiwBOVQbrcMXUQV5jEzZs2q4ACgdWR/tWrlTEcP36cE3TaKGPx/HPPKKN4s2NOO3XspKOydNi8x6hgXn6eXHnV1dKhY0fNHEaGvnXp+enHHx2jO1Q6Yn8Ug87xOJffMMP+KDazhZ99NkoZrfqu/MPCPBILc4IAxogTo5YRrpOG2UJIYMS0juvQzz//ArWj3LkT9l1//qs0bNRQwwB06qiwwZgUFORruVGPxo0bK286YYOOc+IPE5WpgmHzR84A79KJtnFMPMyFr68Ns0Onl5zcWDtKwGwm6SDNlDcXaQpz13YnhMC4Nw0wsDAczDjBZJ1+xpmu/l3t0txIwymPfv37K0M1xnX2zEYE13EA4wkjRHvq26evXHLJJTLHMZdr1qzVNkA8dOhFxd7sByeuq9ldmI8kZDtmBcYRwdunOQg2jNLyrT4oQ5h08v/8Cy5U4YyRefKImb333ntHw2KUf4gTMBc6GsFoMnlNeZ922mnSrXt39UO9YXYB5v/LLz93tGGQXHfdDTqAAb0rdvnqg7KAoZrsmD/WNF3l2jrCGGpKrP8h7sf+86gyUdded70cf8IAHTQgXe2ccEqcDAqcc+55EuOY6ekzpqmwiiAJXYSOMrBAHUYooi189MEHSs8uHX6pqhYuWbxEBy22bd+mjGeGY5xPOmmwMs9xjulDgIVWIexA4xgAQMXuYACG9YYbbtA8+OKLL5ShD65jMLnPPfecMsBXuzp/1lln6ej/V199pW2MAZ7jjjtO859Bgm+++UbfZxSfb4EJhhZQ3jDLCGCo0TCqfeWVV2rdp23+97//1Xyj74FpPeGEE+Q811cgGFDvCQ+mGpx99tkh1WjwC32Ayaf/uu6661QogfFmQAFGHfoOXcONPIZRhmHWGUTHVBPGxRdfrG2Y/ge6UBEQLACqSqeeeqp+K4w6whvhkbeXXXaZ5hvfTvz0Hz6o/+Q5eXvVVVdpOZA+hALKnPqNMIPAd9ttt+k3k0+4IRw88cQTrg86WW666SZp2LChhoXQxYAX715zzTUqPMHwI6zxHZQn5XLKKafImWeeGTIfjzaEFAJSdrhM2bZ/C5KOJsDDd+hZV44bkix9T/avRtLn5IbefXBDfdb74AbSW+/eM1evk5zdSfXdnStJerqLe69B3tVzYD3pOaie9ODZ3XsOqis9nF2PE7mXXd3d1e3ERHdPDLrXkW4D3eXuXXke4O5cJyS4u7vcvcuA2vrc5YTa0tk9d3Z3nrucUEuvzsfXkk7+/fiapfeO/WtKp/7xem/fN15q1z+ad4rapZ3MWEe8GWnyLzozmOgy7NJRilNOOVVHLWFgIiOrS2REpI6OR0SEK0PEQsm0rVuV8acjgxlEN7xOnURp0LBR6WwbnezyFcu1kxk8eIiOxp922uly4003O8a6g3b6wYAwDnaEDb+9e/eVnr16SaZLH0wgoyR1Eup48W/bJi1btFRGfcOGdZKYWFdHoWDw2rRpK7Vq15Zly5eqahGjcT2699CRLxZYMqJ/4okDVajo5oSWS4YPl/YdOirzgXDACDRghOScs89VfdyG7ptgcmfPmSVPP/2U899BiT/fdzQDBvSss87WaWrUw+gg6agWLVwkZ5x+poQHld/kST9pnnIxw0I+nnfe+VouMEUwCcF6w+QdHSBlFh9Xti6LOkGndsEFFznmq6HcetuvtQP7asyXOlr/n/88Lvfd/4AyIaM/G/2zxYDUQ4Q2yovRWrDC1cGMzAwnpHbTkXhAvYBhIL3MMH0wcoQyAjA2Ca4NZOdkS4ILy9dV90Hdbty4iXbyFZV/jdga2qkXOIETRpRZjfJAJYoR3j59+zqm7nipVau2E1a//5nAcKQjxzE9sx2T9ZnLX5/mwJgzyxAsBJCNAx0dGTJ0qI4qU+8YmUUQQGBiRiDfMZPr1q7Tsjn99DN0xJf6gf9GyU2Ubvn0BNUIZn6GDj1VGaUuXbrKnXf+SYY52hMe/nOWgNFw6hmj/6eeOkwTBL1b7Bh0mChmhjLSMxxNiJREF+9YV7dZ80GcjFZDczp27KT1HEYWVR7qNQwxqkiYYea2u2+BQbv44ktc2R+ndLa/o7PUTwZAoDmMZg8ZMlRnJDGvWbtG3nzrDWWmT3M0h1Fi6PTBAjr0F154oY4oQ2N9tSDASDjCM4M6MLC0XwQihADynTIiPQhi5DP+ofWMXJ9zzjnanmiftDPigXZ/7oQo1hyceOKJrj8YqMw4cUNXcKddI2x0c20VwQ3G9q233lJhEoaakflQII3MotBmr7jiClVHPffcc3X0HPoPLYJuEy91hTbMN9EHIhyQx7gzG0eeIOCEGimn3GGyhwwZot+K8IgAQ31FUBkaqMvEQ10NVgkC1H/88a2kCzNCHnkGncUMLbroooukuxM2EbR8FSUEIkbxcWPQ65ZbbpEbb7xRhRYEB96jHKCb7dq1k6+//lrN0FtmURACWOdQvv89WhHyKzdvL5R1GaF3pzhWwCju5b/tLHc9eYLc9ZS7njxe/sT1xPHyf0/00+vO/3IdJ3/keryv/OHxPnLHY971x8d6u7u7/tPLux7tJb9/tKf87tEe8lv/+jdXN7n9kW7yG7266vXrf3XR61cPdy69bvtnJ71ufaijXrc8yNVBr5sfbO+udnIT1z/ayY3/aCs3/r2t3PD3Nt71t9Zyvbuu+1srue6BVnKtXi3l2vtbyDWB6+r7mgeuZnIV171NZfifGkvrHlVLLexgAmalhetUnnn2OXnjzbdKr4ceelgZ32BAgNCB/cp1dCxMYwSWkXt0fNs4v3RcdGSogDAdjn4+09YVAUUsiE+EEyJg9CA6XIzIwqxVhPj4ONcZRGgHSroZsS3IL5CdjqCtWLnCMYNjNF2oDSEIQGiDQYfO6D7TokzvQgRR/Zk7d7ZODcfGxErzFi1UJalRcnLpoi7uMBWbt2zW0UIWo1aPLpsChkFb7xhh4tuyeUvpSNDRjg6OuaGTRxWJTowRSYSgNo6pD+5Exo37ynXWb8jbb70pY778Qtq17yC/uf23qvJCR0u9Ks8009HRaQYzHj6KnRuzdjoqtiVF/TAKShh16iQ4AbSz1rtNmzy9Yx8wEqi01XWCIeoW253wiy4/5d61a7fSkU46/u+++0beevN1effdd1TdA4YMBpNpe75N5xcD/n3wHXTEdLDl3QB2bdq2c0LMhTLLMS4zZ87YrfPnfZhIVENgmmbNmuGYgFj58osv9HsqCvNIRX3HMN7sGJTX3yijOS+++IoMG3babgIhn0w5MbPjzxgwesrIPqOVF110sd5Hjf5UR+lRy/F1sCvCzsKdsiN7h85Yhod78ZDfMIOgfB6jQuMPXLgKpnWM2YSsrG36TH3++JOPdHaHGty6VWvPbwDUueTGyVrXWRCNughMMbNKqM1RR2kzha4eePXXU32LcvSldq2aKrDSDginemQQ0+mSifAB/eNdX7/7YANGFKaSEXMEfj9fqefUXRhLVHVQC2LWBqGgPAOJ8EL6YcIZCb/88suVgUatB+EC9SKYVEb8UScChIEgATPOLAR5Ax32aTKg3fsCAqPYe/p+2iT9DeH55QmDTd2BXpPHMNkIMR988IGOnvO9hIk76UGAIB2kHeadsCoCAiBp99OLUEDbJn8QfMgz4iDfmPlAwAiudzyTVvIcf1zUed7HjYv4/XwmDtLJRd1HqPRBn8TMBYCuUecoq48++khnUShbypTvIh/Ll93RjpBfGxnuCjri6B7JqyxgeMJdfuzPVe0ouWggRzM8AhuhnW/ZFb4bQYCI0Ym9/fZbzi1SzjzzLLns0suUEYQhgpAwonvf/X+TP/3pLmnUqKGMGz/OEZ2pgRB271x5h5FRiDO7s+xyBAwixw4hMEDYV4zdy4LOFUKOCs5f/nq3PPzwI3L33ffoNCmjcHwLRJNvhEgy0sN0PExF9+49pE+fvtrJQBQHnXSS+kOdA1Ul0kD9504nywLqikYL6ZwZqbzrz3/WGQiY4VBMyNEE8h31hJ9+mihb09JUHYzZHDrH4DZz111/kVdeeU1efvlV+d8LL7n68efSjokZI3S+WVTug/JCVeLLLz5X1Z1QwF+JbligBrXzxEuvtiGcBgP/CHOMxCLMMsqIYIeKGSNtuANUfW7/7e/klVdfl5dfeVWeevpZufHGm1yaW7pvi5ea8bVcZ56ujEswmFKn7Bnd9cMqD6yHDDlFZ7KY3l+9xmOsSDXv0caKHZP54Qcj5OWXXtR8IFxGTI+mOkUZhVcLVzpTnuZQdfzc2+LK5z0niG1J2Sx9jztOrr7mWh3FpY7BBMLAU1YPPvhPnZnydhqa6Nzy9H3iCa6LEZEROuhAmy92NA03BjI+/fRj184rGvgre7cMYTraT535P1eXoTl//8dD8uvf3K5qbaVwH8H3MEsJczvhu291ITdqZImO2f/xxx+V+ezVs3cpQ5numETSBIPNInBmGIirrH772CWdu3SR37g4eXe8a3sMwBxs0MZRz4H+wxj7dZ44+f7f/e538u9//1seffRR3a0HNReYyWDABDPaD1PLiHWPHj10Npn6D13t16+fMquEiTvwGVriDW6bwWDm4c+O5hLe+++/rwJBKJAmwkfQ8L+BZ5ht4obJhiknXtRhmFlgZJyyQGggfmaZaYPUO56DBfhgICBRrqTd7zuIn29DJYd36YduvfVWndXALfj7EBQeeughFT6YFbn55ptVDSpYAAoFhAMETeImTFSq3nnnHRU0UIOiX6SsKLO//OUvKpCVn9E8lhBSCGheN0ba1o8tJUQGw9GM7OwdjiHyFkN51w+OsftRGVpoE8QE4sgOJHSAEBMYLNR50I+FMKLb+d577wq7oGBmRB+GK8Z1IjDJ2TuyVQ9aVYwcYSVMtv9DHxwGZ8L3E3QUlAWA6NsGd9yaBlpjUIPEjp94R6DZhm/hwvnCNo/sAoSKwUcff6xxQWAh1nNms7h3hzKAzHDhF51dpkchkNOmTdFFqeCMM85SxoCdXhg5QXUDBm3I0FPUnbwoI9reGhimvrt37+mEkSE6esy3BhP2oxHkA3mCWguqM6iC9e/n7foU/O3RMbGuo41XPWY6YmZzAGsGUBmjo2S0ix1TKAvurM9gi0d2SCkPakZJsSc0osNbIzZGVQIoX+oOCyVruXrRKPnnuvmM/jHyiu70hx+M1N2uqD8woT5QZWIEXtPsLhgh350Os0fPngE1tB9V+CHNMJWshyAfMjMyd6u/5UEa2AUnPy9fJk+apAIQI8PfffutjjL+48GH5NH/PK47dD3x5JPKCHzw4UhlPo6GOkVbJs+WLlsaRHM8uuPpyu/Qts23Uj6Uc5Ir51rxNWW9Y6RQQ4F5I4yRI95XAZ78Z3YB2sSMoSdURKrqH6PtCFaAvEe9aNbMGTrgwBbJLDhlnQdltjvd8dIQDMzUD/TJqQuoi7H1LeG88fprMm/+PB04gGFjZBk6UNMJKsy24odR4hYtW+nMA3GiztSkaROdgWTw4Ysvv9AF0NBCZieZjUVfXtMSIIDeszfKi0DB97BzEGuSYGwPFIQfTONQw0EQQEceBhaw5olvYeQcdRpo+EsvMRMzW9+lzTA6j8oUDCmqNDDqqOwguLE+DNUV2i95gaCACgwLVFEZYg0B7jD4jGz7aQkGZUw6YNrpc958802tFxWBvGJGwqc16OEj1CA4of5CP0GZIViQfmYtYNp55vthrqmjqM+wOJrvDZXXCC+sAeA7UHFixoNZZ9JLeMRBPWQknjpCPQ7+Pto5F+UOvaRv5SLtWvaBy0ewHTM3hIvARXpRl2L2hRlMBA/KgHKEXvLMrIQfVnCYxwpC7g6UmeMtKGtQK6rCcYDDhV96dyDD0Qt2Byos3KkM3Jy5cxzDnKlTkxBtLtQkaBstW7XUXSpQr2nXrr0yaCtXrJRNmzcqwWV3GBh+zhBg2h79ydWO+LPwsmOHjjLAMTDoG8JEY4feLMQsqV6SDBhwoqrorHMd2PJly2XtmtWqgw9jSAfjd8h0Iuwdj9DQqlVrJaaEV80xkehEMgOBWgh6l3Q8uLFQD+IOM8d2poz4optbv36SpKV6jNuVV16txJGdQxIS6jjG7HLtvGAkcnJzZO6c2ap3C6GGEUNVgZ1C2CmG9QmM5sGgQKDpwNH9TKiToHrNjOC1b99hj8zg/qCq7A7kg/wij2B++/c/Xk459VQtH74bBp6Zo4suukTVhsoDP6h+QXt1DUp6hpYf+/mz4LGnY87PO+8C7aCDweLJb7/7RvXlGWHlfWac0p3Qx641MIn9XFqY5Sk/ekac1Md1Tnglzu6OyaBc/dE4dLApX4RD9L3Ld4zkNXWFurzAMXzrN2xQfW/iZ9E5i6IZsaZe+2VPO4LpiI6J1jUoMCT0NfiB8UcFBB1jhEfq89BThqkdAgjfSJzvuHxkFyCYEZgPtihFPYm6+kuCbzrQ3YG2b/O24kXXfY1rWww2KN1xzBICAIwiAiVqW6hp0cZQ98P/lhRvxxk2HkCVgZnAxY5hg+bAcDOocPoZZ0hSkrdrGPGgmsFmASy+HXjiwMBM0HodxFjtvoV2c/0N1zvmrJHmtQ/KmPcvuWS4liG7qbFmY+CgQTorxBoE1LrYYY06wIj9Oeeeq8IBO0GRHoS6bu4b2JmKus2aI2glAyoIrKcOG6Zri2D2+C7yYsXyFapeCIPMjGti3UQnyGx25rq6hoE6ya5R7kHXLrFGgHUsWTuydIatVH0pAKqhCkVBbWFPuwOxgJo6Bj2DOafMYUj9QRXUd4iH9ML0095gmqEF6NmTbt6nLyBe2hKMP8wo7oRLu4QR9XXXyXfCRKCgH4KWEy/67KwDorwwo5PP97MeAHUdhAvaAPGw9Sjth/IG+ENogdFnVJ9Rd/oS0gXNRnDk/Bi+hzJjxB57vh8mnO9BAGDmCXe/b2RmjvTzHQgWwWsDSBf5RJ1iZgL/CABnuDoJDWRdCPWA72GUnrziIiz6GfKZ/KAdkAeEQXwMMkHXUSUjTAQJdibiuwkTgYX1B6SXb/bLhW9iDQTCFGHw7YTLRRmxdoGwiJsyYlbGp1uHClVpd6AwV1C7IDAwJVwUABg5PUW25xXLTQN/WQK7N0xdP1HGLh8tfRsPkNPanhuwNRj2DRDHfNeh5ebmqyoOnSgjkcFgtCuxbj0lsBBFiCDECgYMghHpiA8LfWHA2B2Gg5toS3SIEEKYa7ZBpHPDHkJGp0oYbHnHIT4+YwihgnGng6FDIy7S6BMjCDfMGcSdbRPpMFATgIg1apSsxJrnNU6IYBqW6WMEE4gz4UBwGQ1EWICBS3HEn9EaRoQhoqicsAMIi/98JoA42aUozaWZxc2MVpEe1AwYaWGEjk6Qb4NRgLFs2rSZzjrwLdAT/JRnQg8UKzMXy6ilI6VRfAu5ovN1UryrWON4+qknXT6myO9+f4d+4y8F8gQVFkbVzz33fB0l9/OQcn3iv4/JDTferIxXRdC66DpctoRE975wZ6HWAzotVI0YKQ0G/pku//ijD7XML7jwIqnhyn/81+Nl0cIFjtGO0XdZaO4v9C0P6ixrAn6Y+IMKoggLfAdhc2gZC1ZZO4K6BXYVgfrDTAD70NPhwwCi4sN7PhPig/hGjx7lmP4oOf74AdrZAnY4YrajenXsjxcOfyI9ML7USx+cA/Dkk/+VMxxDyKwFDMKLL/5Phg+/VNvdLwnyiVma1197RZ548mknlNQLuHjIzEuTt+a/KBFhUXJ737u0fpYH6xtg6LeVU6cC5E2Txk10sTb1GmaetkTb9ts7bY0BB9xog6zhgaGGpsBIIlgyy4QQyowe5QEtgDZ4i9Ajtc7BpDPT0Kx5c2WQ3Nd5iQgAWgezxE5VCAGkg1F/1pWoio4DamXQRxg0BANfdQSVEIRC6jKDAQw6QIc4JI88I/0weHwPAx4AmsMgC7OrUVHR0sQJuOQHNIXvo05A1wiftgXdhT5HR8fIFsdQZm7LVIa5/JoqyCh1L6p6mTD96nujVYg4Z9ggJ2ztXl9hjqnfCNjkr0+HYVr5Vpha7AHfRH9AWaHyQ3pp/zr76hh60sxgDGEwAg2PhZBHfjCazkg+gi0gj4kXIQBQVtpfuHwhXsoPgYLvh9GlbGDuEaZR8YGBJ3yYWoA/7HmXPoGwqEOkmfwj36HrlB1xY4dgwbfw7cF8IeVIOJQZ9QkzfRv1Zre26uIjHOood0B9IV/IA/pG0k3+MMNBXvHN0EeYdvoy4qN+wuyTXtJIfiM88L18J/FjT1qhh9ghABEvfRLqTeQXfSxtgrihQ8RFf0feYE9cpAUhAnfK1i/vQ4W5m6fLRwtGSLeGfeTCzsMDtocHoYWAGQEh4EQTAgxHHyAACAH5+YWHvMEbDi6qmhDgg3pEvSqPUPYVIbgu7u0d32+wv4rs9oRfOs0VITjNe4q3vNu+pPFggngPVAgw/LKgiu2LEGAwHEpUJSEg5JqA5NpR0jwxuoKJTMPegISOtIxwdTg6KYPB8MsjVFvfFxqAX//aGyryV9l3fYTyu69h7Gu8wQh+d09hlHfb3/gMBoPB4CGkEFC/ZnUVBAz7BjomTtV75JFHdFrNOiqDwWAwGAwGQ1VDSCFg6ZZcmbshu0otCj4SwAIVVpxzQt7YsWN1NsAHemfouWGHrpq/Ih4zOq7BK+S5oweIrq3vhs4eF2Hwvn8Fv8uFWhf6mLxLGID3iN+//D2OsTcYDAaDwWAwHFsIKQTk7iyR3EJjEPcFMOBsi8XCFo7WZosqFsH4jD2HMzFLwLHdbMn28ssv60p1tgHjGTsWGOGfxTVsrYU9W4a9/vrruvsAi2QmTZqkfl977TV14+hytuzCDTWkTz75RPfixQ/7lrNSn3SwJ7N/QAfh8myzFQcG8g5BqjJ5iB//2lf48bBwaX/DMBgMRz58WlAZuuPTiv2lF7wHzbHBIoPh6ERIISAhNkLqxu2+LZ1hz2BEH8Z60KBBug0YK9ZnzJhROhrPyYCoCbGNF6P0o0aNkieeeEJXwMP0s2cvAgEj9DD6nGoH844bW4u98YZ3PDoj/dyZAeDkVwQBBATiGz16tAofrEtgBwCEA8JllT53hAlW5jNjgT/smFkw7B/Y8efr8eNl2TK2mws9b0aZsuXomsAJjPsCOmJ2LuCk0Pfff0937KFjNhgMxx5o+xzIxsnAe6Pd7KjDuSH+wWH7Avot9oR/9ZWXNb79FSQMBkPVRUghoHGCtzDYUHnAXLN14mmnnVa6ty6HuMAAArbRgrBee+218te//lX3+4WJZw9bTv1DeIDZh0lkBwr21f3Tn/4kt9xyi+6hjYoR9oR/1113yVVXXaVbZLF/+4UXXqh7ASNoDBkyRO6//3658847dWsuDjPBjbjZzuu6667T9znshZNp9fAqwz6DsqBs2dIOoa6aM3Nhz7ZnXDwDTj2d8P13MnPWDGcq60y9Q3XwWyZA8ApmPwx2vvn226/li88/0724EQAJQ90CV3nxg3ixx095eGGWpa0MXpwVuxkMhqoAmHFoDjSFvoI269McpQWBtks7Zh96BimgTz5C0YbdwnHv0i889eR/9QwRtgoF+q5z4yr/PiifBh/+e3t6B9ppMBh+WYQUAjJzi2Rrdpk+u2HPYHSGNQCM0vuj+DDdnEaHcOCDPYz9/dbZ37h58+a6LSuEkD170fFnP2f2FWYPXtYXMLvA7AHqPoRJJ8BIP+pC7Cd8zTXXKLPP6D6zERy0wR667FMPo887qAmhpsS+vAgCxMF+znQiHlNp2FdQDpQRp12ybzKHh02ePFlmTJ+mB0d9NnpUabmxt/b330/QEzoRvMhz9vlnpO2DD0bqgUnsTU15MIMzefIk5zZeTw/m+mrMGMnVffw76R7TaWlb9Z0PPxwpn3zysczX0T5vVFBPP54yxQmgH+rsAbMUvhoRp41+6dL2wUgX53ffan3DHnf2e//444/0ECYOftq5s1DDMxgMVQf0Hex9Xq9uktL7ST/9qAeXQS8+/vhD1//8pEw/9AQaAS2B9kA/sEct9aOPPnC04eNS2sA1YcK3MnPGDEdPPlL6NWLEe0q3Wrj+ipPEOdOBcyygKyNHjtDTeZmlBvQxzFBC86AfU1ycOdnZSlugMbxHP8Y5EBy0Bp0jTs4rGfvVGE3Pt99+ozOrBoPhl0NIIWBDRoGs3mrMYWWB2g6qNRzSw0EUjPAz8g+jjY4+xBAwqhsMDrYoPzoCoUaIYO0Ah5PwTvDhOyzqRdefWQNOG2TGgTD80RcIrA+eiRt3/wpG+REbQ+VBXnIw2McffSQc9Y9A9vzzz+maCw5c+m7Cd/Leu2/rdDwdIQcepW/dqoeVcIAPDPfX48fpQWVjxnwpn7gOnPA45OSFF/4no0Z9ovWIQ1C2bdsuWduzZNv2bbJ+w3p577135JtvUENaJhNcB//SSy/qwTyFhQWu7ryvHTHxTnWdL2kiXDrfl156QSb+OFHfo8N++603Jd8JJIsXL5L/vfC8Hja1dMlSef65Zx1z8dPPDlAzGAyHFzDc9Ck/OuafGd7XX39N6cV0J7jPn79AXnrxBRXiGSjiNHQu+hFO6IWBZ+CAwQkOsnr+uedUECBMXV/2/DOy0NGfpUuX6YFd2BMHAwxfOWad0685uXzRwkUaLwfAIYhwyu9zjmbA7CM4ICR87gQJ0vDZZ6Pl/ffe1dOQJ0+aJG+88brSS+jgp47G6SF3zm3MV1/KSEe76EsNBsMvg5A9fIRziQg3BrGymDp1qhKvO+64Q26//Xb5zW9+I7///e/lsssuU718mMDKglFiRog5RRDVoTPPPLP0hE2IMXGhZgTzjwoRIyow+5wGyMmBjPSwXgDCD7HHjtFjw8EHnWSuK6/Cwp3aGW7P2q6zPZdeepmcNuw019Fl6DH77dp10OPu+x7XT49pR58Xe05Hveqqa+QEd58zZ67MmDFdVYwQ9Lp17S5XXnmVXH7FldK2XVs9iXbQoJP0JE1OeBx6yqlyzTXXyXnnnqdrDVAVgtGnvnXo2EGuvuZaucK9z8wPdepTxziw8PysM8+SK6+6Wk4eMsQJE++q3axZM2WuYwqGnnKKc7tKT7FklM8ogMFQ1bBLcnNylKkvKSmWjIxMiapeXYY5enPNtdfpLO+0qdOkTp1E6dqtm3Tu3FVOcbTCP2W6fbv2ctnlV8jw4Zc5upCrs4U7dUe5HVI9MtLRm6vkkkuGy9lnnyM1asTJxRdfoieBZ2Zu05ODr3Y0B9qC3ehRozQMVE6Z2YR2XHvd9dKvX3/J2r5NVq9eKZ9/PlpPDIaWocpK3/T5558Jp4pPmTxZGic31pOfBw8+WSIjI3Qgw2Aw/DIIKQR0aFhDejTxjsU27BkwWKjmwNxxpDXHX6Pyw8UuQYyG+Pr8ewN+mB1AHYide1jI+9577+k0KTMLqPW88847quuJ3QsvvCD//e9/5e2331Z1HwQD1gX85z//keeff15VS4YNGxY4Et5G/g81EhMTpYsrO47Pb9a8hc4EIQDGxDjG3ZVPbGwNZeJhvFETm+mYb1XncQIBDDzlVeSEiYTaCbquhGPNEQapE7Exsdopo0bW77j+KiwwGjhz5gzV2UVHmFG6aOe3X7/jneDXRDp06CjXX3+DNGnSVAWMLOfnxx8n6kwBI3McA79q9Srt0BNdPKif0bFzNH/HTp12m1UyGAxVD5D03r37SKvWbVRNCJXPzG0ZOlMZ42gGAwbx8TVlzZrVrs9w7d3RmVGffqqzjzDkOvAA471LnNDQXQcxuJh9Zhaa07cRLAacMMDRnmSZOnVKQHVnoxMsUh0dKtQBhP79T5COHTsr7TjzrLPllFOHScqWFJ11XLd+ndI5Zq+ZDWW2nLCbNG0qs2fPVnqEkNKpc2dNq8Fg+GUQUggo3rVLSmwzgEoD5vvqq69WYhkMBAEW98bFxZX68dG9e3e54IILlFhDEBEirrzySvXLol8W+BIeTODw4cPl1ltv1XUDffr0cYzd9crYIxj4F27sSsRoCwIB7meffbZezBIMHjxYFyP7/vv27StnnXWWvmc4OCBfGZUDdM6oYpUEVMHK4J0BUb16pJZTeES4ExbidcaHkbZqri74qlvlhTbMCArs1oGqz4YN67UTBsSVn1+gAkOECxO/XAXODn1ehNU6rkOPjKyu7lHR0XLbr34lzZs1d3XhOLnhhhu1LqxatUrGjRsrY7/6Smc3DAZD1QV0ItLRHO4ewgJqoAFjAIz2MyvMQAJrxqAB9AEXXniRmkFEROTPaI4PGH9UEFE7zNq+XePz1U2ZoY6LLxs0xA71xUJHPyIdTYyPj1c6VyOuhgos5557ng48XHzxcJ3hZBadWQFmwFesWB4IxWAwHGqEFAIWb86V2euyAybDngBhhXk/4YQTfqbzDxN/8803q9oO7tddd13AxRMC2NWHdyCorCdASICRRB0DlaI//OEPyvDz/k033STt27fX3YL+8pe/qOoRF354r0GDBjpKfMkll+jOQKglnXrqqToazSJhhAoEAcInTnYcOuecc9TNcGhBh0zHSPdarVq41K5VW1q1aq2d4W9+c7tcetnlOvJeM77mz+pQMNhFY9rUKboQmFEzpuoHn3yyK2NPXYw6wK4eaalpLj5v0feIkSN01yqEwvr1G6iK0O23/1bVkOo5AbNuvboyd+4cXeR8xx1/VMGADho1ARa6GwyGqoyKmXYP3hkB7DZWL6m+xLo2ftLgk+TW234lv/71bxwD3ktpQrgy/4FXKgDM/osv/k9H+S+44EK5ePhwadasubpFOHqV3DhZ1xUxaIBfFip/8unHEhsTI0n1kuTEAScqnWNWsnefPjrLkJOTrVuYnn/+BfJ7148NGDBAVRpZUxBKEDEYDAcXIYWAkpJdUmxTAZUCBAsmnqsi4ljcgrcAAD5nSURBVBXsxt2Hbw/Kh+GbfQEh2B27ii7/Pa5guz2F75sN+wc62JLAmgym07n7I//q5hhx7v4CcNYCzJ41U7p266oj8a+/9oq8/NKLukBv3LjxkrltW+C93dveLtcWNSz3Fxcfr+tAUOdhxJ4tADMzM3Q0rmWrVipAMvX+yssvyzPPPCXz581VQfDiS4arSsCLL/xPF/U99dQTOj1fVIRecYbz/5K88cZrqk6WnpEuvXr3/tnMlsFgOPyAPnBBK4qLixx9gP54NIN1AiXF0J0SXRfAJgTjx43TdWHdunaTd999R1555WVVF2VDgYz0DCdGeGEpHYOQEY4zM2NJOPQQzEgzC4A6IWsLeM7NzdNZiNNPP0PVV59++kl59dVXdMczGP02bdtJ9x495M0333B07iUnSLyg65A4t4YNML6f8J0uZB47ZozOQKKS2KxZC02LwWA49Ai/++67H6Dh+9uEwSwATguuFRshzarYWQEbs9bJyoylklyzqbRObB+wNRj2HUWuvsMAH4gQxCI2hK22rrOjk6weWV1na+h8i3Z6nXPTZs3UnXjYdpN1A4zi16+fpNuH0hnqeo7jj9fZIYSF6Oio0nDoENH3JxzWGjCiH14t3DH9edpRM6PQxHXwHTp20ueWzk+eEwiys7OkWlg1XXDXs2cvadq0qS4w35GdLXkuXlQAWPxH2pKS6quQsSNru7qxbe15512gcVU1ZOZvlaXpCyU+KkG6JvVQwYg8mzZ1quYlixLRgzYYDgVox+jVM9p9mmN+WecTjPyiXJmXOtO1vQg5LnmA1s+DCfhjRtFZe8ZaH2hYJ9f2GzZqpLO8bCpQv0EDpR8JCbV1ETH23bt1l9Zt2uomBrk5O6SgsFA6deqss8WoCLHzGFsQMwtIe0IAKCwokAEnDtQZhHpJSZKVtU2KnT1mVBdrOLo1cOAgXUMQHxena5Ogca3btHGCwZk6M806AsLaAT1y4Xbq2FlOGjxYVVRRE2L3IuggM5EnHH+Cqgsd7MEHSDx5wKyFj9kLOOBRpF3r5q4M7Uwkwy+HlOxNsjh1oTSIT5aOSZ0DtocHYa7T3MUUHtP+XHT+YNHmHCncWSLdm8aruapg6vqJMnb5aOnbeICc1vbcgK3BsG+Asc4vKHSMdOEBCQHo2mdn56hKGKo6OYHODDPtig6ZQ3JQ10E1Z7vraBEUajpmnGhZNEwnzWJh7Oj86BC5WBtCOKSVjhI1IsL2O/osx7DTqbJwDzP2vINQgtCA3i6jdLjjxnci8DPqz44eLBpkDQBhAGYS6MTpsHmHDroqYmXmYhm1dKQ0im8hV3S+Top3Fes3P/3Uk5KamiK/+/0dmn6D4VCAdjR+/DidxXviyaed8F8v4OIhMy9N3pr/okSERcntfe/S+nkwAT1g5g/9fegDu3gxiIDgS1uGxjCTz4AeaWUrThjzevWSVPCHVuAHN1RBo6M9gTktNVU3L4CG4AY/kL41TdWIoB/Qha3ODF2DnkGLUOdp2LCRtj8GEVn0u7Nop7Y/3AFpyc3N0TjxV6tW7VIhnXdYD6D0yKWjthNa+K6DDfc57jujJKp6WdivvjdaJapzhg2SuollW3AbDIcaczdPl48WjJBuDfvIhZ2HB2wPD0KqA63PyJeVdk6AwbBHwLwzsq+Mv+vYeKZjBv6Bbb6+Ph1fgwYNpY7zQ6caHh6hnWVy4yZSt1690tEvOnRmFfxwvM66jo7i8x6go2aEjfBQNSJe3OlkATtsEC4j/KSDMABMAmEzgsjdFwAA8REmI4FVVQAwGI510JaZIYTJh2Ywog798dsyTDZ0B1qAHe60a3/xL7QD3X7sGAggPK6k+vW13fu0grAbOj8+zeEOvYF2+LSIZ+68w50ZCHYl8wUAwHoEP07eD56lI42l9Mil81AIAAaDITRCCgE78otlW+7BHcE4ksAIBduYsc8+KgbBOopr1qzRk2EnTpxYenHwCqO6vj/8LFq0SEdPgt8NBiMtHAT1448/qh42OpH4rwwY0WW0mC3eDAaDwWAwGAyGfUFIIaBWdLgkxHojAMcimKJkD/777rtP9zkOZuS/+eYbefTRR+XNN9/UfdXZx//JJ5+Uv/3tb3q6Igw6h6e8+uqryuhXhHXr1snf//53fY/DnThtmP3+n3jiCZ2+3RNIC3sqjxw5Und9MRgMBoPBYDAY9gUhhYBWSTHSsWHsQV7SdOSAw7jY7YBDnXhm1N0HByzBqHMIF1t8XnTRRfo8ffp0GT16tOpMcqgXMwkIBP70qg90Mh955BGdLWDffvb2Z79+zhGYNGmSfPrppzoTAbOPEMHJv8wYcDgYZmYLvL3iv1EhAIHF94sfwvXt0ENHMOGOme/YsmWL6pH67ggUpIlw+S7eR0hhZoP04zctLU0PpwK8R/jolvOtBoPBYDAYDIYjCyGFgA2ZBbI6PT9gOrYAM/3dd99J69atZejQocrcs6UZzK8P9DGPP/543Xf/5JNP1v322X1lxowZyhj7epYVAdWhL7/8Um677TY9yItwEADOO+88PW8AHU7i4qTh1157TR566CGdIfjHP/6hMw8w6lOmTNGTFseNG6dCCow8MxL4YZbi8ccfVxUjmHlmDPAD5s6dq+GNGTNG48CMO2pPqDXxLqcNP/jgg/LMM8/I4sWLZd68eXpK8ZIlSzQMBAYElQkTJuwmHBkMBoPBYDj8oH8vKdopxTmZUrQ9df+urDQpzsuSXcWVU1M2HHkIKQRsySpUQaBiNvboBjMAqABxgi8j/YyMM6ofrNpDA2PknIsRcvwwYo8g4C/ODAUEAI5357AuFlMRFiP/PCNQcKgYZhhz1IT69eunwgjvIAQwKs/2cOz73Fm3mqyvMwhjx46V3r17axgsCEMoYNaCEftp06bp7i8w9agqIdgw0o8QsGDBAvXD2gQWdLFlXLdu3XSWgbUPhIXAgV/SxSwEwg7hsSjVYDAYDAZD1UFJfrbkzBsnqe/9WdLeuXO/rtS3/yjpnz4seSuny66SY3eN6NGMkEKAHJPsvwcOUGI3g3bt2imTzYzADz/8UKpiA1asWFF6mu+NN96o+v3s0MKMwN72OEagYF9lmH6Aus0999yj4fz2t7/V0XwYbJh+ZgsIE4GkefPmKmjAsHt7RDeRrl276k4QCAEsEsaevZmZTUAw4UIwgXHn4l2EBkbwGdlnBoFTZtkf+rTTTpPLL79chZAOHTrojAYzCYTHOzwzCzF//nxl/tmH2oQAg8FgMBiqEBikzNwoO6Z9JLnLJqla975fYVKcs02y542VnAVfS3GebUJyNCKkEHBci3g5qd2xt3cuDDlCAOozDzzwgNx0003KYI8aNWq33Xs4DRF9fkbNuYYPHy5//etflXkO3naxIsCgw4z7gJFGJYjRfhj2jz/+WBlwZhQYfUfYYNEwawCYjfB18wFCCWZmBxACmA0grcxkMFOA2lKzZs3UH9+BKg/Hs2NGXYidjzhhFn/MGrBQ+f7775cPPvhA10MQHwIRwgYCAPnCbEJSUpKmNZTKk8FgMBgMhsODkrxsJwhslujGHSXxgvv247pXap18k0TWaiAl21Nl185jUz38aEdIbjV1x07ZvL3inW2OZsyaNUtH/Bl9Z7EvDPMNN9ygDLnPRANG/dHnv+SSS1QA4BlG2d8zeU9gxB1VG0bpAfuzn3766RoWqjy8z4JdVIHQ0x8yZIiceeaZei8/8o5fhA4Y9ZYtW2oY/sUagy5duuhIPkLLt99+q9/GSD97NWNGvQchAOae+PB7xhlnqGDDzIMfPjMRCASoEhEGcRGmwWAwGAyGqgdG9KvF1JKoBq3366qe2ETCo2p4ARmOSoQUAjZk5svqtGPrsDBGx8ePH6+nJsPYX3HFFaoec9VVVynjjhDATjv4gzmG4Uf1h4tnmOW9CQAAJpyLmQaYfMJklB01oa+//loPi4I5R/0GtZ0+ffqoyg4zEf4sAPEwK4E6D4fAtG3bVnf9QUjh8BXUhpg5wD+qPDDsCDikFTUeDnthLQACCDMFLHz21zQwm0G8mNkdCCAQEA5rBBCIEBx8dSaDwWAwGAwGw5GFkEJAUbHIzpJjS/yDiUbVBaYbphcVGS4YZkbiYbhxh0FnRH5PDD+MeSg/6PDfe++9utZgxIgRcscdd8idd96pu/LAdKNWxEzDiSeeqGGwXuDZZ59V1R1G4FEl4mRHBANUh1DrYQaBRcHPP/+83HXXXTqqz/oABBpmCVANYh1CixYtlJlnPQHMP34QOlj7gHBAeliTwEFnpJP0oJqEsMCsAnnBbAHhGQwGg8FgMBiOTITffffdD8DowdhywfSCnAL3HBMuzRPLjviuCtiYtU5WZiyV5JpNpXVi+4DtwQEj+TDFffv2lTp16uym24+ZxbOMkrNgGD8ICqHUf2DQYcphlnEP9sMz6wKIC6Yc5rt79+7Sq1cvGTRokAoh7NIDs+7HiToOswesHcA/7xM/bpgJp02bNipYwKz7sw3MCvAd3AmfcBAwCJtdhzAjUMDc8y5hodaEG6pQuCM8INQwM4EAghvpCs6fIxFFrr4XOWm3ovIzVF1k5m+VpekLJT4qQbom9ZBd7o+6OG3qVBWU+/Xrr+puBsOhAPRi1aqVMmfObDnt9DMkNrZGwMVDflGuzEudKdXCIuS45AFaPw2HF5B4+uqIoJ37Zi/wDtps17q5K8NofT6awHqAnIXfSXhsLYnvdXbAdt9QtG2L5C2ZKNViakhMh4ESHh0XcDEcCFKyN8ni1IXSID5ZOiZ1DtgeHoS5TnMXI73oe3MxcgyWbcmVgqIS6dK4ahX61PUTZezy0dK38QA5re25AduqC1SHwJHMaHJeAWcbcJ4AwsM111yjAsiRDMolv6BQ8vMLTQg4wrAyc7GMWjpSGsW3kCs6XyfFu4pVRe3pp56U1NQU+d3v75CEhDoB3wbDwQX0Yvz4cfL6a6/IE08+LXXr1gu4eMjMS5O35r8oEWFRcnvfu7R+Gg4vIPHR0VESVT0yYCPy6nuj6QjknGGDpG7iUba+zX1X3qqZkjryXqlet4k0vOnFgMO+gXMC8ldMlbCoGhLdqq8TAnYXeA37h7mbp8tHC0ZIt4Z95MLOwwO2hwchh3JXpuXJ4i05AZNhf0GHcaQzmQiHnFnAbAiLpX1B0WAwGAwGw5EHDgArSFklWTNGy/bJH1R4ZS/4VoqyM2Vn+kbZMeuLn/uZ8qHkrpolxfnehimGIw8hhYDsgmLJyrcRDIO3Heq5554rt9xyix4iZguCDQaDwWA4QrFrlxRuWSGZY56SrSPvk8zRj7jr3z+7tn32H9nm/Gwb86R7fvRn7ukfPyRbP7hP8pZOkpKiY283yaMBIYWAqMhqEuMug4EdhVjbwGJidK1NfcZgMBgMhiMTKCkXZWyQgrWzJSq5g9Qe9htJOOP3+3zFdj1VitLXS+HmpXaOwBGKkFx+vxY1ZXC7hIDJYDAYDAaDwXA0YBcj9yVFTghoL3G9zpL4Puft43WuxLTpK9WqR7uwClxY3nbihiMLIYWAhZtyZOY6OybaYDAYDAaD4WhEWHikY+RrSLXofb/CIqMcFxnmAgkEZjjiEFII2Jq9U1KyTMfLYDAYDAaDwWA42hBSCCjZtUuKbXbHYDAYDAaDwWA46hBSCOjTPF5OalvbjjkxGAwGg8FgMOyGalFxUi2hqYTF1HGGsoPYDEcOQgoBmblFkrbD1IEMBoPBYDAYjkiUFEtJYd5u166inQHHvWNXSYmU7Cz8WRhc0U06S9Il/5D47sP0RLaK/OhVVCi7dplqSVVESCFgQ2aBrNqab+s9DAaDwWAwGI4ghEVESjV35S39UVJevkVS3ZXy8s2S8tpvJGvyCOdj73oeMO85iybI1hF/kZRXvPdTS69bZOvbd8i2UQ9J+vt/lrRXbwtyC7rce1tH3isF6+Y7gcLOnqpqCCkE7CzepZfBYDAYDAaD4QhBWJhEJrWUWoOul+pNOkvxjq1S5K7iHelSnJ0uJfmV2/mxaOta2THpPcme/aUUZW5x72e4cNLLXYRd3s6/MqSQ04anjpQsFw7pMFQthBQCGtaMkqZ1ogImg8FgMBgMBsORgGrRcRLX7VSpf+0zUv/Gl8qu656Vmsdf5nzsXc+jpCBXduVsl9g2/aXe5f9277+4e1h7vV6Uupc+IpH1WkhR1lbvbAJDlUJYTk7Orp07d0phYaFeycnJ6oA6UFFxiTSrG1OlVIKmrp8oY5ePlr6NB8hpbc8N2BoM+4Zdu3ZJfkGh5OcX2gnIRxhWZi6WUUtHSqP4FnJF5+ukeFexhIeHy9NPPSnz5s+VSy4ZLrVq1gz4NhgONsJk6rQpMvGHifL0M89K3br1AvYeMvPS5K35L0pEWJTc3vcurZ+GwwtIfHR0lERVjwzYiLz63mg6Ajln2CCpm1g7YHt0gX6uQjj7nLlfSfqnD0lc9zMl4Yw7pFpUTMCxDPlr5kjGJw9JeK36Uuf8uyWidoOAS+WxM22tpLx6q4QnJEu9Cx+QyLpNAi7HLuZuni4fLRgh3Rr2kQs7Dw/YHh6EFAI+nZ0mO/KL5cr+DUwIMBx1MCHgyEVFQkC1atXkjTdelzdef1Ui0IXlABuD4RChoKBA2rVrLw8+9LDUqVMnYOvBhICqh2NVCAgF+r+cOWP2QQhoIHUuuFsi90MIKExd7YSA20wICMIRIQR8MCNFtucVy40nNlJzVYEJAYaDARMCjlxUJARoeebnSV5urvNha5kMhx4REdUlLj5eBdBgmBBQ9WBCwO74pYWALa/cKhEJjaXeRSYEgCNCCPhwZqoKATcMaKjmqgITAgwHAyYEHLkIJQRYORqqAkwIqHowIWB3/JJCQEHqKkl5+TaJqGNCgI+qJASEXBh8VpdEubxvUsBkMBgMVRcmABgMBsO+Arp5iGlnCTOzNjtbVRFSCPhu6Tb5fJ5t52QwGAwGg8FwVCEsTPftL8zYIHkrp0vOssm7XQVbVkhJUUHA8wFglxMATAaosggpBOQUFktWvp3wZjAYDAaDwXA0IaJ2Q4lITJasn96RzU8Ol82PXVB6bXrsfMkc+4wUZ6UFfB8I4CNNCqiqCCkEILyV8GMwGAwGg8Fg+EVRUlIim1O2yshR4yU7h00PDg5QAKreuIMkXvCA1Lv6v1L7wvt2u+pceL/E9T5XqsUe+FoJmwio2ggpBHRtHCfHtbC9tg0Gg8FgMBgOD3bJnIXL5cmXRsi27ZU76XevCAuTsPDqEu0EgdoDrpA6J9+w25XgrhrtT5Rq0TUCL+w/wqTEXSYGVFWEFAKKS3bpZTAYDAaDwWD4ZcH2sw2S6sofbrlcItzzw0+9Lhs3pwZcDwxsphBWLVyqRVSv8AoLj3DM+4EvGtaZANUqMX6yKiKkELBwU47MXJcdMBkMBoPBYDAcPYA3LS4ulqKiooN+eYzvgQNmPbFOLbntuoukdYsm8u9n35LFy1cHXI8AmD5QlYadE2A4JmHnBBy5qOicAIOhqsDOCah6gMSXPyfgjRGfy9jvJstOJwSUP/DtgOH6l6Iib2OVg9a9uDARWHLz8qVZk0by599eJy2bHdrDXA/GOQH56xdJyuu/lsh6LaTeRX+zcwIcjojDwsYuzJCcgmK5oGc9NVcVmBBgOBgwIeDIhQkBhqoMEwKqHsoLAdD/renbVMe+uOTg74JI+IVFRe4hYHEQUFRULPMXL5dxE6bI6UNOkIvOOlliYqIDrocGB+WwsPULJOW12yUiyYQAH0eEEJC/s0R3B4qtHq7mqgITAgwHAyYEHLkwIcBQlWFCQNVDRTMBRwroqwoKd8pP0+bK+5+Ok3NOPVHOGHqChIcfet6sTAioL3XO/bNEuHvZMoHd+02vGy2/BDhMCjYwE3C7RJoQUIoj4sTgUXPS5O0pKQGTwXD0wVj/IxNWboYqDb+CuruNL1QdHIlFgQCQk5snn46ZIO99Mlauv+wcOXvYwF9EAFBEVJdd7toxf7xsevlWWf/Upe66zF1XyIan3fXMVbLh2atlw3PXyPrnrpP1z18nG56/QTb+70bZ+MJNsumlmyX1o79LYepqqVY91nGcVWtQ2eDaRaiZgA9mpOiagBtPPLQ6Z/sKmwkwHAxAXItYELaz+MjsHY5hrEhfJB8tek8a12wpV3W7Xkps1ZmhCiEjN1Vem/W8RIRHyx3H/0VKdtmhm4cbkPiIiAh3HVlMKH3UspXr5MW3PpYbrzhPOrdvFXD5ZVCcny1Zk9+X7RNelZKsrQHbCvCzPjSIJrvHarUaSOI5f5YaXYZKtciogMOxiyNCHegjFgbnF8t1JzSsUjySCQEGw7GNJWnzZeS8t6VJ7VZyXa+bA7YGQ9VAWvYWeXH6MxLphIA/DbwnYGsw7DsYrOLAMNSBYqKjDovq6q7inVJSkCu7dhYGbPYdYdWjdSYg7JeawajiOCLUgQa3T5CzuiQGTAaDwVBVYCP/BoPh6AdMP6o/sTHRh0UAAGHhkRIeW0siatXb7ys8Jt4EgCqKkELA3PU7ZNqa7aYpYTAYDAaDwWAwHGUIKQSk5xRJSlZRwGQwGAwGg8FgONTQHYEKCmT79u2SmZkp2dnZekaAD19NCBVunlHpxg/3gwnC9g9TI75fEnwbcZIGw6FDSCEgolqYRIbbPIDBYDAYDAbDoYbP3Kempsr3338vzz//vPz3v/+Vt99+W+bPny85OTnqz/cze/ZsZZZXrVolb731lqxefXBPEiY9a9euleXLl0t+fn7A9tADwWPq1KmSkZFhQsAhRkghoHndaGlXPyZgMhgMBoPBYDAcSqSlpcnf/vY3efDBB5UZbtKkiSxatEhuvfVWGTFihDLj27Ztkw8++EBeeeUVycvLk40bN8qYMWNkw4YNas7NzdXRex8w0swSYI+7P6vgzyYQJhezD/6IP+8wu4BwgRDCM25c+EMg8ePxhRfsuYjDn6XAHTMXaSAe4vffwUxYvn+uzZs3yx//+EdZsmSJvoMd7vgjHN7DznDgCL/77rsfIEMpFK6aNWuqw478YgmvFiZJNauruapgY9Y6WZmxVJJrNpXWie0DtgaD4VjB1twUWZgyX2pF15EejXoFbA2GqoHcwmyZuWma6z8j5IRmAwO2BsOeAVMLA83o/6xZs+S1116Ts846S3r27CknnXSS7tz47LPPSvPmzSUyMlJGjhwp69evVyGBdydPniyNGzeWdevWqdAAX5eYmKgLinfs2CELFy6UiRMn6mwBdvB6MNUzZ85Ut5UrV6oAUrduXYmKitIwmQH4/PPPNZ5GjRqpG6PzvMNI/bJly0rDIo4pU6ZoOIQH8x4bG6vmH3/8Ue+oNpG2OnXqSExMjDL7zHgQHoJNfHy8VK9eXb777jsZNWqU1KhRQ7+X7V1nzJih6V+zZo36qVWrllSrVu2wLZg+EKRkb5LFqQulQXyydEzqHLA9PAgpBHy9OEOWp+ZLr2bxaq4qMCHAYDi2YUKAoSrDhADD/gJG+v/+7/901H/gwIHK4HLB9MPQT58+XZnpTp066UwADHnLli2VIYZpXrx4saSkpChTDXPdqlUrZaxHjx4tjz32mGzatEkWLFigzDTvwOw/88wz8v7776sAAGPerl07Zd7hCwlv3LhxGibx4P7666+rYLB161b56aeflMFv2rSpMv3//ve/5csvv1TmHoEEgQPBBcafUX1mMhAeBgwYoDMA//jHP/R94iaNpK9jx45qN2HCBI0PIeirr75S4QghadKkSfLxxx+rYFS7dm0TAg4QIdWBmAXgMhgMBoPBYDAcOjDyzkh5enq6dOnS5WfMbXR0tHTu3FmFgDZt2shll12mzPSNN96ozDIDuOedd568+uqr8sADD+hoO8z+0qVLZezYsTJs2DBlyB966CEdXWcmAaEDAePEE0+Uxx9/XIUPhA3A1qT9+vVTN2YkLr/8clXJadCggdxzzz3y3HPPyT//+U8VJJgxwA3VnwsvvFBeeOEFFWK++OIL6dGjhzz55JMqPGBHWhEwEAh4B7Un1j3cd9998vXXX6uwwLc1a9ZM/vrXv0qHDh3k22+/laFDh8q9994rL730ks6KkE+mEnTgCCkEJMRGSL24iIDJYDAYDAaDwXCogHoLzHco5hZ7VGP8Z5hpLsDIPgw37yMwoErjCxUw6awXQEBgFJ2Rfd5nBJ5Rfxh73vdnHnzgJ/jq1auXnH/++Rrn+PHjlWlntJ+1AWiSEDdhIZCgloSKDyP7vooRQgDP6PWTJtYZMIMBY88IPwKJv66B+IgHoWHw4MEaH8LNhx9+KL/5zW+kbdu2ml+GA0PIHOzVrKYMaFM7YDIYDAaDwWAwHArAfKO6A5PMTkAw1T5giNHfh3FmFL+y8Jl6mGuYfRhqhANmGpgZSEhICPj04tgbUCV6+OGHdeEy6jsIE6EYcdLvM/Lcgy9AukiPny6EkLPPPltnO9D5D8all14qf/7zn1XAIN6rr75ahYLgxc+G/UNIIeDbJRkyeu7WgMlgMBgMBoPBcCgAUxwXFyeXXHKJfPTRR6qPzzkBMP9sB8pIOYtiUbfxgToNevI+Y10RCBPVGnT9r7zySlW1YUQfYYAZg8oAfX/iQi2HUf+77rpLHnnkEZ0V8NWHyqNhw4bK2LPFKMICswJ8E6P/zArgjsCDqtG1116rAoA/I8FsB8IDMwJ8/zfffCP16tWTP/zhD7pbEbMA06ZNMyHgICCkEFBcskuKik3fymAwGAwGg+FQA+YYhhhmGN19VHdYaPvGG2+onj1MNzr6qN0wgg5zzVkBMMyMnvuj8ggUMNLYsTiYkf9PP/1U1wG8++67urUoi3WZIcAf4fFOeWDH7AQLfefMmaMCBQt6WRBMulDlQX3H90t4hAVg8gcNGqSLlFnETNy8g4oS/k477TQVEFiUTDgs/OUO408+kHbi2bJli+469NRTT+n7LFRGkOjTp0+papRh/xFyd6DVaXlSImHSJTlOzVUFtjuQwXBsw3YHMlRl2O5Ahv0FjDQj9Mcff7wy9D/88IOq4MBY33DDDXLuuecqcwzzC0POIWHo9TMyzqh4t27ddMQcRj0rK0u39WRxLwuJeYddd9jVBx17FvrCjMOU4699+/alDLwPzKjqcA4BOxH5O/LMnTtX7fr376+7ALFNKYt1Yc7ZuYiZB/jK+vXr6zfhn/cxM2tB/MxGkC6EC7ZERdi4/fbbdSEwecD3s5MQQsyZZ56p77NjELMhzGicfvrpOpNRkfBS1VGVdgcKy8nJ2eVP9XBRkGBlap4UOqGgQ8OqJQRMXT9Rxi4fLX0bD5DT2p4bsDUYDMcKlqTNk5Hz3pEmtVvJdb1uDtgaDFUDadlb5MXpz0hkeLT8aeA9AVuD4ZdBsM598HNF2Jt7eeyLf4QQdgCCuWfBMsILuxMhWPzqV79SQeFYxdzN0+WjBSOkW8M+cmHn4QHbw4OQ6kCpOwpl8/bCgOmXBTpuTHExFcaqcfaeZVHILbfcIs8+/D/5acR0+WrkeHXHH/4NBoPBYDAYjmXAoPtMevBzRdibe3nsi39mEBjNZwehd955Rw8/Q3VoyJAhkpSUFPBlONwIORPw4cxU2Z5XLDcMaKjmQw32q+VEuHnz5qmuWiikZm+W9dvXSlKNBtKkdtkqeaag0Hvr3bu3Sp4Gg+HohM0EGKoybCbAYPAAb8lOR5wgjPBw3HHHlZ54fCzjiJgJiKgW5ohY5SXE/QUrzT/77DM9fIIFInsSAPYEKhnvEw7hoRNnMBgMBoPBYPjlAbPPib9XXXWV6vGzBuBYFwCqGkIKAY0ToqR53Wg5VPsDISFyFPTdd9+tR1AfLKadcAgPYYDtrIjHYDAYDAaDwWAwlCGkEFArJkISYw+NxMYJdv/617/kk08+0ZmAQwHUi1iUwl62xGcwGAwGg8FgMBg8hBQCZq3bIT+t3C4HWyFoyZIluv+tv7fsocb69es1vpUrVwZsDAaDwWAwGAyGYxshhYBqjvvnOphgj9onn3xST4D7JUF8jz32mHz//fcBG4PBYDAYDAaD4dhFSCEgKb66NKodddDWBKxYsUJPquMAicMBDkJDPYh0GAwGg8FgMBgMxzJCCgEt68VI+waxAdOBgaOtORIaRvxwgvhJByfPGQwGg8FgMBgMxypCCgHzN2bLtNVZB7wmIC8vT0+J4zjpqgDS8dxzz+mZCAaD4UjEod+62GAwGAyGQwN0bPzr8CLkYWEfzEyVrINwWNjIkSPlm2++CZj2D5wul5CQoM+Zeemyeccm2bEtS3Zm779qUd8BveWUs4cGTAaD4UjBum0rZeKa76Rrgz5yrR0WZqhi4LCw/0170vVVmXJl9+tdN3/4O3qDwVB1sCJ9kUxe96Oc2PwUubDzpQHbw4OQQsC4RemSnV8iF/Ssp+b9wfbt2/UcgAPdq//BBx+UevV2T8f6zevk/JvOCpj2HdXCw+WUm06UyGg7uMJgOJKQtzNH8osKZEjrM+WcDhcFbA2GqoGM3K3y3tzXZPrGKdIioYXs2mVCgMFgKEPOziwpKtklZ7W7yPVjpwVsDw9CCgGLN+dIQdEu6d4kTs37g4MxC9C/f3+59tprA6bd8dizj8o3P4wPmPYdfQf3kuMG9w6YDAbDkYLoiFhpWaedNEtoGbAxGKoGCoryZfnWJbJ228qDvsOewWA4OhAbGS+tEztIcq0mAZvDg5BCAOsB8naWyKC2tdW8r9ifWQDiHjp0qNStWzdg49nVqFEjYNod6Pdv2rQpYBJJS0tToWPjxo0Bmz0jJiZG/vnPf0ps7MFZAG0wGAwGg8FgMBwJCCkEjJyRKtvziuSmExupeV/x1Vdf6YnAlcXw4cPl5JNPDpgODF9++aWMGjUqYNozLrnkEhkyZEjAZDAYDAaDwWAwHP0IuTtQhHOJPIC5zIULFwae9o6TTjppNwGAkfxly5bt0xU8+n/GGWdInz59AqY9Y1/SaTAYDAaDwWAwHA0IORMwf0O25BeVSJ/mNdW8L2Bb0D/+8Y+VPheAU4Sjo6Nl27Zt8tRTT1Vanac8mjRpIr/73e8kPj5ew7rrrrsCLqERHh6upwmjGmQwGAwGg8FgMBwLCDkTEB0ZJjGRIZ33iAULFlRaAGjevLkKAOCzzz7bbwEArF+/XlWBQO3atX+2o1BFIJ2k12AwGAwGg8FgOFYQksufuyFHpq7eETDtG1avXh142juioqICT97C3gNFsBCBIFAZ7Et6DQaDwWAwGAyGIx0hhYCSXbv02h+kp6cHng4eGjduLIMHD9arUaPKLVauVq1yMxnsZGQwGAwGg8FgMBwrCMklN02Illb19k9P/mAz1RdeeKHce++9cumll+p1//33y3nnnRdwPXBkZWUFngwGg8FgMBgMhqMfIYWAhBoRUjdu/07TPZhMddeuXeXUU08NmMpw+umnS7t27QKmA8OhmLkwGAwGg8FgMBiqKkIKAesyCmRlWl7AVHmw0DYzMzNg2juWLl0qt9xyi148l0f37t0DTz9Hr169Ak9lCD6ivbLHtbOTUGUXMhsMBoPBYDAYDEc6QgoBHBSWkVMUMFUebLkZFxcXMB04Qp0WDGrVqhV4KsOGDRvk8ccf14vnyoA4SLfBYDAYDAaDwXAsIKQQEBcVLjWj948xrog531+w7WcorF27NvBUhtzcXJ1R4OK5MjiY6TUYDAaDwWAwGKo6QgoBrZJipGPDWNmf/YFq1qz8AWOxsbGq28/Fc3l8++23kpOTEzCVgXUHEyZMCJgODImJiYEng8FgMBgMBoPh6EdIISBtR6FszioMmPYN+yIEcMrvH/7wB714Lg9G8x9++GGZM2eOPu/YsUNmzpwp//rXvyo90r837Et6DQaDwWAwGAyGIx0hhYANmQWyemu+hAXM+4KWLVsGng4OOETs+eeflzvuuEPuvPNOefHFF3fb0SchIUF+/etfyxNPPCG/+tWvKn1ImI+KhA+DwWAwGAwGg+FoRUghQPaL/ffQrVu3wNPesXPnzsDT7qcH7wtuuOEG3Uo0JiZG477qqqsCLpXDvqTXYDAYDAaDwWA40hFSCOiSXEN6N48PmPYNLLRt0aJFwLRnpKSkBJ5EevbsGXjaNzRr1izw5KF169aBp72DdNrCYIPBYDAYDAbDsYSQQkD+zhK99hd72t8/GCz6nT9/vj73799fbr75Zn3XXyxc/qoIq1evDjx5WLVqVeBp7+jTp0/gyWAwGAwGg8FgODYQ5pjwXajkFBYW6pWcnKwOn8xOk6z8YrmmfwM17yu2b98u999/v+Tl7f3AMXT477nnHomP3/vMA4eKlQdrAlABatWqlSxZskTeeeedSp1aHB0dLQ8++GCl4jUYDAaDwWAwGI4WhJwJKCreJTuL938mABWbIUOGBEx7Bif2PvbYY7oD0P6AE4qfeuop+d3vfqcLiCsjAIDTTz/dBACDwWAwGAwGwzGHkDMBk1dul9ydxTKkfR017w+YBbjvvvsqzZSDunXr7nHffg4BOxiA+Wfr0cjIyICNwWAwGAwGg8FwbCCkELB0S64UFJVI18Zxat5ffPPNNzJy5MiAqergiiuukIEDBwZMBoPBYDAYDAbDsYOQ6kDrM/Jl1da96/PvDSeffLK0bds2YKoaaNOmjZx44okBk8FgMBgMBoPBcGwhpBCQmVskW7PL9vDfX4SFhclNN90kdersv1rRwQTpYHEx6TIYDAaDwWAwGI5FhBQCoiLDJDoipPM+oWbNmnLrrbdKeHh4wObwgPhvu+02WwxsMBgMBoPBYDimEZLL79W0ppzY5uAdosWBXpdeemnAdHhA/E2bNg2YDAaDwWAwGAyGYxMhhYDVW3NlyZbcgOnggIW4v//976VGjRoBm18GxEe8thDYYDAYDAaDwWDYgxCweXuhrM8sCJgOHjp06CB33323NGiwf4eQ7SuIh/iI12AwGAwGg8FgMOxBCCjZ5a79Pytsj+AcAE4IvuCCCw7ZrEBsbKycf/75Gs+ezh0wGAwGg8FgMBiONYQ8J2B5So4UFIt0alRDDuU+Orm5uTJ27Fj59ttvNf4DRXR0tJ5UPHToUBUEDAaDwWAwGAwGw+4IKQTMWrdDCnaWSL9WtQ6pEOCDU4Vnzpwp8+fPl4ULFwZsK4+OHTtK165dpXfv3rb7j8FgMBgMBoPBsAeEFAJGz0mTrPxiubLfL6O7H4yCggJZtGiRrF69WtLT0yUzM1MyMjL0npCQoHv9c0fNp0WLFioAREVFBd42GAwGg8FgMBgMe0JIIeDDmamyPa9YbhjQUM0VYVfg7s8UlDeDiuz2hoMRbmXe2VsYFeFQhFuZMCuDyqTjUIW7N1QmLfsbbnn/wXaVCbMy6ahMOOVxOMPdGyqTFswHO8zKoKJ0gKoQbmXe2VsY5XEowgSVCbcyqExaDle4uJd3C7bb2/sVoTLpqEy4lXmnMuGUxy8Z7oG8DyoKExyOcCvzTmXCKY9DEW5lwtwbKpOOQxVuZVCZtOxvuAcSZmXe2VsYFeFwhrsnhBQCJi7fpupAs9fv0BmB8LAwObVjHcnbWSzfLc1Uc5PEaDm9c6I8+90GNcdUryYX9Kin77KzUExkuHRrEqf24xdmSER4mDSvGy0nt0uQt6akSEFRiTSoVV16NY2Xten5snBTjsQ6vz2cuUZUuIxZkC7V3GcQRpM6UfLTiu1OMCly70TpWoUNmfmyaFOuRLpwB7errR/+3dJtUlS8S7q7d5JqRsqCjTmSklUoiTUiZUCbWup/6ZZc9Xt+j7qycVuB+sl339o5uYY0rRMtk1dtl8ycIomKrCZXHFdfvl2Sqekj3LO6Jarb3A3Z+g7fM6BNbflwRqrkFZZI8a5d8n+nNpV3p6ZI6o5CNZ/cvo5ERYR53+PyKT46XH57chP5xxer3deFOTuRK/s3kKmrsmRZCt9TTbq4tDR3+TvChUu+1Y+vLhf0rCuvT9qi8RDGgNa13LftVNWtSBd++wax0jopVj6amSYciNzM5VmfFjU13/w86NI4TnIKimWKi8tFI/1b1ZI6zv4rl7ad7vva14+VZu6b2B52nfvmmi4eVMJ4f7aLBwxqW9u9GybT1+zQsNokxbh4YzQf17lypzyG90mSOeuyZdHmHCkuEZcHtXWh+RyXbzvyXRnWrC5DOyTIZ/PSZVtukcsnketPaKDpWpGa594p8dIWGynfuPzPd3Ul1pXHb4c0kSe+Xq/moqJdcp0TUueuz5b5G7M1be1c+vnm137arPkW5a7b3Tsv/LDRxVusB+ANdOnPc2X3w7JtEuG+gzI8qW2CvDxxk+ZbUnykDHR1dJpLy3pXx6iLPVx9ouyoC+EuTPKaOvj53HStx8kJUVpm1JPFm3O1zvdtXlNPpuYdmmUfZ06Mi5Dpq3fINlePG9XmnTj3vbmy3H0z5UF7Iq8p06Jikd7N4yUhNsLlfbZk5Ox070fKkPYubWuyZPXWfJenuzSvybPFrsxos7SfZBf2hGWZku2+ubr75t+c3Fhe/2mTngRe5N45r3tdSduxU2as3eHyepc0c3XtlA515BXnx1VZret/PbOZvDJxs6S7eN0ny0kuT8iDrxama/nXqRHh2kcDefKbDUpsol35nNeznsxYnSUr0/Jcna+mbYq0fDwrTd+hfQ1x5T7S1WvqDm20R5N42eK+eY4rR9pJT5d+vpO6EebS0rp+jJbrDPfNadk7pW5cdenauIbmx0yXfsKlTka4DPze0aZCl3bKprGLl/q3wdVJ2stQR7+WuLLBrsR95CnOTBrmuzpJfWjj4qAuUwc5LZ36c61rl9QTvsd5cTQwQdsJ8eYWFktDR4vO6JIo70z12iV5SR39bF6ai7dQy+d4104TXV59Omer1rcoRxf/cnpTeeCz1bLLhems5GJXhosdbaIe44f6RVt9c/IWNZP+S/vWl5HTU2S7K9M4VyePd+2DtgPdoP23cW2f+sI7oLGrk32ceZZLK/S4VkyE0lLSD42GZvd1bYX6Pn5xptYd6gFxL3d1clVavqvHjs44upnr8ulHR0d2uXwj3lhnTx2FHlOmlDPtf42rk9Tj4S6tC923LHTftNPlQT8XT5z7hpmOZvAO5Utd/3L+VleOrv07P8w68/3LUlxeO6LRo2mchv3VggyltdCVP53WVJ78eoPkuLynjl7aN0nWZRTINFfnAP7P7lZXaQTlR979+qRkeXdaqqs7hdr+ST95Pm4RfVI1906UnNYpUWkEdR+ad7Kro3wP5R7j6jXfVyvGo5PV3MvUE9rz6LlbtQ41rF1d2/Jm15/Mc+8Rz3Eta2obGO/iob7RLus7ugcdpX7VczSd8oDOLnZ1krY1rBN9bIlMWrldywl3aCV1lB37aroyPKNLHaUhK1zaqF/nuz530/YC7T/Jp7auHndsGCtfL9kmO1xe8623ujz40PULafRJ7h2+FxpK3Slwed3Q9cMXurb7/ISNzt1r/3cOayofzEyVTe6byBf6m9qOFo2iHru8jY+OkNtPTpZ/jVmr79D+aQvQIsqxusvb9i4dtN33pqVovlEnoV/kG3WX8Kij9KnTXT2ljGm7zRNjXDxpGm+Leq5+ObtZjgZudt8JPezuaEa2y/cprq8m3050fTDxU6/JA+Jt5uoCNJH8hR5Dd9a6+jnflQ/98kmOZkCfKQ/Cou53c21uuqMzG7cVal9w7fENZYorC+gzeULfUd21NfIt29XBOi4tw/vUl7dcmyMMaOt19GMrHQ10cdFeKPeWdWPk49l8zy4tjwfOaSl//3y1hkn6z3F8xSYX51RXj8mn1u6bj29dW/sk6jB8Ee3jExcGNLCGa3/UPxeU9o+UR+t6MVpGr0/arP1pI1cnezerqfRulasrtNmerk1BL3mHeMlX+r8Jjm+iHsNndWhYQ1Y7/3wz3wptLXR97feODlKPoRnQEvpd+gZoYK9mcVr/VqbmK+d5rmuD9J20IehxT+dez9Ht6e776IPiY8KVVyQdG1z7pU5e3DvJ9Wl5Lr25Lr4SV4drSCfX7ka7+kaZUh53ndZM/vfDJtmeu1Pz+ixX33Kd2/cu/bgnubZyVb/6rk6u03yDFt00MFm+cPVtg6vH9IW9m8VrO/p8nkeP6Z/Odf3hCy5cygNae7Kro9Rj8o423NHlE/WJwXHKp6XLM/gM2jZ1l3ZNn0TZUE+ru/KAf4mLqqb0i+9r5+hqc1cPFri2TH+X4PiuXi4tW12bpD+hLsIT8V3UL+gA5dPYlQnvUCepx7R3+u1lrm4T7lDXJ9H3UK/pk+Ab6UPHL86QrLxi5XVvGdhIvnY0fo1rC8WusQ528US675i4fHtoIYAK4dq1K1SPIFPZGrtMIAASU81lLh1Rk4RoLXwKwOWVNl4+kPdhlmA8I5zjhm35WunoCGB+qGAQMAhsPdch7HD+qRwUSl3ece9SicgYmI24qAhljqgcdEzY0eggJO4VaeQqIh8LMYRw0OlGu86WMPNcxsDQQ0wzXeVhhgM/LVxBks4M54fMpEHD8KU65gjGjk4S5hYiSFw0gKYugwtd4aQHOi6+h3CpvO4VDbebqwwrXGPIc1wcjG+ya4zhLsPWZZAHokx+p+RY1zlna76Rt3QqKS7eLIi280RayN9VLlzyjXyisdJBUkkglsRLRaFDIa213Dt0YDCHhMv79VwHj6Dg50GiY6opT+IiLTQaOizy2gUrtV3j4JvIV76ZypzkOiuEP74ZIkZeE36qi5dGA0EgXjpzOmfCbeUIEukiHPKNhkbeEAbxU5mxI08KHIEh3HYNakiqK+MsJySQbzQs0oygRl5TN2gUEBaIOOG2rV9DCVGmuwBp4ZsRpqg75B3MOZ0sxIh8gjiS7s0uLtJK3cIO5p3vIq8hbAhx1A/qIvUYN+oCYRIPdXBtgIBBlDEjaMDgk1bS4V5xddJb8E49h6DAjEBUIcq8Q5nD2BE+7Ymy2uq+BwaxrguDd9JdXlInyQ/yn86cNkO+kdfUaeIlLXVdPIRNhwkjwTd2dgwKwi/th3yDUOTt3OXKqFDLhTKnPPADqAvdHQOy1OUjzCHf0dC5k8b17psJk3T5wh8eaP/NXPun3PkmOhs6bPJmdXqelgd1knjolGAOyWvSC/GibpC3mk/OnroBarm0kd8QWDoDOvs6rjzID+LStLk8IU20f9Lux0v7p05Sj6E75BF1knxr7PKauugzoXQMtVznRB3Md+VDeDBUMF98D+HCxJB/xEsdonNu4ugiHQbtknA7N4pz9SJf46UM6zsGizYGASZM2jd5CxNN3pN+mIRteTs1LeQT7ZC6ATOOmfZOJw9jQRlipn1Qj0gvYZJ28hLaCmq4tMFoklbqMR0gYfIdW1w+ES4CAHTSb2PxrnxgzGDUGfyhHkNn+DboOt+HGXpGuyMtcY4ZTIh1ee3STp3ke1q5esG3QG/9tkw72uroDnlO3Wni8nKdozt++2cAg3ZMW6BvQFCgviDAkDbyrptj/hY4BpO8pxyo+9kFJdoeAP6h0fjh+3ink2Mmlrv6Rj2m/UPz3E2FQ+3HXD2hDKERLmtK6wpp0QEwFwj5Bt1m4Ilwlc649FGm5A31gDqZ69KS4b7ZiydS7zAfgD6JgTHyza/H0BXtx1x+A/KE8KDZfB9hEjYCLx095U5aEeChk+QbfS7th7pOPpE26j9lCs2jPGBiaHPE67xoPNDQ1EA80OMWLhzywBWXhts1OV5WpefqNzmjDthRhxjoIF+VYXd0Zc56rx7DcDV1bYo8I73UydquTlKXEVjIN+ok7R+6Sd1BUIDG8cw38Q5phxEjbwHPCa7fggbynaSBulFEP+bqJOFSJ6mr0HTygDh5jzwhf3GDxlNXSBvfB81wr5a2ZepOHRcuTFmOy2tA+w/ukxrQl7uXsKOcSAt1kHYKrSXc0ndcvFQo0ur3ywoXJ8z5rLVZWhYAASTXxcl7YS4fa7o2RZtZugXeyhNm4RHIE8rQ718IjHKmHvMOZQRzSLDUGxjvTFe3EAb9fsy9qu8QrpfXEaV9BXlA+6cfgwa4VzSfqCvQQb4PfoDvph7TpuDHaAu0dcpev8fVUZ+3on7B00W79FDG0G3aWAtH82gb+CPcli4fiZcyo/2TttruvbWu73BFrfUYIc3vy8k7BHjKGwGKsqQ/ae3yf66rk3wf77R37X+9C4MypX6RVgZNEA7pb+D5yH+t+y5M6jV1FJpPWvw6Sd7A5xEudYt8gIbwPQxQ0lbhx8gX8hh3n2ZQHrVcPvMe9IG2DA2EXiOMUwcB8ZIX8KDULz9en7ei3Om76QspH/zyjgtC8596TBzUuY0ubeQTYGAHvj27wL3j/DZy7d9VGS3TkEIA4HUamotHATEEZDq5SyDYUXkAhUADodBpQvgmk0HZO44wuxcxEy7O+OGZ93xz6TsOmLHCHRtcQ72jfpx96He8ygNIO4/Y/ewdZ+YZPzR+7Px3gB9u+e8BVCIKUI3up3y+YaIw/XwDmHF2ua3uVDTyl3CAn5af5Ztzo8FgpspzL8s3zw8NGBtn3O0dLCgvUD7f/HziWd9xzxXmQdA7vpnn0nwjNvdfPt8wEbemDQsHiBTv4AO78vEQLvmkeVvuHY3HwS8PGgMo/w5m0gvIJx7Jt/Lv7LEeO2AmeX76cQ7OJ98MSt9xL2ATnAfeO4E66SyIl8c91kn3o2nDo4PWneB3guMJvFOaB7zgfsqXR2k9dnmwCydnGVyPGZEnXKDf4x4xEe6e2j8pwd7PA/Xj3sHsp22v+eaMtAc/rbjqO+6u9dihfF3x8+3n9bgs3yrKA/z5YfCMn73WY2fnfw/w6qSXB8Hv7JZvrnOAGdZAMBOPuxMu7uQbr+2t/QPseNR3ytVj/ASnNfgdUL6uhMo34L9TPg/8fCvNW/es3xOUbxXVyZ+1f95R74FwnTs0MLiNla/HmHnGD8A/6Sutk+6iPPbc/r30lc83/R7MuAe9AzRtzmqf2r8zY1W+PELWSWe32zvOzLPXxjw7wDs8EQ53bcvOX2neumdG/UK2f2cmXM1b2r+67EM/hhkrZ1GaNmeBO6XOa3urx7iW9mPuh3fL8s2z+1m+ufu+t3/PD9jtHXen7pTG43mpVJ8U/D3Ab/8YuYiXsDUPvNdV+KH96yvuxw/Xz1v8l6+TwfFgJlxQ9o6Lx72o8QT5wb9fHru944AZq+DvKX3H/fhmUPqOSwc2fr7x7L2zez3mUeuke6gonp/lmzPT3kLWY4d95a0wMxit8QTMu32Pe/RphoaLFXbuh+fSeuzM3EvzIOBn39q/F87P8s3d91aPd8s3DcOzA7u94+5ad5yf4HzbjU9y/8Hv7FEIMBgMBoPBYDAYDEcfEBoMBoPBYDAYDAbDMQQTAgwGg8FgMBgMhmMKIv8P7R64zOWN9wkAAAAASUVORK5CYII=;" vertex="1" parent="1">
          <mxGeometry x="450" y="1000" width="769" height="321" as="geometry" />
        </mxCell>
        <mxCell id="85sZW6mU-xxooky95qAK-19" value="VPC" style="sketch=0;outlineConnect=0;gradientColor=none;html=1;whiteSpace=wrap;fontSize=12;fontStyle=0;shape=mxgraph.aws4.group;grIcon=mxgraph.aws4.group_vpc;strokeColor=#879196;fillColor=none;verticalAlign=top;align=left;spacingLeft=30;fontColor=#879196;dashed=0;" vertex="1" parent="1">
          <mxGeometry x="90" y="300" width="110" height="130" as="geometry" />
        </mxCell>
      </root>
    </mxGraphModel>
  </diagram>
</mxfile>
